<svg width="192" height="60" viewBox="0 0 192 60" fill="none" xmlns="http://www.w3.org/2000/svg">
<path d="M8.28915 37.299C6.26885 35.3882 3.7732 34.9105 1.27754 34.3731C0.802175 34.2537 0.148551 33.4774 0.0891306 32.94C-0.0297102 31.0293 -0.0297102 29.1185 0.0891306 27.2077C0.148551 26.6703 0.742755 26.0135 1.27754 25.7747C1.99058 25.4164 2.82247 25.3567 3.59493 25.1775C9.23987 23.8639 11.0819 19.9229 7.93262 14.6086C6.03117 11.5036 6.03117 11.5036 8.58625 8.93601C11.5573 5.95043 11.4978 6.01015 15.0631 8.10005C19.995 10.9065 23.9761 9.23457 25.2834 3.26342C26.1153 -0.438697 25.4616 0.0987068 29.2051 0.0389953C30.3935 0.0389953 31.5819 -0.0804278 32.7109 0.0987068C33.2457 0.21813 33.9588 0.815245 34.1964 1.35265C34.9095 3.14399 35.2066 5.11447 36.0979 6.72668C37.524 9.29428 39.9008 10.0705 42.6341 9.05543C44.0602 8.51803 45.3675 7.74178 46.6153 6.90582C47.6849 6.18928 48.5168 5.89072 49.4675 7.08495C50.2994 8.15976 51.4284 9.05543 52.3791 10.0705C53.9834 11.6827 53.8646 11.623 52.7356 13.5338C51.8443 14.9669 50.953 16.5194 50.5965 18.1316C49.7646 22.1323 52.4385 24.1027 55.7066 25.1178C56.7762 25.4164 57.9646 25.6552 59.0342 26.1329C57.5487 26.1329 56.0632 26.1329 54.5776 26.1329C51.7849 26.1329 49.0515 26.1329 46.2588 26.1926C45.3675 26.2523 45.011 25.8941 44.595 25.1775C42.8124 22.0128 40.9704 18.9078 39.2472 15.7431C38.7718 14.9072 38.237 14.6086 37.2863 14.6086C32.1761 14.6683 27.1254 14.728 22.0153 14.7877C21.5399 14.7877 20.8268 15.146 20.5892 15.564C19.2819 17.6539 18.0935 19.8632 16.7863 22.192C17.3805 22.2517 17.8558 22.2517 18.3906 22.2517C23.2037 22.2517 28.0761 22.2517 32.8892 22.2517C33.8993 22.2517 34.4341 22.5502 34.9095 23.4459C35.8602 25.2373 36.9298 26.9689 37.9993 28.7005C38.5341 29.5962 38.5936 30.3127 37.9993 31.2084C36.9298 32.94 35.8602 34.6717 34.9689 36.463C34.4935 37.3587 33.9588 37.717 32.9486 37.717C28.9674 37.6572 25.0457 37.717 21.124 37.717C19.7573 40.1651 18.3906 42.4939 16.9051 45.0615C17.4399 45.1212 17.8558 45.1212 18.2124 45.1212C24.6298 45.1212 31.0472 45.1212 37.4646 45.1809C38.4747 45.1809 39.0095 44.8226 39.4849 43.9867C41.2675 40.7622 43.1095 37.6572 45.011 34.4925C45.2486 34.1343 45.724 33.776 46.1399 33.7163C50.5371 33.6566 54.9342 33.6566 59.3907 34.0148C58.5588 34.194 57.7269 34.3134 56.895 34.612C55.5878 35.0299 54.1023 35.3882 52.9733 36.1047C49.9428 38.0752 49.8834 41.2399 51.6066 44.6435C52.0226 45.4795 52.5573 46.196 53.1516 46.9125C53.8646 47.8082 53.8052 48.5247 52.9733 49.301C51.7849 50.4355 50.5371 51.57 49.5269 52.824C48.5168 54.0182 47.6849 53.7196 46.4965 53.0031C45.011 52.1074 43.466 51.1521 41.8023 50.7341C38.4747 49.8384 36.6327 51.8089 35.5037 54.1973C34.9689 55.3319 34.7906 56.5858 34.553 57.8397C34.2559 59.2131 33.8399 60.1088 32.1761 59.9894C30.5718 59.8699 28.9674 59.9296 27.4225 59.9894C26.3529 59.9894 25.8182 59.6908 25.5805 58.4966C25.224 56.7052 24.7486 54.7945 23.8573 53.1822C22.3124 50.4355 19.4602 49.7787 16.3703 51.2118C15.3008 51.6895 14.2906 52.2866 13.3993 53.0031C12.3892 53.7794 11.5573 54.0779 10.6065 53.0628C9.77466 52.1671 8.52683 51.6297 9.65582 49.8384C12.7457 44.8226 15.6573 39.6874 18.5095 34.5522C18.9254 33.776 19.4008 33.6566 20.1732 33.6566C23.7979 33.6566 27.4819 33.6566 31.1066 33.7163C31.9979 33.7163 32.5327 33.5372 32.7704 32.6415C32.8298 32.3429 33.0675 32.1041 33.2457 31.8652C33.6022 31.2084 34.3153 30.3724 34.137 29.8947C33.7211 28.6408 32.9486 27.5063 32.2356 26.4315C32.1167 26.2523 31.5819 26.2523 31.2254 26.2523C25.9964 26.2523 20.7674 26.2523 15.5384 26.3121C15.0631 26.3121 14.4094 26.73 14.1718 27.148C12.2109 30.4919 10.3094 33.776 8.28915 37.299Z" fill="#FCA804"/>
<path d="M72.0186 10.2H79.2774V36.78H72.0186V10.2ZM87.9761 10.2V15.36H74.5981V10.2H87.9761ZM86.8362 21.84V26.58H75.1981V21.84H86.8362Z" fill="white"/>
<path d="M97.335 16.3199V21.2999H90.0762V15.3599C90.0762 13.7999 90.5561 12.5999 91.456 11.6399C92.3558 10.6799 93.9156 10.2599 96.1352 10.2599H99.6747V15.4199H98.2949C97.9349 15.4199 97.695 15.4799 97.515 15.6599C97.455 15.7799 97.335 16.0199 97.335 16.3199ZM97.335 20.7599V30.6599C97.335 30.9599 97.395 31.1999 97.575 31.3199C97.755 31.4999 97.9949 31.5599 98.3549 31.5599H99.7347V36.7199H96.1952C93.9756 36.7199 92.4158 36.2399 91.516 35.3399C90.6161 34.3799 90.1362 33.1799 90.1362 31.6199V20.7599H97.335ZM101.174 21.2999V16.3199C101.174 16.0199 101.114 15.7799 100.934 15.6599C100.755 15.4799 100.515 15.4199 100.155 15.4199H98.7748V10.2599H102.314C104.534 10.2599 106.094 10.7399 106.994 11.6399C107.893 12.5999 108.373 13.7999 108.373 15.3599V21.2999H101.174ZM101.174 30.7199V20.7599H108.433V31.6199C108.433 33.1799 107.953 34.3799 107.054 35.3399C106.154 36.2999 104.594 36.7199 102.374 36.7199H98.8348V31.5599H100.215C100.575 31.5599 100.814 31.4999 100.994 31.3199C101.054 31.1999 101.174 31.0199 101.174 30.7199Z" fill="white"/>
<path d="M111.612 10.2H118.871V36.78H111.612V10.2ZM122.711 21.54V16.32C122.711 16.02 122.651 15.78 122.471 15.66C122.291 15.48 122.051 15.42 121.691 15.42H114.012V10.26H123.91C126.13 10.26 127.69 10.74 128.59 11.64C129.49 12.6 129.969 13.8 129.969 15.36V22.2C129.969 23.76 129.49 24.96 128.59 25.92C127.69 26.88 126.13 27.3 123.91 27.3H114.012V22.38H121.691C122.051 22.38 122.291 22.32 122.471 22.14C122.651 22.02 122.711 21.84 122.711 21.54ZM117.971 24.42H125.05L131.229 36.72H123.43L117.971 24.42Z" fill="white"/>
<path d="M139.868 15.8999V31.1399C139.868 31.4399 139.928 31.6799 140.108 31.7999C140.288 31.9799 140.528 32.0399 140.888 32.0399H141.848V36.7799H138.728C136.508 36.7799 134.949 36.2999 134.049 35.3999C133.149 34.4399 132.669 33.2399 132.669 31.6799V15.3599C132.669 13.7999 133.149 12.5999 134.049 11.6399C134.949 10.6799 136.508 10.2599 138.728 10.2599H142.027V14.9999H140.888C140.528 14.9999 140.288 15.0599 140.108 15.2399C139.928 15.3599 139.868 15.5999 139.868 15.8999ZM143.407 19.3199V15.8999C143.407 15.5999 143.347 15.3599 143.167 15.2399C142.987 15.0599 142.747 14.9999 142.387 14.9999H141.248V10.2599H144.547C146.767 10.2599 148.326 10.7399 149.226 11.6399C150.126 12.5999 150.606 13.7999 150.606 15.3599V19.3199H143.407ZM150.666 22.0799V26.6999H141.368V22.0799H150.666ZM143.407 31.0799V25.2599H150.666V31.6199C150.666 33.1799 150.186 34.3799 149.286 35.3399C148.386 36.2999 146.827 36.7199 144.607 36.7199H141.428V31.9799H142.387C142.747 31.9799 142.987 31.9199 143.167 31.7399C143.347 31.6199 143.407 31.4399 143.407 31.0799Z" fill="white"/>
<path d="M153.546 10.2H160.805V36.78H153.546V10.2ZM169.503 10.2V15.36H156.125V10.2H169.503ZM169.863 31.62V36.78H156.125V31.62H169.863ZM168.304 20.82V25.98H156.665V20.82H168.304Z" fill="white"/>
<path d="M185.101 23.28L192 36.78H183.841L181.021 29.34L178.142 36.78H170.463L176.942 23.28L170.643 10.2H178.862L181.081 16.98L183.301 10.2H191.1L185.101 23.28Z" fill="#FCA804"/>
<path d="M192 47.1597V49.3665C191.909 49.4674 191.768 49.5757 191.579 49.6913C191.392 49.8045 191.156 49.9016 190.871 49.9828C190.585 50.064 190.249 50.1046 189.863 50.1046C189.507 50.1046 189.183 50.048 188.893 49.9349C188.603 49.8192 188.353 49.6507 188.144 49.4293C187.937 49.2054 187.777 48.9323 187.664 48.61C187.553 48.2852 187.498 47.9137 187.498 47.4955V47.1966C187.498 46.7783 187.555 46.4068 187.668 46.0821C187.781 45.7573 187.94 45.4842 188.144 45.2628C188.35 45.0389 188.593 44.8691 188.871 44.7535C189.151 44.6379 189.459 44.58 189.793 44.58C190.288 44.58 190.69 44.6588 191 44.8162C191.31 44.9712 191.545 45.1865 191.704 45.4621C191.864 45.7352 191.962 46.0513 191.996 46.4105H190.752C190.728 46.2334 190.681 46.0833 190.612 45.9603C190.546 45.8348 190.45 45.7401 190.324 45.6761C190.199 45.6097 190.037 45.5765 189.837 45.5765C189.682 45.5765 189.541 45.6097 189.413 45.6761C189.288 45.7425 189.181 45.8434 189.092 45.9787C189.004 46.1116 188.935 46.2789 188.885 46.4806C188.839 46.6824 188.815 46.9185 188.815 47.1892V47.4955C188.815 47.7637 188.837 47.9986 188.882 48.2004C188.928 48.4021 188.997 48.5706 189.088 48.7059C189.182 48.8388 189.3 48.9397 189.443 49.0086C189.588 49.075 189.759 49.1082 189.955 49.1082C190.093 49.1082 190.211 49.0971 190.31 49.075C190.408 49.0504 190.489 49.0209 190.553 48.9864C190.62 48.9495 190.67 48.9151 190.705 48.8831V48.049H189.804V47.1597H192Z" fill="white"/>
<path d="M186.247 44.6576V50.0308H184.955L183.055 46.6873V50.0308H181.76V44.6576H183.055L184.955 48.0011V44.6576H186.247Z" fill="white"/>
<path d="M180.308 44.6576V50.0308H179.017V44.6576H180.308Z" fill="white"/>
<path d="M173.463 44.6576H175.577C175.99 44.6576 176.35 44.7191 176.655 44.8421C176.96 44.9651 177.195 45.1472 177.359 45.3883C177.527 45.6294 177.61 45.9271 177.61 46.2813C177.61 46.5889 177.562 46.846 177.466 47.0526C177.37 47.2593 177.236 47.4303 177.064 47.5656C176.894 47.6985 176.696 47.808 176.47 47.8941L176.046 48.1339H174.271L174.264 47.1338H175.577C175.742 47.1338 175.879 47.1043 175.987 47.0453C176.095 46.9862 176.176 46.9026 176.23 46.7943C176.287 46.6836 176.315 46.552 176.315 46.3994C176.315 46.2444 176.287 46.1116 176.23 46.0009C176.174 45.8902 176.09 45.8053 175.979 45.7462C175.871 45.6872 175.737 45.6577 175.577 45.6577H174.758V50.0308H173.463V44.6576ZM176.404 50.0308L175.216 47.6542L176.588 47.6468L177.791 49.9755V50.0308H176.404Z" fill="white"/>
<path d="M170.812 44.6576H172.107V48.1672C172.107 48.5854 172.02 48.9397 171.846 49.23C171.671 49.5179 171.426 49.7356 171.111 49.8832C170.796 50.0308 170.426 50.1046 170.001 50.1046C169.58 50.1046 169.21 50.0308 168.89 49.8832C168.573 49.7356 168.324 49.5179 168.145 49.23C167.967 48.9397 167.879 48.5854 167.879 48.1672V44.6576H169.178V48.1672C169.178 48.3886 169.21 48.5694 169.274 48.7097C169.338 48.8474 169.431 48.9483 169.554 49.0123C169.677 49.0762 169.826 49.1082 170.001 49.1082C170.178 49.1082 170.327 49.0762 170.447 49.0123C170.568 48.9483 170.659 48.8474 170.72 48.7097C170.782 48.5694 170.812 48.3886 170.812 48.1672V44.6576Z" fill="white"/>
<path d="M165.192 44.6576V50.0308H163.897V44.6576H165.192ZM166.808 44.6576V45.6577H162.317V44.6576H166.808Z" fill="white"/>
<path d="M160.257 48.2114H161.549C161.531 48.5854 161.431 48.9151 161.246 49.2005C161.062 49.4859 160.806 49.7085 160.479 49.8684C160.154 50.0259 159.77 50.1046 159.327 50.1046C158.968 50.1046 158.647 50.0443 158.364 49.9238C158.084 49.8032 157.845 49.6298 157.649 49.4034C157.454 49.1771 157.305 48.9028 157.202 48.5805C157.101 48.2582 157.051 47.8953 157.051 47.4918V47.2003C157.051 46.7968 157.104 46.4339 157.209 46.1116C157.318 45.7868 157.47 45.5113 157.667 45.2849C157.866 45.0561 158.105 44.8814 158.383 44.7609C158.661 44.6403 158.969 44.58 159.309 44.58C159.776 44.58 160.171 44.6637 160.493 44.831C160.816 44.9983 161.065 45.2283 161.242 45.5211C161.42 45.8114 161.524 46.1423 161.556 46.5138H160.265C160.26 46.3121 160.225 46.1436 160.161 46.0082C160.097 45.8705 159.997 45.7671 159.859 45.6982C159.721 45.6294 159.538 45.5949 159.309 45.5949C159.149 45.5949 159.01 45.6244 158.892 45.6835C158.774 45.7425 158.676 45.836 158.597 45.964C158.518 46.0919 158.459 46.258 158.42 46.4622C158.383 46.6639 158.364 46.9075 158.364 47.1929V47.4918C158.364 47.7772 158.382 48.0208 158.416 48.2225C158.45 48.4242 158.506 48.5891 158.582 48.717C158.658 48.845 158.757 48.9397 158.877 49.0012C159 49.0602 159.15 49.0898 159.327 49.0898C159.524 49.0898 159.69 49.059 159.826 48.9975C159.961 48.9335 160.065 48.8376 160.139 48.7096C160.213 48.5792 160.252 48.4132 160.257 48.2114Z" fill="white"/>
<path d="M153.869 45.7868L152.559 50.0308H151.168L153.142 44.6576H154.024L153.869 45.7868ZM154.954 50.0308L153.64 45.7868L153.47 44.6576H154.363L156.349 50.0308H154.954ZM154.902 48.0269V49.027H152.146V48.0269H154.902Z" fill="white"/>
<path d="M148.923 44.6576V50.0308H147.628V44.6576H148.923ZM151.012 46.894V47.8904H148.554V46.894H151.012ZM151.222 44.6576V45.6577H148.554V44.6576H151.222Z" fill="white"/>
<path d="M144.978 44.6576H146.273V48.1672C146.273 48.5854 146.186 48.9397 146.012 49.23C145.837 49.5179 145.592 49.7356 145.277 49.8832C144.962 50.0308 144.592 50.1046 144.167 50.1046C143.746 50.1046 143.376 50.0308 143.056 49.8832C142.739 49.7356 142.49 49.5179 142.311 49.23C142.133 48.9397 142.045 48.5854 142.045 48.1672V44.6576H143.344V48.1672C143.344 48.3886 143.376 48.5694 143.44 48.7097C143.504 48.8474 143.597 48.9483 143.72 49.0123C143.843 49.0762 143.992 49.1082 144.167 49.1082C144.344 49.1082 144.493 49.0762 144.613 49.0123C144.734 48.9483 144.825 48.8474 144.886 48.7097C144.948 48.5694 144.978 48.3886 144.978 48.1672V44.6576Z" fill="white"/>
<path d="M140.704 44.6576V50.0308H139.412L137.512 46.6873V50.0308H136.217V44.6576H137.512L139.412 48.0011V44.6576H140.704Z" fill="white"/>
<path d="M132.803 45.7868L131.493 50.0308H130.102L132.076 44.6576H132.958L132.803 45.7868ZM133.887 50.0308L132.574 45.7868L132.404 44.6576H133.297L135.282 50.0308H133.887ZM133.836 48.0269V49.027H131.079V48.0269H133.836Z" fill="white"/>
<path d="M123.935 44.6576H124.99L126.19 48.396L127.389 44.6576H128.444L126.618 50.0308H125.761L123.935 44.6576ZM123.293 44.6576H124.385L124.588 48.7761V50.0308H123.293V44.6576ZM127.994 44.6576H129.09V50.0308H127.791V48.7761L127.994 44.6576Z" fill="white"/>
<path d="M119.786 49.0344V50.0308H117.07V49.0344H119.786ZM117.531 44.6576V50.0308H116.236V44.6576H117.531Z" fill="white"/>
<path d="M112.822 45.7868L111.512 50.0308H110.121L112.095 44.6576H112.977L112.822 45.7868ZM113.907 50.0308L112.593 45.7868L112.424 44.6576H113.316L115.302 50.0308H113.907ZM113.855 48.0269V49.027H111.099V48.0269H113.855Z" fill="white"/>
<path d="M109.028 44.6576V50.0308H107.736V44.6576H109.028Z" fill="white"/>
<path d="M102.182 44.6576H104.296C104.709 44.6576 105.068 44.7191 105.373 44.8421C105.678 44.9651 105.913 45.1472 106.078 45.3883C106.245 45.6294 106.329 45.9271 106.329 46.2813C106.329 46.5889 106.281 46.846 106.185 47.0526C106.089 47.2593 105.955 47.4303 105.783 47.5656C105.613 47.6985 105.415 47.808 105.189 47.8941L104.765 48.1339H102.99L102.982 47.1338H104.296C104.461 47.1338 104.597 47.1043 104.705 47.0453C104.814 46.9862 104.895 46.9026 104.949 46.7943C105.006 46.6836 105.034 46.552 105.034 46.3994C105.034 46.2444 105.006 46.1116 104.949 46.0009C104.892 45.8902 104.809 45.8053 104.698 45.7462C104.59 45.6872 104.456 45.6577 104.296 45.6577H103.477V50.0308H102.182V44.6576ZM105.122 50.0308L103.934 47.6542L105.307 47.6468L106.51 49.9755V50.0308H105.122Z" fill="white"/>
<path d="M99.476 44.6576V50.0308H98.1808V44.6576H99.476ZM101.092 44.6576V45.6577H96.6016V44.6576H101.092Z" fill="white"/>
<path d="M94.3724 48.6026C94.3724 48.519 94.3601 48.4439 94.3355 48.3775C94.3109 48.3086 94.2654 48.2446 94.199 48.1856C94.1326 48.1265 94.0367 48.0675 93.9112 48.0085C93.7882 47.9469 93.6259 47.883 93.4242 47.8166C93.188 47.7378 92.9605 47.6493 92.7415 47.5508C92.5226 47.45 92.327 47.3331 92.1548 47.2003C91.9827 47.0649 91.8461 46.9075 91.7453 46.7279C91.6444 46.5458 91.594 46.3342 91.594 46.0931C91.594 45.8619 91.6457 45.654 91.749 45.4694C91.8523 45.2825 91.9962 45.1238 92.1807 44.9934C92.3676 44.8605 92.5866 44.7597 92.8375 44.6908C93.0884 44.6194 93.3627 44.5837 93.6603 44.5837C94.0539 44.5837 94.4007 44.6526 94.7008 44.7904C95.0034 44.9257 95.2396 45.1189 95.4093 45.3698C95.5815 45.6183 95.6676 45.9123 95.6676 46.2518H94.3798C94.3798 46.1165 94.3515 45.9972 94.295 45.8938C94.2408 45.7905 94.1584 45.7093 94.0477 45.6503C93.937 45.5912 93.7981 45.5617 93.6308 45.5617C93.4684 45.5617 93.3319 45.5863 93.2212 45.6355C93.1105 45.6847 93.0269 45.7511 92.9703 45.8348C92.9137 45.916 92.8854 46.0058 92.8854 46.1042C92.8854 46.1854 92.9076 46.2592 92.9519 46.3256C92.9986 46.3896 93.0638 46.4499 93.1474 46.5065C93.2335 46.563 93.3368 46.6172 93.4574 46.6688C93.5804 46.7205 93.7181 46.7709 93.8706 46.8201C94.156 46.9112 94.4093 47.0133 94.6307 47.1264C94.8546 47.2372 95.0428 47.3639 95.1953 47.5066C95.3503 47.6468 95.4671 47.8067 95.5458 47.9863C95.627 48.1659 95.6676 48.3689 95.6676 48.5952C95.6676 48.8363 95.6208 49.0504 95.5274 49.2374C95.4339 49.4243 95.2998 49.583 95.1252 49.7134C94.9505 49.8414 94.7414 49.9385 94.4979 50.005C94.2544 50.0714 93.9826 50.1046 93.6824 50.1046C93.4069 50.1046 93.1351 50.0702 92.867 50.0013C92.6013 49.9299 92.3603 49.8217 92.1438 49.6765C91.9273 49.5289 91.7539 49.3407 91.6235 49.1119C91.4956 48.8806 91.4316 48.6063 91.4316 48.2889H92.7305C92.7305 48.4464 92.7514 48.5792 92.7932 48.6875C92.835 48.7957 92.8965 48.8831 92.9777 48.9495C93.0589 49.0135 93.1585 49.0602 93.2766 49.0898C93.3946 49.1168 93.5299 49.1303 93.6824 49.1303C93.8473 49.1303 93.9801 49.107 94.0809 49.0602C94.1818 49.011 94.2556 48.9471 94.3023 48.8683C94.3491 48.7871 94.3724 48.6986 94.3724 48.6026Z" fill="white"/>
<path d="M88.9549 44.6576H90.2501V48.1672C90.2501 48.5854 90.1627 48.9397 89.9881 49.23C89.8134 49.5179 89.5687 49.7356 89.2538 49.8832C88.9389 50.0308 88.5687 50.1046 88.1431 50.1046C87.7225 50.1046 87.3523 50.0308 87.0325 49.8832C86.7152 49.7356 86.4667 49.5179 86.2872 49.23C86.11 48.9397 86.0215 48.5854 86.0215 48.1672V44.6576H87.3203V48.1672C87.3203 48.3886 87.3523 48.5694 87.4162 48.7097C87.4802 48.8474 87.5737 48.9483 87.6967 49.0123C87.8197 49.0762 87.9685 49.1082 88.1431 49.1082C88.3203 49.1082 88.4691 49.0762 88.5896 49.0123C88.7102 48.9483 88.8012 48.8474 88.8627 48.7097C88.9242 48.5694 88.9549 48.3886 88.9549 48.1672V44.6576Z" fill="white"/>
<path d="M82.3527 50.0308H81.1609L81.1683 49.0344H82.3527C82.5987 49.0344 82.8066 48.9754 82.9763 48.8573C83.1485 48.7392 83.2789 48.5633 83.3674 48.3295C83.4584 48.0933 83.5039 47.803 83.5039 47.4586V47.2261C83.5039 46.9678 83.4781 46.7414 83.4265 46.5471C83.3773 46.3502 83.3035 46.1866 83.2051 46.0562C83.1067 45.9234 82.9837 45.8237 82.8361 45.7573C82.691 45.6909 82.5237 45.6577 82.3343 45.6577H81.1388V44.6576H82.3343C82.6983 44.6576 83.0316 44.7203 83.3342 44.8458C83.6392 44.9688 83.9025 45.1459 84.1238 45.3772C84.3477 45.606 84.5199 45.8779 84.6404 46.1928C84.7634 46.5052 84.8249 46.8521 84.8249 47.2335V47.4586C84.8249 47.8375 84.7634 48.1844 84.6404 48.4993C84.5199 48.8142 84.3489 49.0861 84.1275 49.3149C83.9061 49.5437 83.6442 49.7208 83.3416 49.8463C83.0415 49.9693 82.7119 50.0308 82.3527 50.0308ZM81.9026 44.6576V50.0308H80.6074V44.6576H81.9026Z" fill="white"/>
<path d="M79.2476 44.6576V50.0308H77.9562L76.0559 46.6873V50.0308H74.7607V44.6576H76.0559L77.9562 48.0011V44.6576H79.2476Z" fill="white"/>
<path d="M73.31 44.6576V50.0308H72.0186V44.6576H73.31Z" fill="white"/>
</svg>
