<svg width="154" height="44" viewBox="0 0 154 44" fill="none" xmlns="http://www.w3.org/2000/svg">
<path d="M34.6842 44H0V15.3211L21.6728 0L43.1531 15.3211V44H38.5337V17.7078L21.6343 5.65879L4.61942 17.7078V39.3806H30.0648V22.5582L21.6343 17.0534L13.0884 22.5582V35.0691H8.46894V20.056L21.6728 11.5101L34.6842 20.056V44Z" fill="white"/>
<path d="M58.5125 26.6772V32.182H54.3936V15.0131H66.789V18.7857H58.5125V23.0971H66.0576V26.6772H58.5125Z" fill="white"/>
<path d="M68.252 23.5591C68.252 18.0542 71.5625 14.6282 76.9134 14.6282C82.3412 14.6282 85.5748 18.0158 85.5748 23.5591C85.5748 29.1024 82.4952 32.6054 76.9134 32.6054C71.3701 32.5669 68.252 29.1024 68.252 23.5591ZM81.4943 23.5591C81.4943 20.364 80.147 18.2467 76.9134 18.2467C73.7183 18.2467 72.3709 20.364 72.3709 23.5591C72.3709 26.9466 73.7183 29.0639 76.9134 29.0639C80.147 29.0254 81.4943 26.9081 81.4943 23.5591Z" fill="white"/>
<path d="M94.5442 26.2537H91.9265V32.182H87.769V15.0131H95.2756C99.6641 15.0131 101.935 16.8609 101.935 20.5949C101.935 23.2126 100.703 24.9449 98.5477 25.7533L102.936 31.874V32.182H98.1628L94.5442 26.2537ZM91.9265 18.4777V23.0586H95.0061C97.0079 23.0586 97.8548 22.3272 97.8548 20.7489C97.8548 19.1321 97.0464 18.4777 95.0061 18.4777H91.9265Z" fill="white"/>
<path d="M104.014 23.8285C104.014 18.0927 106.862 14.6667 112.444 14.6667C117.141 14.6667 119.412 16.7069 120.105 20.5179L116.255 21.3648C115.755 19.3246 114.754 18.2467 112.406 18.2467C109.288 18.2467 108.133 20.287 108.133 23.867C108.133 27.1776 109.326 29.1409 112.521 29.1409C115.716 29.1409 116.525 27.5241 116.525 25.9458H112.406V22.9046H120.374V32.2205H116.64V28.4864H116.294C115.562 30.7577 113.907 32.5284 110.866 32.5284C106.939 32.4514 104.014 29.5643 104.014 23.8285Z" fill="white"/>
<path d="M123.107 15.0131H136.08V18.5932H127.265V21.9038H135.387V25.0989H127.265V28.6019H136.08V32.182H123.146V15.0131H123.107Z" fill="white"/>
<path d="M145.435 25.4453H144.973L141.662 32.182H137.351V31.874L142.47 23.3666L137.428 15.3211V15.0131H141.97L145.358 21.5188H145.82L148.976 15.0131H153.288V15.3211L148.245 23.8285L153.403 31.874V32.182H148.822L145.435 25.4453Z" fill="white"/>
<path d="M55.3944 43.846H54.3936V38.1872H56.1643L57.0497 40.6124C57.2037 40.9974 57.4347 41.7288 57.6271 42.3832H57.7811C57.9736 41.7288 58.2046 40.9974 58.3586 40.5739L59.2439 38.1487H60.8992V43.8075H59.8214V41.1899C59.8214 40.5354 59.8599 39.6886 59.8599 39.0341H59.7059C59.5134 39.7655 59.2439 40.6124 58.936 41.3823L58.1276 43.4996H57.0882L56.2798 41.3438C55.9719 40.4969 55.7409 39.727 55.5484 39.0341H55.3944C55.3944 39.6886 55.3944 40.4969 55.3944 41.1899V43.846Z" fill="white"/>
<path d="M67.6743 42.4217H65.2491L64.7487 43.846H63.6323L65.7496 38.1872H67.2124L69.3296 43.846H68.1748L67.6743 42.4217ZM65.5571 41.6133H67.4049L67.1739 40.9204C66.9814 40.343 66.7889 39.6885 66.5965 39.1496H66.3655C66.2115 39.727 65.9805 40.343 65.7881 40.9204L65.5571 41.6133Z" fill="white"/>
<path d="M72.1016 43.846V38.1872H73.1794V43.846H72.1016Z" fill="white"/>
<path d="M78.6457 41.2668C78.3378 40.6894 77.9528 39.804 77.6448 39.1111H77.4909C77.5294 39.9195 77.6063 41.1129 77.6063 41.8828V43.8075H76.6055V38.1872H78.1453L79.3771 40.4199C79.8006 41.1514 80.224 42.1137 80.455 42.7682H80.609C80.5705 41.9598 80.4935 40.9204 80.4935 40.189V38.2257H81.4944V43.8845H80.07L78.6457 41.2668Z" fill="white"/>
<path d="M84.4966 38.1872H89.0775V39.1881H87.3452V43.846H86.2289V39.1881H84.4966V38.1872Z" fill="white"/>
<path d="M92.0034 38.1872H96.0839V39.1111H93.0813V40.4969H95.8144V41.4208H93.0813V42.8836H96.0839V43.8075H92.0034V38.1872Z" fill="white"/>
<path d="M101.435 41.2668C101.127 40.6894 100.742 39.804 100.434 39.1111H100.28C100.318 39.9195 100.395 41.1129 100.395 41.8828V43.8075H99.3945V38.1872H100.934L102.166 40.4199C102.59 41.1514 103.013 42.1137 103.244 42.7682H103.398C103.36 41.9598 103.283 40.9204 103.283 40.189V38.2257H104.283V43.8845H102.859L101.435 41.2668Z" fill="white"/>
<path d="M111.097 42.4217H108.672L108.172 43.846H107.055L109.172 38.1872H110.635L112.752 43.846H111.598L111.097 42.4217ZM108.98 41.6133H110.828L110.597 40.9204C110.404 40.343 110.212 39.6885 110.019 39.1496H109.788C109.634 39.727 109.403 40.343 109.211 40.9204L108.98 41.6133Z" fill="white"/>
<path d="M117.603 41.2668C117.295 40.6894 116.91 39.804 116.602 39.1111H116.448C116.486 39.9195 116.563 41.1129 116.563 41.8828V43.8075H115.562V38.1872H117.102L118.334 40.4199C118.758 41.1514 119.181 42.1137 119.412 42.7682H119.566C119.528 41.9598 119.451 40.9204 119.451 40.189V38.2257H120.451V43.8845H119.027L117.603 41.2668Z" fill="white"/>
<path d="M123.569 41.0359C123.569 39.1881 124.609 38.1102 126.341 38.1102C127.804 38.1102 128.689 38.9186 128.882 40.266L127.842 40.4584C127.688 39.5346 127.188 39.0341 126.302 39.0341C125.148 39.0341 124.647 39.881 124.647 41.0359C124.647 42.2677 125.148 43.0761 126.302 43.0761C127.265 43.0761 127.688 42.5757 127.881 41.6133L128.882 41.8058C128.689 43.1916 127.804 44 126.302 44C124.57 44 123.569 42.8451 123.569 41.0359Z" fill="white"/>
<path d="M132 38.1872H136.08V39.1111H133.078V40.4969H135.811V41.4208H133.078V42.8836H136.08V43.8075H132V38.1872Z" fill="white"/>
</svg>
