<svg xmlns="http://www.w3.org/2000/svg" width="181" height="66" viewBox="0 0 181 66" fill="none"><path d="M5.6118 26.8767H0V23.843C5.10661 23.843 9.42895 23.843 14.5612 23.843V26.8767H8.94938V41.5386H5.6118V26.8767Z" fill="#001444"></path><path d="M28.641 41.5386V34.3847H19.9451V41.5386H16.6084V23.8438H19.9451V31.3015H28.641V23.8438H31.953V41.5395H28.641V41.5386Z" fill="#001444"></path><path d="M66.2817 28.697L60.518 36.3816H59.8609L54.2235 28.6714V41.5386H50.8868V23.8438H54.7296L60.2654 31.4525L65.8013 23.8438H69.6184V41.5395H66.2817V28.697Z" fill="#001444"></path><path d="M116.688 35.2821C120.05 34.5993 121.162 32.1476 121.162 29.7206C121.162 26.6621 118.963 23.8809 114.792 23.8553C111.986 23.8553 109.18 23.8306 106.374 23.8306V41.5509H109.711V35.6353H112.921L118.078 41.5509H122.047V41.324L116.688 35.2821ZM109.711 32.6272V26.965H114.792C116.89 26.965 117.826 28.3808 117.826 29.7966C117.826 31.2123 116.916 32.6272 114.792 32.6272H109.711Z" fill="#001444"></path><path d="M123.437 41.5386V23.8438H126.749V41.5395H123.437V41.5386Z" fill="#001444"></path><path d="M139.489 41.5766H136.026L128.67 23.805H132.412L137.745 37.5819L143.104 23.805H146.846L139.489 41.5766Z" fill="#001444"></path><path d="M35.0371 27.079H48.2832V23.843H35.0371C35.0371 24.9213 35.0371 25.9997 35.0371 27.079Z" fill="url(#paint0_linear_509_100)"></path><path d="M48.2832 41.5386V38.2522H38.3482V34.2584H47.929V31.1487H35.0371C35.0371 34.6144 35.0371 38.08 35.0371 41.5386H48.2832Z" fill="#001444"></path><path d="M85.9486 41.5386V38.2522H76.0145V34.2584H85.5954V31.1487H72.7025V41.5386H85.9486Z" fill="#001444"></path><path d="M85.9486 23.843H72.7025V27.079H85.9486V23.843Z" fill="url(#paint1_linear_509_100)"></path><path d="M162.089 23.8438H148.843C148.843 24.9213 148.843 26.0006 148.843 27.0799H162.089V23.8438Z" fill="url(#paint2_linear_509_100)"></path><path d="M162.089 41.5386V38.2522H152.154V34.2584H161.735V31.1487H148.843C148.843 34.6144 148.843 38.08 148.843 41.5386H162.089Z" fill="#001444"></path><path d="M180.366 41.5518H176.397L171.24 35.6362H168.03V41.5518H164.693V23.8306C167.499 23.8306 170.305 23.8562 173.111 23.8562C177.282 23.8818 179.481 26.6621 179.481 29.7206C179.481 32.1476 178.369 34.5993 175.007 35.2821L180.366 41.324V41.5518ZM168.03 26.965V32.6272H173.111C175.234 32.6272 176.145 31.2114 176.145 29.7957C176.145 28.3799 175.209 26.9642 173.111 26.9642H168.03V26.965Z" fill="#001444"></path><path d="M95.1842 29.2251L93.3392 31.9109L87.5066 23.7705H91.2513L95.1842 29.2251Z" fill="#001444"></path><path d="M95.2875 36.1467L91.5339 41.611H87.7477L93.3551 33.4494L95.2875 36.1467Z" fill="#001444"></path><path d="M104.116 41.611H102.19L95.9455 32.6908L101.866 23.7705H103.79L97.6721 32.6749L104.116 41.611Z" fill="#D43C9A"></path><path d="M102.19 41.611H100.29L95.8192 35.3721L93.8868 32.6749L95.7335 29.9864L100.004 23.7705H101.866L95.9455 32.6908L102.19 41.611Z" fill="#F4255C"></path><path d="M102.19 41.611H100.29L95.8192 35.3721L93.8868 32.6749L95.7335 29.9864L100.004 23.7705H101.866L95.9455 32.6908L102.19 41.611Z" fill="#4F3FC9"></path><path d="M100.429 53.7787C92.5743 61.1843 83.4704 65.7424 75.7027 65.3591C65.3703 64.8486 60.4156 55.7447 62.3595 43.3491H67.0545C65.5725 54.3731 70.1351 62.3978 79.4316 62.8571C86.0069 63.1821 93.6253 59.6546 100.429 53.7787Z" fill="url(#paint3_linear_509_100)"></path><path d="M118.421 13.4919C117.047 7.21157 112.839 3.1012 106.263 2.77707C96.4577 2.29308 84.3368 10.3716 76.0525 22.0324H71.285C80.2998 8.77924 93.9221 -0.518117 104.883 0.0223962C112.649 0.406584 117.378 5.64656 118.421 13.4919Z" fill="url(#paint4_linear_509_100)"></path><path d="M104.689 43.3491H108.93C100.991 54.4305 89.4452 62.0904 80.094 61.6329C73.2422 61.2973 69.07 56.6782 68.1479 49.7611C69.3623 55.2978 73.0744 58.9215 78.8743 59.2051C87.2019 59.6122 97.4213 53.0201 104.689 43.3491Z" fill="#7E33DD"></path><path d="M117.776 22.0324H113.6C114.356 13.03 110.333 6.60041 102.526 6.21887C96.7262 5.93448 90.0078 9.04684 84.0083 14.2303C90.9334 7.69821 98.9633 3.67616 105.814 4.01177C114.539 4.43835 118.919 11.813 117.776 22.0324Z" fill="#7E33DD"></path><defs><linearGradient id="paint0_linear_509_100" x1="48.4459" y1="25.4586" x2="37.2975" y2="30.6154" gradientUnits="userSpaceOnUse"><stop stop-color="#F4255C"></stop><stop offset="1" stop-color="#4051E1"></stop></linearGradient><linearGradient id="paint1_linear_509_100" x1="86.1114" y1="25.4586" x2="74.963" y2="30.6154" gradientUnits="userSpaceOnUse"><stop stop-color="#F4255C"></stop><stop offset="1" stop-color="#4051E1"></stop></linearGradient><linearGradient id="paint2_linear_509_100" x1="162.252" y1="25.4595" x2="151.104" y2="30.6163" gradientUnits="userSpaceOnUse"><stop stop-color="#F4255C"></stop><stop offset="1" stop-color="#4051E1"></stop></linearGradient><linearGradient id="paint3_linear_509_100" x1="100.901" y1="54.3494" x2="63.056" y2="61.8195" gradientUnits="userSpaceOnUse"><stop stop-color="#F4255C"></stop><stop offset="1" stop-color="#4051E1"></stop></linearGradient><linearGradient id="paint4_linear_509_100" x1="119" y1="11.0003" x2="73.5" y2="22.0003" gradientUnits="userSpaceOnUse"><stop stop-color="#F4255C"></stop><stop offset="1" stop-color="#4051E1"></stop></linearGradient></defs></svg>