<svg width="189" height="54" viewBox="0 0 189 54" fill="none" xmlns="http://www.w3.org/2000/svg">
<path d="M42.5669 54H0V18.8031L26.5984 0L52.9606 18.8031V54H47.2913V21.7323L26.5512 6.94488L5.66929 21.7323V48.3307H36.8976V27.685L26.5512 20.9291L16.063 27.685V43.0394H10.3937V24.6142L26.5984 14.126L42.5669 24.6142V54Z" fill="black"/>
<path d="M71.811 32.7407V39.4966H66.7559V18.4258H81.9685V23.0557H71.811V28.347H81.0708V32.7407H71.811Z" fill="black"/>
<path d="M83.7637 28.9138C83.7637 22.1579 87.8267 17.9531 94.3936 17.9531C101.055 17.9531 105.024 22.1106 105.024 28.9138C105.024 35.7169 101.244 40.0161 94.3936 40.0161C87.5904 39.9689 83.7637 35.7169 83.7637 28.9138ZM100.016 28.9138C100.016 24.9925 98.3621 22.3941 94.3936 22.3941C90.4723 22.3941 88.8188 24.9925 88.8188 28.9138C88.8188 33.0712 90.4723 35.6697 94.3936 35.6697C98.3621 35.6224 100.016 33.024 100.016 28.9138Z" fill="black"/>
<path d="M116.031 32.2211H112.819V39.4966H107.716V18.4258H116.929C122.315 18.4258 125.102 20.6935 125.102 25.2762C125.102 28.4888 123.59 30.6148 120.945 31.6069L126.33 39.1187V39.4966H120.472L116.031 32.2211ZM112.819 22.6777V28.2998H116.598C119.055 28.2998 120.094 27.4022 120.094 25.4651C120.094 23.4809 119.102 22.6777 116.598 22.6777H112.819Z" fill="black"/>
<path d="M127.653 29.2441C127.653 22.2047 131.149 18 138 18C143.764 18 146.551 20.5039 147.401 25.1811L142.677 26.2205C142.063 23.7165 140.834 22.3937 137.953 22.3937C134.126 22.3937 132.708 24.8976 132.708 29.2913C132.708 33.3543 134.173 35.7638 138.094 35.7638C142.016 35.7638 143.008 33.7795 143.008 31.8425H137.953V28.1102H147.732V39.5433H143.149V34.9606H142.724C141.827 37.748 139.795 39.9213 136.063 39.9213C131.244 39.8268 127.653 36.2835 127.653 29.2441Z" fill="black"/>
<path d="M151.086 18.4258H167.008V22.8195H156.189V26.8825H166.157V30.8037H156.189V35.1029H167.008V39.4966H151.134V18.4258H151.086Z" fill="black"/>
<path d="M178.488 31.2289H177.921L173.858 39.4966H168.567V39.1187L174.85 28.6777L168.661 18.8037V18.4258H174.236L178.394 26.41H178.961L182.835 18.4258H188.126V18.8037L181.937 29.2447L188.268 39.1187V39.4966H182.646L178.488 31.2289Z" fill="black"/>
<path d="M67.9842 53.8105H66.7559V46.8656H68.9291L70.0157 49.842C70.2047 50.3144 70.4881 51.2121 70.7244 52.0152H70.9133C71.1496 51.2121 71.433 50.3144 71.622 49.7947L72.7086 46.8184H74.7401V53.7632H73.4173V50.5506C73.4173 49.7475 73.4645 48.7081 73.4645 47.905H73.2755C73.0393 48.8026 72.7086 49.842 72.3307 50.7869L71.3385 53.3853H70.0629L69.0708 50.7396C68.6929 49.7003 68.4094 48.7554 68.1732 47.905H67.9842C67.9842 48.7081 67.9842 49.7002 67.9842 50.5506V53.8105Z" fill="black"/>
<path d="M83.0549 52.0631H80.0785L79.4643 53.8111H78.0942L80.6927 46.8662H82.4879L85.0864 53.8111H83.669L83.0549 52.0631ZM80.4564 51.0709H82.7242L82.4407 50.2205C82.2045 49.5119 81.9683 48.7087 81.732 48.0473H81.4486C81.2596 48.756 80.9761 49.5119 80.7399 50.2205L80.4564 51.0709Z" fill="black"/>
<path d="M88.4883 53.8111V46.8662H89.8111V53.8111H88.4883Z" fill="black"/>
<path d="M96.5196 50.6457C96.1416 49.9371 95.6692 48.8505 95.2912 48.0001H95.1022C95.1495 48.9922 95.244 50.4568 95.244 51.4016V53.7639H94.0156V46.8662H95.9054L97.4172 49.6064C97.9369 50.504 98.4566 51.6851 98.74 52.4883H98.929C98.8818 51.4961 98.7873 50.2205 98.7873 49.3229V46.9135H100.016V53.8583H98.2676L96.5196 50.6457Z" fill="black"/>
<path d="M103.701 46.8662H109.323V48.0946H107.197V53.8111H105.827V48.0946H103.701V46.8662Z" fill="black"/>
<path d="M112.914 46.8662H117.921V48.0001H114.236V49.7009H117.591V50.8347H114.236V52.63H117.921V53.7639H112.914V46.8662Z" fill="black"/>
<path d="M124.488 50.6457C124.11 49.9371 123.638 48.8505 123.26 48.0001H123.071C123.118 48.9922 123.213 50.4568 123.213 51.4016V53.7639H121.984V46.8662H123.874L125.386 49.6064C125.906 50.504 126.425 51.6851 126.709 52.4883H126.898C126.851 51.4961 126.756 50.2205 126.756 49.3229V46.9135H127.984V53.8583H126.236L124.488 50.6457Z" fill="black"/>
<path d="M136.346 52.0631H133.37L132.756 53.8111H131.386L133.984 46.8662H135.779L138.378 53.8111H136.961L136.346 52.0631ZM133.748 51.0709H136.016L135.732 50.2205C135.496 49.5119 135.26 48.7087 135.024 48.0473H134.74C134.551 48.756 134.268 49.5119 134.031 50.2205L133.748 51.0709Z" fill="black"/>
<path d="M144.331 50.6457C143.953 49.9371 143.48 48.8505 143.102 48.0001H142.913C142.961 48.9922 143.055 50.4568 143.055 51.4016V53.7639H141.827V46.8662H143.716L145.228 49.6064C145.748 50.504 146.268 51.6851 146.551 52.4883H146.74C146.693 51.4961 146.598 50.2205 146.598 49.3229V46.9135H147.827V53.8583H146.079L144.331 50.6457Z" fill="black"/>
<path d="M151.653 50.362C151.653 48.0943 152.929 46.7715 155.055 46.7715C156.85 46.7715 157.937 47.7636 158.173 49.4172L156.897 49.6534C156.708 48.5195 156.094 47.9053 155.008 47.9053C153.59 47.9053 152.976 48.9447 152.976 50.362C152.976 51.8738 153.59 52.866 155.008 52.866C156.189 52.866 156.708 52.2518 156.945 51.0707L158.173 51.3069C157.937 53.0077 156.85 53.9998 155.008 53.9998C152.882 53.9998 151.653 52.5825 151.653 50.362Z" fill="black"/>
<path d="M162 46.8662H167.008V48.0001H163.323V49.7009H166.677V50.8347H163.323V52.63H167.008V53.7639H162V46.8662Z" fill="black"/>
</svg>
