<svg width="158" height="52" viewBox="0 0 158 52" fill="none" xmlns="http://www.w3.org/2000/svg">
<path d="M16.6239 34.4015C16.5718 32.3709 16.9363 30.6006 17.9255 29.1948C19.3834 27.0601 19.6958 24.7691 19.5917 22.2699C19.5396 20.4997 19.7999 20.8121 18.1338 20.4997C16.8842 20.2393 15.6346 20.0311 14.4371 19.7187C13.7602 19.5625 13.2395 19.6145 12.6668 20.0831C11.7817 20.76 10.7924 20.8641 9.80313 20.2914C8.81387 19.6666 8.4494 18.7815 8.6056 17.636C8.7618 16.5426 9.43867 15.8657 10.48 15.5533C11.4693 15.293 12.2503 15.6054 13.0313 16.2823C13.3957 16.5947 14.0726 16.855 14.5412 16.8029C16.2594 16.6467 17.9255 16.3343 19.852 16.074C19.852 14.5641 19.9041 13.0541 19.7999 11.5963C19.7999 11.2318 19.2793 10.8674 18.9148 10.607C16.9363 9.14915 16.0511 7.17062 16.4677 4.77555C16.8842 2.43255 18.3421 0.922621 20.5809 0.245755C23.2884 -0.587312 26.2041 0.766421 27.4017 3.26562C28.6513 5.86895 27.8703 8.94089 25.4231 10.5029C24.7463 10.9715 24.4339 11.4401 24.538 12.2211C24.6421 13.2624 24.6421 14.2517 24.6421 15.293C24.6421 15.8657 24.9025 16.1782 25.4752 16.2302C27.0893 16.4385 28.7033 16.6467 30.3695 16.8029C30.6819 16.855 31.0463 16.5947 31.3067 16.3864C32.4001 15.3451 33.91 15.1889 35.0034 16.1261C36.0447 17.0633 36.2009 18.6253 35.2637 19.7187C34.3265 20.8641 32.8166 20.9683 31.5149 20.0311C31.2025 19.7707 30.6298 19.6666 30.2653 19.7187C28.7033 19.979 27.1934 20.3435 25.6314 20.6038C25.0066 20.7079 24.6942 21.0203 24.8504 21.6451C25.2669 23.7278 24.3818 25.3419 23.3405 27.008C21.5702 29.7675 19.1751 31.9543 16.6239 34.4015ZM25.6835 5.76482C25.6835 3.83835 24.1735 2.27635 22.2991 2.22429C20.3727 2.22429 18.7065 3.78629 18.7065 5.71275C18.7065 7.69129 20.2685 9.25329 22.3512 9.20122C24.2256 9.20122 25.6835 7.69129 25.6835 5.76482ZM27.3496 18.3649C23.9132 17.7922 20.4768 17.8443 17.0404 18.3649C20.4768 19.0939 23.9132 19.2501 27.3496 18.3649ZM21.9347 11.8566C21.9347 12.95 21.9347 13.9914 21.9347 15.1889C22.7677 14.0955 22.8198 13.0541 21.9347 11.8566ZM22.6636 22.3741C21.7264 22.7385 21.5702 24.0402 22.3512 25.4981C22.4553 24.4567 22.5595 23.4675 22.6636 22.3741Z" fill="white"/>
<path d="M3.39913 32.0585C5.48179 35.0783 8.08513 37.4213 11.5736 38.7751C13.448 39.504 15.1662 39.1395 16.6761 37.8899C21.0497 34.4015 24.7465 30.3403 27.0895 25.1336C27.1415 24.9774 27.2457 24.8212 27.2977 24.665C28.3391 27.0601 28.287 31.2254 27.1415 34.0891C25.6837 37.7858 23.0803 40.6495 20.0605 43.0966C18.6026 44.2421 17.0927 45.2834 15.5827 46.3247C15.2703 46.533 14.6976 46.533 14.3331 46.3768C10.0637 44.4503 6.67933 41.5346 4.44046 37.3693C4.33633 37.2131 4.18013 37.0569 4.076 36.9527C3.97186 36.9527 3.86773 36.9527 3.7636 36.9527C3.6074 38.1503 3.4512 39.3478 3.34706 40.4933C-0.766203 37.5775 -0.97447 28.9345 2.09746 24.8733C3.08673 26.4873 3.9198 28.3097 5.11733 29.7155C6.31486 31.1213 7.98099 32.1626 9.43886 33.4122C8.60579 34.6618 6.93966 34.9742 5.58593 33.8287C4.85699 33.2039 4.28426 32.4229 3.65946 31.7461C3.6074 31.8502 3.50326 31.9543 3.39913 32.0585ZM7.14793 37.4213C8.24133 39.7123 11.2612 41.7429 12.8232 41.2743C10.9488 40.0247 9.02233 38.723 7.14793 37.4213ZM22.5597 35.9114C22.4035 35.9114 22.2473 35.9114 22.0911 35.8593C22.0911 36.6403 22.0911 37.4213 22.0911 38.2023C22.1952 38.2023 22.2993 38.2023 22.4035 38.2023C22.4035 37.4734 22.5076 36.6924 22.5597 35.9114Z" fill="white"/>
<path d="M42.3969 25.0295C45.6771 28.6741 45.0002 37.6296 41.1473 40.4412C40.9911 39.2437 40.887 38.0461 40.7308 36.8486C40.6266 36.8486 40.5225 36.7965 40.4184 36.7965C40.2101 37.1089 39.9498 37.4213 39.7936 37.7858C37.3985 41.8991 33.9621 44.7627 29.5885 46.6371C28.4951 47.1057 27.4017 47.6264 26.3604 48.1991C24.3298 49.2925 23.4967 50.1256 22.3512 52C20.9975 50.6463 19.6438 49.2405 18.29 47.8347C19.9041 46.4809 21.7264 45.1272 23.3926 43.5131C25.0587 41.8991 26.5166 40.1288 28.1306 38.3065C30.4736 39.6602 32.8166 38.9833 35.1076 37.6296C37.3985 36.2238 39.325 34.5056 40.7308 32.1105C38.9605 33.8287 37.2423 35.8593 34.5869 33.0477C36.5654 32.5271 38.0233 31.3295 39.1688 29.7675C40.3663 28.3617 41.3556 26.6956 42.3969 25.0295ZM30.8381 41.9511C33.858 41.5346 35.6803 39.7643 37.2423 37.5775C35.1596 38.9833 33.077 40.3891 30.8381 41.9511Z" fill="white"/>
<path d="M54.4243 38.4626L55.3615 42.1073L56.3507 38.4626H57.34L58.2772 42.1073L59.2144 38.4626H60.3078L58.902 43.461H57.6524L56.7673 40.1288L55.9342 43.461H54.6846L53.2788 38.4626H54.4243Z" fill="white"/>
<path d="M64.9937 43.1487C64.6293 43.3569 64.2127 43.4611 63.6921 43.4611C63.1714 43.4611 62.8069 43.3569 62.3904 43.1487C62.0259 42.9404 61.7135 42.628 61.5053 42.2115C61.297 41.847 61.1929 41.3784 61.1929 40.9098C61.1929 40.4412 61.297 39.9726 61.5053 39.6081C61.7135 39.2437 62.0259 38.9313 62.3904 38.6709C62.7549 38.4627 63.1714 38.3585 63.6921 38.3585C64.2127 38.3585 64.6293 38.4627 64.9937 38.6709C65.3582 38.8792 65.6706 39.1916 65.8789 39.6081C66.0871 39.9726 66.1913 40.4412 66.1913 40.9098C66.1913 41.3784 66.0871 41.847 65.8789 42.2115C65.6706 42.628 65.3582 42.9404 64.9937 43.1487ZM62.9631 42.3677C63.1714 42.5239 63.4317 42.5759 63.6921 42.5759C63.9524 42.5759 64.2127 42.5239 64.421 42.3677C64.6293 42.2115 64.7855 42.0553 64.8896 41.7949C64.9937 41.5346 65.0458 41.2743 65.0458 40.9619C65.0458 40.6495 64.9937 40.3891 64.8896 40.1288C64.7855 39.8685 64.6293 39.7123 64.421 39.5561C64.2127 39.3999 63.9524 39.3478 63.6921 39.3478C63.4317 39.3478 63.1714 39.3999 62.9631 39.5561C62.7549 39.7123 62.5987 39.8685 62.4945 40.1288C62.3904 40.3891 62.3383 40.6495 62.3383 40.9619C62.3383 41.2743 62.3904 41.5346 62.4945 41.7949C62.5987 42.0553 62.7549 42.2115 62.9631 42.3677Z" fill="white"/>
<path d="M70.721 38.6709C70.9814 38.8271 71.2417 38.9833 71.3458 39.2436C71.502 39.504 71.5541 39.7643 71.5541 40.1288C71.5541 40.4412 71.502 40.7536 71.3458 40.9618C71.1896 41.2222 70.9814 41.3784 70.721 41.5346L71.7103 43.461H70.5128L69.6797 41.7949H68.7946V43.461H67.7012V38.4626H69.7318C70.0962 38.4626 70.4086 38.5147 70.721 38.6709ZM69.6797 40.8577C69.94 40.8577 70.1483 40.8056 70.3045 40.6494C70.4607 40.4932 70.5128 40.337 70.5128 40.0767C70.5128 39.8164 70.4607 39.6602 70.3045 39.504C70.1483 39.3478 69.94 39.2957 69.6797 39.2957H68.7946V40.8577H69.6797Z" fill="white"/>
<path d="M73.1685 38.4626H74.2619V42.5238H76.2404V43.461H73.1685V38.4626Z" fill="white"/>
<path d="M79.4164 38.4626C79.9371 38.4626 80.3536 38.5668 80.7181 38.775C81.0826 38.9833 81.395 39.2957 81.6032 39.6602C81.8115 40.0246 81.9156 40.4932 81.9156 40.9618C81.9156 41.4304 81.8115 41.899 81.6032 42.2635C81.395 42.628 81.0826 42.9404 80.7181 43.1486C80.3536 43.3569 79.885 43.461 79.4164 43.461H77.6982V38.4626H79.4164ZM80.4578 42.1073C80.7181 41.7949 80.8222 41.4304 80.8222 40.9618C80.8222 40.4932 80.7181 40.0767 80.4578 39.8164C80.1974 39.504 79.833 39.3998 79.4164 39.3998H78.7396V42.628H79.4164C79.833 42.5759 80.1974 42.4197 80.4578 42.1073Z" fill="white"/>
<path d="M83.998 38.4626L84.9352 42.1073L85.9245 38.4626H86.9137L87.8509 42.1073L88.7881 38.4626H89.8815L88.4757 43.461H87.2261L86.341 40.1288L85.5079 43.461H84.2583L82.8525 38.4626H83.998Z" fill="white"/>
<path d="M92.2765 38.4626V43.461H91.1831V38.4626H92.2765Z" fill="white"/>
<path d="M95.7133 38.4626C96.234 38.4626 96.6505 38.5668 97.015 38.775C97.3795 38.9833 97.6919 39.2957 97.9001 39.6602C98.1084 40.0246 98.2125 40.4932 98.2125 40.9618C98.2125 41.4304 98.1084 41.899 97.9001 42.2635C97.6919 42.628 97.3795 42.9404 97.015 43.1486C96.6505 43.3569 96.1819 43.461 95.7133 43.461H93.9951V38.4626H95.7133ZM96.8067 42.1073C97.0671 41.7949 97.1712 41.4304 97.1712 40.9618C97.1712 40.4932 97.0671 40.0767 96.8067 39.8164C96.5464 39.504 96.1819 39.3998 95.7654 39.3998H95.0885V42.628H95.7654C96.1819 42.5759 96.5464 42.4197 96.8067 42.1073Z" fill="white"/>
<path d="M103.159 38.4626V39.3998H100.868V40.5453H102.742V41.4304H100.868V42.5759H103.211V43.5131H99.7744V38.5147H103.159V38.4626Z" fill="white"/>
<path d="M108.522 42.4197C108.73 42.5759 108.938 42.628 109.251 42.628C109.511 42.628 109.719 42.5759 109.875 42.4718C110.032 42.3677 110.136 42.2115 110.136 42.0032C110.136 41.847 110.084 41.7429 109.98 41.6908C109.875 41.6387 109.771 41.5346 109.615 41.4825C109.459 41.4305 109.199 41.3784 108.886 41.3263C108.574 41.2743 108.261 41.1701 108.053 41.066C107.845 40.9619 107.637 40.8057 107.48 40.6495C107.324 40.4412 107.272 40.1809 107.272 39.8685C107.272 39.5561 107.376 39.2957 107.532 39.0875C107.689 38.8792 107.897 38.6709 108.209 38.5668C108.47 38.4106 108.834 38.3585 109.147 38.3585C109.511 38.3585 109.823 38.4106 110.136 38.5668C110.448 38.723 110.656 38.8792 110.813 39.1395C110.969 39.3999 111.073 39.6602 111.073 39.9726H110.032C110.032 39.7643 109.928 39.6081 109.771 39.4519C109.615 39.2957 109.407 39.2437 109.147 39.2437C108.886 39.2437 108.73 39.2957 108.574 39.3999C108.418 39.504 108.366 39.6602 108.366 39.8164C108.366 39.9726 108.418 40.0767 108.47 40.1288C108.574 40.1809 108.678 40.285 108.834 40.285C108.99 40.3371 109.251 40.3891 109.563 40.4412C109.875 40.4933 110.188 40.5974 110.396 40.6495C110.604 40.7536 110.813 40.8577 110.969 41.066C111.125 41.2743 111.177 41.4825 111.177 41.847C111.177 42.1594 111.073 42.4197 110.917 42.6801C110.761 42.9404 110.5 43.0966 110.24 43.2528C109.927 43.409 109.615 43.4611 109.251 43.4611C108.834 43.4611 108.47 43.409 108.157 43.2528C107.845 43.0966 107.585 42.8883 107.428 42.628C107.272 42.3677 107.168 42.1073 107.168 41.7429H108.209C108.261 42.0553 108.313 42.2635 108.522 42.4197Z" fill="white"/>
<path d="M113.78 38.4626V40.4932H115.759V38.4626H116.852V43.461H115.759V41.3784H113.78V43.461H112.687V38.4626H113.78Z" fill="white"/>
<path d="M119.612 38.4626V43.461H118.519V38.4626H119.612Z" fill="white"/>
<path d="M124.298 38.6709C124.558 38.8271 124.766 38.9833 124.923 39.2436C125.079 39.504 125.131 39.7643 125.131 40.1288C125.131 40.4932 125.079 40.7536 124.923 41.0139C124.766 41.2742 124.558 41.4825 124.298 41.5866C124.038 41.7428 123.725 41.7949 123.361 41.7949H122.371V43.461H121.33V38.4626H123.361C123.725 38.4626 124.038 38.5147 124.298 38.6709ZM123.257 40.8577C123.517 40.8577 123.725 40.8056 123.881 40.6494C124.038 40.4932 124.09 40.337 124.09 40.0767C124.09 39.8164 124.038 39.6602 123.881 39.504C123.725 39.3478 123.517 39.2957 123.257 39.2957H122.371V40.8577H123.257Z" fill="white"/>
<path d="M129.609 38.6709C129.869 38.8271 130.077 38.9833 130.234 39.2436C130.39 39.504 130.442 39.7643 130.442 40.1288C130.442 40.4932 130.39 40.7536 130.234 41.0139C130.077 41.2742 129.869 41.4825 129.609 41.5866C129.348 41.7428 129.036 41.7949 128.672 41.7949H127.682V43.461H126.589V38.4626H128.619C129.036 38.4626 129.348 38.5147 129.609 38.6709ZM128.567 40.8577C128.828 40.8577 129.036 40.8056 129.192 40.6494C129.348 40.4932 129.4 40.337 129.4 40.0767C129.4 39.8164 129.348 39.6602 129.192 39.504C129.036 39.3478 128.828 39.2957 128.567 39.2957H127.682V40.8577H128.567Z" fill="white"/>
<path d="M133.045 38.4626V43.461H131.952V38.4626H133.045Z" fill="white"/>
<path d="M134.763 38.4626H135.752L137.887 41.6387V38.4626H138.929V43.461H137.939L135.805 40.285V43.461H134.763V38.4626Z" fill="white"/>
<path d="M141.584 38.723C141.948 38.5147 142.417 38.4106 142.886 38.4106C143.302 38.4106 143.615 38.4626 143.927 38.6188C144.239 38.775 144.5 38.9833 144.708 39.2436C144.916 39.504 145.02 39.8164 145.072 40.1808H144.031C143.979 39.9205 143.823 39.6602 143.615 39.504C143.406 39.3478 143.146 39.2436 142.886 39.2436C142.625 39.2436 142.365 39.2957 142.157 39.4519C141.948 39.6081 141.792 39.7643 141.688 40.0246C141.584 40.285 141.532 40.5453 141.532 40.8577C141.532 41.3263 141.636 41.7428 141.896 42.0552C142.157 42.3676 142.469 42.5238 142.886 42.5238C143.198 42.5238 143.458 42.4197 143.719 42.2635C143.979 42.1073 144.083 41.847 144.135 41.5346V41.4825H142.886V40.6494H145.124V43.409H144.396L144.291 42.7842C144.135 42.9924 143.927 43.1486 143.719 43.2528C143.458 43.3569 143.198 43.461 142.834 43.461C142.365 43.461 141.948 43.3569 141.584 43.1486C141.219 42.9404 140.959 42.628 140.751 42.2635C140.543 41.899 140.438 41.4304 140.438 40.9098C140.438 40.3891 140.543 39.9726 140.751 39.556C140.907 39.2436 141.219 38.9312 141.584 38.723Z" fill="white"/>
<path d="M53.2788 8.52435H59.5789V31.5899H53.2788V8.52435ZM67.1285 8.52435V13.0021H55.5177V8.52435H67.1285ZM66.1393 18.6253V22.7385H56.0383V18.6253H66.1393Z" fill="white"/>
<path d="M75.2512 13.8351V18.1567H68.9512V13.0021C68.9512 11.6483 69.3677 10.607 70.1487 9.77395C70.9297 8.94088 72.2834 8.57642 74.2099 8.57642H77.2818V13.0541H76.0843C75.7719 13.0541 75.5636 13.1062 75.4074 13.2624C75.3554 13.3665 75.2512 13.5748 75.2512 13.8351ZM75.2512 17.6881V26.2791C75.2512 26.5394 75.3033 26.7477 75.4595 26.8518C75.6157 27.008 75.824 27.0601 76.1364 27.0601H77.3339V31.5378H74.262C72.3355 31.5378 70.9818 31.1213 70.2008 30.3403C69.4198 29.5072 69.0032 28.4659 69.0032 27.1121V17.6881H75.2512ZM78.5835 18.1567V13.8351C78.5835 13.5748 78.5314 13.3665 78.3752 13.2624C78.219 13.1062 78.0108 13.0541 77.6984 13.0541H76.5008V8.57642H79.5728C81.4992 8.57642 82.853 8.99295 83.634 9.77395C84.415 10.607 84.8315 11.6483 84.8315 13.0021V18.1567H78.5835ZM78.5835 26.3311V17.6881H84.8836V27.1121C84.8836 28.4659 84.467 29.5072 83.686 30.3403C82.905 31.1733 81.5513 31.5378 79.6248 31.5378H76.5529V27.0601H77.7504C78.0628 27.0601 78.2711 27.008 78.4273 26.8518C78.4794 26.7477 78.5835 26.5915 78.5835 26.3311Z" fill="white"/>
<path d="M87.6431 8.52435H93.9431V31.5899H87.6431V8.52435ZM97.2754 18.3649V13.8352C97.2754 13.5748 97.2233 13.3666 97.0671 13.2624C96.9109 13.1062 96.7027 13.0542 96.3903 13.0542H89.7257V8.57642H98.3167C100.243 8.57642 101.597 8.99295 102.378 9.77395C103.159 10.607 103.575 11.6484 103.575 13.0021V18.9377C103.575 20.2914 103.159 21.3327 102.378 22.1658C101.597 22.9989 100.243 23.3633 98.3167 23.3633H89.7257V19.0939H96.3903C96.7027 19.0939 96.9109 19.0418 97.0671 18.8856C97.2233 18.7815 97.2754 18.6253 97.2754 18.3649ZM93.1621 20.8641H99.306L104.669 31.5378H97.9002L93.1621 20.8641Z" fill="white"/>
<path d="M112.166 13.4707V26.6956C112.166 26.9559 112.219 27.1642 112.375 27.2683C112.531 27.4245 112.739 27.4766 113.052 27.4766H113.885V31.5899H111.177C109.251 31.5899 107.897 31.1733 107.116 30.3923C106.335 29.5593 105.918 28.5179 105.918 27.1642V13.0021C105.918 11.6483 106.335 10.607 107.116 9.77395C107.897 8.94088 109.251 8.57642 111.177 8.57642H114.041V12.6897H113.052C112.739 12.6897 112.531 12.7417 112.375 12.8979C112.219 13.0021 112.166 13.2103 112.166 13.4707ZM115.238 16.4385V13.4707C115.238 13.2103 115.186 13.0021 115.03 12.8979C114.874 12.7417 114.666 12.6897 114.353 12.6897H113.364V8.57642H116.228C118.154 8.57642 119.508 8.99295 120.289 9.77395C121.07 10.607 121.486 11.6483 121.486 13.0021V16.4385H115.238ZM121.538 18.8335V22.8427H113.468V18.8335H121.538ZM115.238 26.6435V21.5931H121.538V27.1121C121.538 28.4659 121.122 29.5072 120.341 30.3403C119.56 31.1733 118.206 31.5378 116.28 31.5378H113.52V27.4245H114.353C114.666 27.4245 114.874 27.3725 115.03 27.2163C115.186 27.1121 115.238 26.9559 115.238 26.6435Z" fill="white"/>
<path d="M124.038 8.52435H130.338V31.5899H124.038V8.52435ZM137.887 8.52435V13.0021H126.276V8.52435H137.887ZM138.2 27.1121V31.5899H126.276V27.1121H138.2ZM136.846 17.7401V22.2179H126.745V17.7401H136.846Z" fill="white"/>
<path d="M151.424 19.8749L157.412 31.5899H150.331L147.884 25.1336L145.385 31.5899H138.72L144.343 19.8749L138.876 8.52435H146.01L147.936 14.4079L149.862 8.52435H156.631L151.424 19.8749Z" fill="white"/>
</svg>
