<svg width="192" height="60" viewBox="0 0 192 60" fill="none" xmlns="http://www.w3.org/2000/svg">
<path d="M52.3856 38.6872C52.0317 38.2853 51.7858 37.9734 51.5218 37.6974C50.3222 36.4976 49.1226 35.2318 47.8509 34.05C47.6583 33.89 47.5137 33.6797 47.4332 33.4425C47.3527 33.2053 47.3395 32.9505 47.3951 32.7062C47.792 30.3817 47.7038 28.0001 47.1361 25.7113C46.5683 23.4224 45.5333 21.2758 44.0961 19.4064C42.8194 17.624 41.203 16.1118 39.3398 14.9566C37.4765 13.8015 35.4033 13.0262 33.2393 12.6755C26.1255 11.4757 20.2472 13.7973 15.8446 19.5203C13.3777 22.6671 12.1506 26.6095 12.3956 30.6006C12.7675 37.6014 16.1505 42.6886 22.3706 45.8801C25.1725 47.2601 28.2979 47.8492 31.4099 47.5838C31.6938 47.5857 31.9765 47.5474 32.2496 47.4698C32.4586 47.4031 32.6836 47.4056 32.891 47.477C33.0985 47.5483 33.2775 47.6846 33.4013 47.8657C34.9188 49.4135 36.4604 50.9373 38.0859 52.557C37.4021 52.767 36.7963 52.9709 36.1785 53.1569C35.7886 53.2529 35.5786 53.3669 35.5067 53.8528C35.3207 55.4005 35.0328 56.9363 34.7989 58.478C34.7867 58.6917 34.7322 58.9008 34.6384 59.0932C34.5447 59.2856 34.4136 59.4574 34.2529 59.5986C34.0921 59.7399 33.9048 59.8477 33.702 59.9159C33.4992 59.9841 33.2848 60.0112 33.0714 59.9958C31.024 59.9958 28.9606 59.9958 26.8813 59.9958C26.4657 60.0191 26.0576 59.879 25.7438 59.6056C25.43 59.3321 25.2355 58.9469 25.2018 58.532C24.9498 56.9063 24.7039 55.2745 24.434 53.6488C24.4095 53.5584 24.3643 53.4749 24.3018 53.4051C24.2393 53.3353 24.1613 53.2811 24.0741 53.2469C21.8641 52.6531 19.7423 51.7696 17.764 50.6193C17.6558 50.5901 17.5425 50.5857 17.4324 50.6065C17.3223 50.6273 17.2183 50.6727 17.1282 50.7393C15.7966 51.6811 14.489 52.659 13.1694 53.6188C12.2097 54.3147 11.5139 54.2187 10.6741 53.4089L6.55937 49.2995C5.74362 48.4776 5.68963 47.7758 6.36743 46.8459C7.32714 45.5201 8.29285 44.2063 9.26455 42.8926C9.36934 42.7906 9.43327 42.6538 9.44431 42.508C9.45536 42.3621 9.41276 42.2173 9.32454 42.1007C8.20166 40.235 7.36082 38.2134 6.82929 36.1017C6.8142 35.9362 6.73726 35.7825 6.61384 35.6713C6.49042 35.5601 6.3296 35.4996 6.16349 35.5018C4.59796 35.2978 3.04443 35.0278 1.4849 34.7879C1.06581 34.7541 0.676642 34.5574 0.400813 34.2401C0.124983 33.9227 -0.0155499 33.5099 0.00934121 33.0901C0.00934121 31.0625 0.00934121 29.0328 0.00934121 27.0011C-0.0149499 26.7755 0.00826219 26.5473 0.0774838 26.3312C0.146705 26.115 0.260403 25.9158 0.411259 25.7463C0.562115 25.5767 0.746788 25.4407 0.953393 25.3468C1.16 25.253 1.38396 25.2035 1.61086 25.2014C3.21038 24.9655 4.8099 24.7135 6.40941 24.4456C6.49151 24.4198 6.56663 24.3756 6.62901 24.3163C6.69139 24.2571 6.73938 24.1843 6.76931 24.1036C7.36686 21.8766 8.25631 19.7384 9.41451 17.7446C9.43938 17.6419 9.44153 17.535 9.42081 17.4314C9.40009 17.3278 9.357 17.23 9.29455 17.1447C8.33483 15.801 7.35113 14.4752 6.37942 13.1374C6.22189 12.9738 6.10066 12.7787 6.02367 12.5651C5.94669 12.3514 5.91567 12.1238 5.93266 11.8973C5.94964 11.6708 6.01425 11.4504 6.12224 11.2506C6.23024 11.0508 6.3792 10.8761 6.55937 10.7378C7.96895 9.32201 9.37252 7.91223 10.7881 6.53846C10.9261 6.36823 11.0975 6.22802 11.2916 6.12644C11.4858 6.02487 11.6987 5.96406 11.9172 5.94777C12.1357 5.93148 12.3553 5.96004 12.5623 6.0317C12.7694 6.10336 12.9597 6.21661 13.1214 6.36449C14.471 7.34233 15.8206 8.33217 17.1582 9.32201C17.259 9.41421 17.3883 9.46922 17.5246 9.47795C17.661 9.48668 17.7962 9.44859 17.908 9.37C19.7944 8.23917 21.838 7.39413 23.9721 6.86241C24.1173 6.84337 24.2506 6.77185 24.3467 6.66135C24.4428 6.55084 24.4952 6.40897 24.494 6.2625C24.7039 4.66076 24.9738 3.07102 25.2317 1.46328C25.264 1.04943 25.4575 0.664788 25.7704 0.392151C26.0834 0.119514 26.4909 -0.0193244 26.9052 0.00551812H33.0894C33.5068 -0.029409 33.921 0.102484 34.2414 0.372324C34.5618 0.642165 34.7622 1.02797 34.7989 1.44528C35.0628 3.07102 35.2967 4.70276 35.5726 6.32849C35.5984 6.42619 35.6465 6.51658 35.7131 6.59256C35.7797 6.66854 35.863 6.72805 35.9565 6.76642C38.1531 7.34102 40.2573 8.22363 42.2066 9.388C42.4886 9.56197 42.6565 9.43599 42.8604 9.29201C44.192 8.31417 45.5236 7.33633 46.8612 6.37048C47.785 5.69859 48.4987 5.77058 49.3145 6.57445L53.3933 10.6838C54.233 11.5236 54.293 12.2195 53.5912 13.1794C52.6315 14.4992 51.6718 15.819 50.7001 17.1327C50.607 17.2329 50.5509 17.3618 50.5411 17.4982C50.5312 17.6345 50.5683 17.7702 50.6461 17.8826C51.7718 19.7697 52.6164 21.8108 53.1533 23.9416C53.1696 24.089 53.24 24.2252 53.3507 24.3238C53.4615 24.4224 53.6049 24.4764 53.7532 24.4755C55.3487 24.6855 56.9382 24.9555 58.5517 25.2074C58.9633 25.2471 59.3434 25.445 59.612 25.7595C59.8805 26.0739 60.0165 26.4804 59.9913 26.8932C59.9913 28.9368 59.9913 30.9825 59.9913 33.0302C60.0145 33.2541 59.9912 33.4805 59.9227 33.695C59.8542 33.9095 59.742 34.1075 59.5933 34.2766C59.4445 34.4456 59.2624 34.582 59.0584 34.6773C58.8544 34.7725 58.6328 34.8244 58.4078 34.8299C56.8082 35.0658 55.2087 35.3198 53.6092 35.5917C53.4652 35.5917 53.2973 35.8437 53.2433 36.0057C52.9374 36.8215 52.6975 37.6674 52.3856 38.6872Z" fill="white"/>
<path d="M41.1451 30.4929C41.0791 31.0928 41.0551 31.6927 40.9412 32.2327C40.8898 32.407 40.8896 32.5924 40.9407 32.7669C40.9917 32.9413 41.0918 33.0974 41.2291 33.2165C44.888 36.8519 48.5429 40.4973 52.1938 44.1527C52.7694 44.6864 53.2329 45.3294 53.5573 46.0442C53.8817 46.7591 54.0604 47.5314 54.083 48.316C54.1056 49.1007 53.9717 49.882 53.689 50.6144C53.4063 51.3467 52.9806 52.0153 52.4366 52.5813C51.8927 53.1472 51.2415 53.5991 50.521 53.9105C49.8005 54.2219 49.0252 54.3866 48.2403 54.395C47.4555 54.4033 46.6769 54.2552 45.9499 53.9593C45.2229 53.6634 44.5622 53.2255 44.0063 52.6713C40.3114 48.9999 36.6285 45.3145 32.9576 41.6151C32.8394 41.4686 32.6816 41.359 32.503 41.2994C32.3243 41.2399 32.1324 41.2329 31.9499 41.2792C29.1574 41.7684 26.2838 41.1623 23.9266 39.5869C21.5695 38.0116 19.9102 35.5881 19.2937 32.8206C18.8579 30.9236 18.9429 28.9441 19.5396 27.0915C19.7316 26.4916 20.0735 26.3956 20.5353 26.8575L26.7734 33.1205C26.9987 33.3839 27.2783 33.5954 27.5931 33.7405C27.9079 33.8855 28.2503 33.9606 28.5969 33.9606C28.9435 33.9606 29.2859 33.8855 29.6007 33.7405C29.9155 33.5954 30.1951 33.3839 30.4204 33.1205C31.2001 32.3206 31.9779 31.5388 32.7536 30.7749C33.9533 29.5751 33.9533 28.2733 32.7536 27.0555L26.7075 21.0025C26.5914 20.8924 26.4813 20.7763 26.3776 20.6545C26.3174 20.5932 26.275 20.5166 26.255 20.433C26.235 20.3494 26.2381 20.2619 26.264 20.1799C26.2899 20.098 26.3375 20.0246 26.4019 19.9676C26.4663 19.9107 26.545 19.8723 26.6295 19.8567C28.2554 19.3355 29.9794 19.1959 31.668 19.4487C33.5162 19.7032 35.2674 20.4306 36.7522 21.5604C38.237 22.6901 39.4051 24.1841 40.1434 25.8977C40.7835 27.3463 41.1242 28.9093 41.1451 30.4929Z" fill="black"/>
<path d="M72 9.59961H79.26V36.1796H72V9.59961ZM87.96 9.59961V14.7596H74.58V9.59961H87.96ZM86.82 21.2396V25.9796H75.18V21.2396H86.82Z" fill="white"/>
<path d="M97.3205 15.7192V20.6992H90.0605V14.7592C90.0605 13.1992 90.5405 11.9992 91.4405 11.0392C92.3405 10.0792 93.9005 9.65918 96.1205 9.65918H99.6605V14.8192H98.2806C97.9206 14.8192 97.6806 14.8792 97.5006 15.0592C97.4406 15.1792 97.3205 15.4192 97.3205 15.7192ZM97.3205 20.1592V30.0592C97.3205 30.3592 97.3805 30.5992 97.5605 30.7192C97.7405 30.8992 97.9805 30.9592 98.3405 30.9592H99.7205V36.1192H96.1806C93.9606 36.1192 92.4006 35.6392 91.5006 34.7392C90.6006 33.7792 90.1206 32.5792 90.1206 31.0192V20.1592H97.3205ZM101.161 20.6992V15.7192C101.161 15.4192 101.101 15.1792 100.921 15.0592C100.741 14.8792 100.501 14.8192 100.141 14.8192H98.7605V9.65918H102.301C104.521 9.65918 106.081 10.1392 106.981 11.0392C107.881 11.9992 108.361 13.1992 108.361 14.7592V20.6992H101.161ZM101.161 30.1192V20.1592H108.421V31.0192C108.421 32.5792 107.941 33.7792 107.041 34.7392C106.141 35.6992 104.581 36.1192 102.361 36.1192H98.8205V30.9592H100.201C100.561 30.9592 100.801 30.8992 100.981 30.7192C101.041 30.5992 101.161 30.4192 101.161 30.1192Z" fill="white"/>
<path d="M111.6 9.59961H118.86V36.1796H111.6V9.59961ZM122.7 20.9396V15.7196C122.7 15.4196 122.64 15.1796 122.46 15.0596C122.28 14.8796 122.04 14.8196 121.68 14.8196H114V9.65961H123.9C126.12 9.65961 127.68 10.1396 128.58 11.0396C129.48 11.9996 129.96 13.1996 129.96 14.7596V21.5996C129.96 23.1596 129.48 24.3596 128.58 25.3196C127.68 26.2796 126.12 26.6996 123.9 26.6996H114V21.7796H121.68C122.04 21.7796 122.28 21.7196 122.46 21.5396C122.64 21.4196 122.7 21.2396 122.7 20.9396ZM117.96 23.8196H125.04L131.22 36.1196H123.42L117.96 23.8196Z" fill="white"/>
<path d="M139.86 15.2992V30.5392C139.86 30.8392 139.92 31.0792 140.1 31.1992C140.28 31.3792 140.52 31.4392 140.88 31.4392H141.84V36.1792H138.72C136.5 36.1792 134.94 35.6992 134.04 34.7992C133.14 33.8392 132.66 32.6392 132.66 31.0792V14.7592C132.66 13.1992 133.14 11.9992 134.04 11.0392C134.94 10.0792 136.5 9.65918 138.72 9.65918H142.02V14.3992H140.88C140.52 14.3992 140.28 14.4592 140.1 14.6392C139.92 14.7592 139.86 14.9992 139.86 15.2992ZM143.4 18.7192V15.2992C143.4 14.9992 143.34 14.7592 143.16 14.6392C142.98 14.4592 142.74 14.3992 142.38 14.3992H141.24V9.65918H144.54C146.76 9.65918 148.32 10.1392 149.22 11.0392C150.12 11.9992 150.6 13.1992 150.6 14.7592V18.7192H143.4ZM150.66 21.4792V26.0992H141.36V21.4792H150.66ZM143.4 30.4792V24.6592H150.66V31.0192C150.66 32.5792 150.18 33.7792 149.28 34.7392C148.38 35.6992 146.82 36.1192 144.6 36.1192H141.42V31.3792H142.38C142.74 31.3792 142.98 31.3192 143.16 31.1392C143.34 31.0192 143.4 30.8392 143.4 30.4792Z" fill="white"/>
<path d="M153.54 9.59961H160.8V36.1796H153.54V9.59961ZM169.5 9.59961V14.7596H156.12V9.59961H169.5ZM169.86 31.0196V36.1796H156.12V31.0196H169.86ZM168.3 20.2196V25.3796H156.66V20.2196H168.3Z" fill="white"/>
<path d="M185.1 22.6796L192 36.1796H183.84L181.02 28.7396L178.14 36.1796H170.46L176.94 22.6796L170.64 9.59961H178.86L181.08 16.3796L183.3 9.59961H191.1L185.1 22.6796Z" fill="black"/>
<path d="M190.442 49.3565C190.442 49.1543 190.515 48.9858 190.661 48.851C190.808 48.7133 190.996 48.6445 191.226 48.6445C191.459 48.6445 191.647 48.7133 191.791 48.851C191.937 48.9858 192.01 49.1543 192.01 49.3565C192.01 49.5588 191.937 49.7287 191.791 49.8663C191.647 50.0011 191.459 50.0685 191.226 50.0685C190.996 50.0685 190.808 50.0011 190.661 49.8663C190.515 49.7287 190.442 49.5588 190.442 49.3565Z" fill="black"/>
<path d="M187.811 47.9454H189.286C189.266 48.3723 189.151 48.7487 188.941 49.0745C188.73 49.4003 188.438 49.6545 188.064 49.837C187.694 50.0168 187.255 50.1067 186.75 50.1067C186.34 50.1067 185.973 50.0379 185.65 49.9002C185.33 49.7626 185.058 49.5646 184.833 49.3062C184.611 49.0478 184.441 48.7346 184.323 48.3667C184.208 47.9988 184.15 47.5845 184.15 47.1239V46.791C184.15 46.3304 184.211 45.9161 184.332 45.5482C184.455 45.1775 184.629 44.8629 184.854 44.6045C185.081 44.3433 185.354 44.1439 185.671 44.0062C185.989 43.8686 186.341 43.7998 186.729 43.7998C187.262 43.7998 187.713 43.8953 188.081 44.0863C188.449 44.2773 188.734 44.5399 188.936 44.8741C189.139 45.2055 189.258 45.5833 189.294 46.0074H187.82C187.814 45.7771 187.775 45.5847 187.702 45.4302C187.629 45.273 187.514 45.155 187.356 45.0763C187.199 44.9977 186.99 44.9584 186.729 44.9584C186.546 44.9584 186.387 44.9921 186.253 45.0595C186.118 45.1269 186.006 45.2336 185.916 45.3797C185.826 45.5257 185.758 45.7153 185.713 45.9484C185.671 46.1788 185.65 46.4568 185.65 46.7826V47.1239C185.65 47.4497 185.67 47.7277 185.709 47.958C185.749 48.1884 185.812 48.3765 185.899 48.5226C185.986 48.6686 186.098 48.7768 186.236 48.847C186.376 48.9144 186.548 48.9481 186.75 48.9481C186.975 48.9481 187.164 48.913 187.319 48.8428C187.473 48.7698 187.592 48.6602 187.677 48.5142C187.761 48.3653 187.806 48.1757 187.811 47.9454Z" fill="black"/>
<path d="M182.957 43.8887V50.0228H181.482L179.313 46.2058V50.0228H177.834V43.8887H179.313L181.482 47.7057V43.8887H182.957Z" fill="black"/>
<path d="M176.362 43.8887V50.0228H174.888V43.8887H176.362Z" fill="black"/>
<path d="M171.173 48.8853V50.0228H167.903V48.8853H171.173ZM168.43 43.8887V50.0228H166.951V43.8887H168.43ZM170.751 46.3238V47.4234H167.903V46.3238H170.751ZM171.185 43.8887V45.0304H167.903V43.8887H171.185Z" fill="black"/>
<path d="M164.346 47.9454H165.82C165.801 48.3723 165.685 48.7487 165.475 49.0745C165.264 49.4003 164.972 49.6545 164.598 49.837C164.228 50.0168 163.79 50.1067 163.284 50.1067C162.874 50.1067 162.507 50.0379 162.184 49.9002C161.864 49.7626 161.592 49.5646 161.367 49.3062C161.145 49.0478 160.975 48.7346 160.857 48.3667C160.742 47.9988 160.685 47.5845 160.685 47.1239V46.791C160.685 46.3304 160.745 45.9161 160.866 45.5482C160.989 45.1775 161.163 44.8629 161.388 44.6045C161.616 44.3433 161.888 44.1439 162.205 44.0062C162.523 43.8686 162.875 43.7998 163.263 43.7998C163.797 43.7998 164.247 43.8953 164.615 44.0863C164.983 44.2773 165.268 44.5399 165.471 44.8741C165.673 45.2055 165.792 45.5833 165.829 46.0074H164.354C164.348 45.7771 164.309 45.5847 164.236 45.4302C164.163 45.273 164.048 45.155 163.891 45.0763C163.733 44.9977 163.524 44.9584 163.263 44.9584C163.08 44.9584 162.922 44.9921 162.787 45.0595C162.652 45.1269 162.54 45.2336 162.45 45.3797C162.36 45.5257 162.293 45.7153 162.248 45.9484C162.205 46.1788 162.184 46.4568 162.184 46.7826V47.1239C162.184 47.4497 162.204 47.7277 162.243 47.958C162.283 48.1884 162.346 48.3765 162.433 48.5226C162.52 48.6686 162.632 48.7768 162.77 48.847C162.91 48.9144 163.082 48.9481 163.284 48.9481C163.509 48.9481 163.698 48.913 163.853 48.8428C164.007 48.7698 164.127 48.6602 164.211 48.5142C164.295 48.3653 164.34 48.1757 164.346 47.9454Z" fill="black"/>
<path d="M159.385 43.8887V50.0228H157.91V43.8887H159.385Z" fill="black"/>
<path d="M153.999 48.5778L155.276 43.8887H156.931L154.863 50.0228H153.793L153.999 48.5778ZM152.841 43.8887L154.117 48.5778L154.332 50.0228H153.249L151.193 43.8887H152.841Z" fill="black"/>
<path d="M145.702 43.8887H148.116C148.588 43.8887 148.998 43.9589 149.346 44.0993C149.695 44.2398 149.963 44.4476 150.151 44.7228C150.342 44.9981 150.438 45.3379 150.438 45.7424C150.438 46.0935 150.383 46.387 150.273 46.6229C150.164 46.8588 150.011 47.054 149.814 47.2085C149.62 47.3602 149.394 47.4852 149.136 47.5835L148.651 47.8573H146.625L146.616 46.7156H148.116C148.304 46.7156 148.46 46.6819 148.584 46.6145C148.707 46.5471 148.8 46.4516 148.862 46.328C148.927 46.2016 148.959 46.0514 148.959 45.8772C148.959 45.7003 148.927 45.5486 148.862 45.4222C148.797 45.2958 148.702 45.1989 148.575 45.1315C148.452 45.0641 148.299 45.0304 148.116 45.0304H147.181V50.0228H145.702V43.8887ZM149.06 50.0228L147.703 47.3096L149.271 47.3012L150.644 49.9596V50.0228H149.06Z" fill="black"/>
<path d="M144.664 48.8853V50.0228H141.395V48.8853H144.664ZM141.921 43.8887V50.0228H140.442V43.8887H141.921ZM144.243 46.3238V47.4234H141.395V46.3238H144.243ZM144.676 43.8887V45.0304H141.395V43.8887H144.676Z" fill="black"/>
<path d="M137.77 48.3917C137.77 48.2962 137.756 48.2105 137.728 48.1347C137.7 48.056 137.648 47.983 137.572 47.9156C137.496 47.8482 137.386 47.7808 137.243 47.7134C137.103 47.6432 136.917 47.5701 136.687 47.4943C136.418 47.4044 136.158 47.3033 135.908 47.191C135.658 47.0758 135.434 46.9424 135.238 46.7907C135.041 46.6363 134.885 46.4565 134.77 46.2515C134.655 46.0436 134.597 45.8021 134.597 45.5268C134.597 45.2628 134.656 45.0255 134.774 44.8148C134.892 44.6014 135.057 44.4202 135.267 44.2714C135.481 44.1197 135.731 44.0045 136.017 43.9259C136.304 43.8444 136.617 43.8037 136.957 43.8037C137.406 43.8037 137.802 43.8824 138.145 44.0396C138.49 44.1941 138.76 44.4146 138.954 44.7011C139.15 44.9848 139.249 45.3204 139.249 45.708H137.778C137.778 45.5535 137.746 45.4173 137.681 45.2993C137.62 45.1814 137.526 45.0887 137.399 45.0213C137.273 44.9539 137.114 44.9202 136.923 44.9202C136.738 44.9202 136.582 44.9482 136.455 45.0044C136.329 45.0606 136.234 45.1364 136.169 45.2319C136.104 45.3246 136.072 45.4271 136.072 45.5395C136.072 45.6322 136.097 45.7164 136.148 45.7923C136.201 45.8653 136.276 45.9341 136.371 45.9987C136.469 46.0633 136.587 46.1251 136.725 46.1841C136.865 46.243 137.023 46.3006 137.197 46.3568C137.523 46.4607 137.812 46.5773 138.065 46.7065C138.32 46.8329 138.535 46.9775 138.709 47.1404C138.886 47.3005 139.02 47.4831 139.11 47.6881C139.202 47.8931 139.249 48.1249 139.249 48.3833C139.249 48.6585 139.195 48.9029 139.089 49.1163C138.982 49.3298 138.829 49.5109 138.629 49.6598C138.43 49.8058 138.191 49.9168 137.913 49.9926C137.635 50.0685 137.325 50.1064 136.982 50.1064C136.667 50.1064 136.357 50.0671 136.051 49.9884C135.748 49.907 135.472 49.7834 135.225 49.6177C134.978 49.4491 134.78 49.2343 134.631 48.9731C134.485 48.7091 134.412 48.3959 134.412 48.0336H135.895C135.895 48.2133 135.919 48.365 135.967 48.4886C136.014 48.6122 136.085 48.7119 136.177 48.7877C136.27 48.8607 136.384 48.9141 136.519 48.9478C136.653 48.9787 136.808 48.9941 136.982 48.9941C137.17 48.9941 137.322 48.9675 137.437 48.9141C137.552 48.8579 137.636 48.7849 137.69 48.695C137.743 48.6023 137.77 48.5012 137.77 48.3917Z" fill="black"/>
<path d="M130.735 46.7447V49.2641C130.631 49.3792 130.471 49.5028 130.254 49.6348C130.041 49.764 129.771 49.875 129.445 49.9677C129.12 50.0603 128.736 50.1067 128.295 50.1067C127.888 50.1067 127.519 50.0421 127.187 49.9129C126.856 49.7809 126.571 49.5885 126.332 49.3357C126.096 49.0801 125.914 48.7683 125.784 48.4004C125.658 48.0297 125.595 47.6056 125.595 47.1281V46.7868C125.595 46.3094 125.659 45.8852 125.789 45.5145C125.918 45.1438 126.099 44.832 126.332 44.5792C126.568 44.3236 126.845 44.1298 127.162 43.9978C127.482 43.8658 127.833 43.7998 128.215 43.7998C128.78 43.7998 129.239 43.8897 129.593 44.0694C129.947 44.2464 130.215 44.4921 130.398 44.8067C130.58 45.1185 130.691 45.4794 130.73 45.8895H129.311C129.283 45.6872 129.229 45.5159 129.151 45.3755C129.075 45.2322 128.965 45.1241 128.822 45.0511C128.679 44.9752 128.493 44.9373 128.266 44.9373C128.089 44.9373 127.927 44.9752 127.781 45.0511C127.638 45.1269 127.516 45.2421 127.415 45.3965C127.314 45.5482 127.235 45.7392 127.179 45.9695C127.125 46.1998 127.099 46.4694 127.099 46.7784V47.1281C127.099 47.4342 127.124 47.7025 127.175 47.9328C127.228 48.1631 127.307 48.3555 127.411 48.51C127.517 48.6616 127.652 48.7768 127.815 48.8554C127.981 48.9313 128.176 48.9692 128.401 48.9692C128.558 48.9692 128.693 48.9565 128.805 48.9313C128.917 48.9032 129.01 48.8695 129.083 48.8301C129.159 48.788 129.217 48.7487 129.256 48.7122V47.76H128.228V46.7447H130.735Z" fill="black"/>
<path d="M124.351 43.8887V50.0228H122.876L120.706 46.2058V50.0228H119.228V43.8887H120.706L122.876 47.7057V43.8887H124.351Z" fill="black"/>
<path d="M117.756 43.8887V50.0228H116.281V43.8887H117.756Z" fill="black"/>
<path d="M110.124 43.8887H112.538C113.01 43.8887 113.42 43.9589 113.768 44.0993C114.117 44.2398 114.385 44.4476 114.573 44.7228C114.764 44.9981 114.859 45.3379 114.859 45.7424C114.859 46.0935 114.805 46.387 114.695 46.6229C114.586 46.8588 114.433 47.054 114.236 47.2085C114.042 47.3602 113.816 47.4852 113.558 47.5835L113.073 47.8573H111.047L111.038 46.7156H112.538C112.726 46.7156 112.882 46.6819 113.006 46.6145C113.129 46.5471 113.222 46.4516 113.284 46.328C113.348 46.2016 113.381 46.0514 113.381 45.8772C113.381 45.7003 113.348 45.5486 113.284 45.4222C113.219 45.2958 113.124 45.1989 112.997 45.1315C112.874 45.0641 112.721 45.0304 112.538 45.0304H111.603V50.0228H110.124V43.8887ZM113.482 50.0228L112.125 47.3096L113.692 47.3012L115.066 49.9596V50.0228H113.482Z" fill="black"/>
<path d="M109.086 48.8853V50.0228H105.816V48.8853H109.086ZM106.343 43.8887V50.0228H104.864V43.8887H106.343ZM108.664 46.3238V47.4234H105.816V46.3238H108.664ZM109.098 43.8887V45.0304H105.816V43.8887H109.098Z" fill="black"/>
<path d="M103.827 48.8853V50.0228H100.558V48.8853H103.827ZM101.084 43.8887V50.0228H99.6055V43.8887H101.084ZM103.406 46.3238V47.4234H100.558V46.3238H103.406ZM103.84 43.8887V45.0304H100.558V43.8887H103.84Z" fill="black"/>
<path d="M98.2383 43.8887V50.0228H96.7637L94.594 46.2058V50.0228H93.1152V43.8887H94.594L96.7637 47.7057V43.8887H98.2383Z" fill="black"/>
<path d="M91.6435 43.8887V50.0228H90.1689V43.8887H91.6435Z" fill="black"/>
<path d="M88.7766 46.7447V49.2641C88.6727 49.3792 88.5126 49.5028 88.2963 49.6348C88.0828 49.764 87.8132 49.875 87.4874 49.9677C87.1616 50.0603 86.7782 50.1067 86.3373 50.1067C85.93 50.1067 85.5607 50.0421 85.2292 49.9129C84.8978 49.7809 84.6127 49.5885 84.374 49.3357C84.1381 49.0801 83.9555 48.7683 83.8263 48.4004C83.6999 48.0297 83.6367 47.6056 83.6367 47.1281V46.7868C83.6367 46.3094 83.7013 45.8852 83.8305 45.5145C83.9597 45.1438 84.1409 44.832 84.374 44.5792C84.6099 44.3236 84.8866 44.1298 85.204 43.9978C85.5241 43.8658 85.8752 43.7998 86.2572 43.7998C86.8218 43.7998 87.281 43.8897 87.6349 44.0694C87.9888 44.2464 88.257 44.4921 88.4395 44.8067C88.6221 45.1185 88.7331 45.4794 88.7724 45.8895H87.3526C87.3245 45.6872 87.2711 45.5159 87.1925 45.3755C87.1167 45.2322 87.0071 45.1241 86.8639 45.0511C86.7206 44.9752 86.5353 44.9373 86.3078 44.9373C86.1308 44.9373 85.9693 44.9752 85.8233 45.0511C85.68 45.1269 85.5579 45.2421 85.4567 45.3965C85.3556 45.5482 85.277 45.7392 85.2208 45.9695C85.1674 46.1998 85.1408 46.4694 85.1408 46.7784V47.1281C85.1408 47.4342 85.166 47.7025 85.2166 47.9328C85.27 48.1631 85.3486 48.3555 85.4525 48.51C85.5593 48.6616 85.6941 48.7768 85.857 48.8554C86.0227 48.9313 86.2179 48.9692 86.4426 48.9692C86.5999 48.9692 86.7347 48.9565 86.847 48.9313C86.9594 48.9032 87.0521 48.8695 87.1251 48.8301C87.2009 48.788 87.2585 48.7487 87.2978 48.7122V47.76H86.2698V46.7447H88.7766Z" fill="black"/>
<path d="M82.3926 43.8887V50.0228H80.918L78.7483 46.2058V50.0228H77.2695V43.8887H78.7483L80.918 47.7057V43.8887H82.3926Z" fill="black"/>
<path d="M76.2312 48.8853V50.0228H72.9619V48.8853H76.2312ZM73.4885 43.8887V50.0228H72.0098V43.8887H73.4885ZM75.8099 46.3238V47.4234H72.9619V46.3238H75.8099ZM76.2438 43.8887V45.0304H72.9619V43.8887H76.2438Z" fill="black"/>
</svg>
