<svg width="192" height="60" viewBox="0 0 192 60" fill="none" xmlns="http://www.w3.org/2000/svg">
<path d="M52.3856 38.6872C52.0317 38.2853 51.7858 37.9734 51.5218 37.6974C50.3222 36.4976 49.1226 35.2318 47.8509 34.05C47.6583 33.89 47.5137 33.6797 47.4332 33.4425C47.3527 33.2053 47.3395 32.9505 47.3951 32.7062C47.792 30.3817 47.7038 28.0001 47.1361 25.7113C46.5683 23.4224 45.5333 21.2758 44.0961 19.4064C42.8194 17.624 41.203 16.1118 39.3398 14.9566C37.4765 13.8015 35.4033 13.0262 33.2393 12.6755C26.1255 11.4757 20.2472 13.7973 15.8446 19.5203C13.3777 22.6671 12.1506 26.6095 12.3956 30.6006C12.7675 37.6014 16.1505 42.6886 22.3706 45.8801C25.1725 47.2601 28.2979 47.8492 31.4099 47.5838C31.6938 47.5857 31.9765 47.5474 32.2496 47.4698C32.4586 47.4031 32.6836 47.4056 32.891 47.477C33.0985 47.5483 33.2775 47.6846 33.4013 47.8658C34.9188 49.4135 36.4604 50.9373 38.0859 52.557C37.4021 52.767 36.7963 52.9709 36.1785 53.1569C35.7886 53.2529 35.5786 53.3669 35.5067 53.8528C35.3207 55.4005 35.0328 56.9363 34.7989 58.478C34.7867 58.6917 34.7322 58.9008 34.6384 59.0932C34.5447 59.2856 34.4136 59.4574 34.2529 59.5986C34.0921 59.7399 33.9048 59.8477 33.702 59.9159C33.4992 59.9841 33.2848 60.0112 33.0714 59.9958C31.024 59.9958 28.9606 59.9958 26.8812 59.9958C26.4657 60.0191 26.0576 59.879 25.7438 59.6056C25.43 59.3321 25.2355 58.9469 25.2018 58.532C24.9498 56.9063 24.7039 55.2745 24.434 53.6488C24.4095 53.5584 24.3643 53.4749 24.3018 53.4051C24.2393 53.3353 24.1613 53.2811 24.0741 53.2469C21.8641 52.6531 19.7423 51.7696 17.764 50.6193C17.6558 50.5901 17.5425 50.5857 17.4324 50.6065C17.3223 50.6273 17.2183 50.6727 17.1282 50.7393C15.7966 51.6811 14.489 52.659 13.1694 53.6188C12.2097 54.3147 11.5139 54.2187 10.6741 53.4088L6.55937 49.2995C5.74361 48.4777 5.68963 47.7758 6.36743 46.8459C7.32714 45.5201 8.29285 44.2063 9.26456 42.8926C9.36934 42.7906 9.43327 42.6538 9.44431 42.508C9.45536 42.3621 9.41276 42.2173 9.32454 42.1007C8.20166 40.235 7.36082 38.2134 6.82929 36.1017C6.8142 35.9362 6.73726 35.7825 6.61384 35.6713C6.49042 35.5601 6.3296 35.4996 6.16349 35.5018C4.59796 35.2978 3.04443 35.0278 1.4849 34.7879C1.06581 34.7541 0.676642 34.5574 0.400813 34.2401C0.124983 33.9227 -0.0155499 33.5099 0.00934121 33.0901C0.00934121 31.0625 0.00934121 29.0328 0.00934121 27.0011C-0.0149499 26.7755 0.00826219 26.5473 0.0774838 26.3311C0.146705 26.115 0.260403 25.9158 0.411259 25.7463C0.562115 25.5767 0.746788 25.4407 0.953393 25.3468C1.16 25.253 1.38396 25.2035 1.61086 25.2014C3.21038 24.9655 4.8099 24.7135 6.40941 24.4456C6.49151 24.4198 6.56663 24.3756 6.62901 24.3163C6.69139 24.2571 6.73938 24.1843 6.76931 24.1036C7.36686 21.8766 8.25631 19.7384 9.41451 17.7446C9.43938 17.6419 9.44153 17.535 9.42081 17.4314C9.40009 17.3278 9.357 17.23 9.29455 17.1447C8.33483 15.801 7.35113 14.4752 6.37942 13.1374C6.22189 12.9738 6.10066 12.7787 6.02367 12.5651C5.94669 12.3514 5.91567 12.1238 5.93266 11.8973C5.94964 11.6708 6.01425 11.4504 6.12224 11.2506C6.23024 11.0508 6.3792 10.8761 6.55937 10.7378C7.96895 9.32201 9.37252 7.91223 10.7881 6.53846C10.9261 6.36823 11.0975 6.22802 11.2916 6.12644C11.4858 6.02487 11.6987 5.96406 11.9172 5.94777C12.1357 5.93148 12.3553 5.96004 12.5623 6.0317C12.7694 6.10336 12.9597 6.21661 13.1214 6.36449C14.471 7.34233 15.8206 8.33217 17.1582 9.32201C17.259 9.41421 17.3883 9.46922 17.5246 9.47795C17.661 9.48668 17.7962 9.44859 17.908 9.37C19.7944 8.23917 21.838 7.39413 23.9721 6.86241C24.1173 6.84337 24.2506 6.77185 24.3467 6.66135C24.4428 6.55084 24.4952 6.40897 24.494 6.2625C24.7039 4.66076 24.9738 3.07102 25.2317 1.46328C25.264 1.04943 25.4575 0.664788 25.7704 0.392151C26.0834 0.119514 26.4909 -0.0193244 26.9052 0.00551812H33.0894C33.5068 -0.029409 33.921 0.102484 34.2414 0.372324C34.5618 0.642165 34.7622 1.02797 34.7989 1.44528C35.0628 3.07102 35.2967 4.70276 35.5726 6.32849C35.5984 6.42619 35.6465 6.51658 35.7131 6.59256C35.7797 6.66854 35.863 6.72805 35.9565 6.76642C38.1531 7.34102 40.2573 8.22363 42.2066 9.388C42.4886 9.56197 42.6565 9.43599 42.8604 9.29201C44.192 8.31417 45.5236 7.33633 46.8612 6.37048C47.785 5.69859 48.4987 5.77058 49.3145 6.57445L53.3933 10.6838C54.233 11.5236 54.293 12.2195 53.5912 13.1794C52.6315 14.4992 51.6718 15.819 50.7001 17.1327C50.607 17.2329 50.5509 17.3618 50.5411 17.4982C50.5312 17.6345 50.5683 17.7702 50.6461 17.8826C51.7718 19.7697 52.6164 21.8108 53.1533 23.9416C53.1696 24.089 53.24 24.2252 53.3507 24.3238C53.4615 24.4224 53.6049 24.4764 53.7532 24.4755C55.3487 24.6855 56.9382 24.9555 58.5517 25.2074C58.9633 25.2471 59.3434 25.445 59.612 25.7595C59.8805 26.0739 60.0165 26.4804 59.9913 26.8932C59.9913 28.9368 59.9913 30.9825 59.9913 33.0302C60.0145 33.2541 59.9912 33.4805 59.9227 33.695C59.8542 33.9095 59.742 34.1075 59.5933 34.2766C59.4445 34.4456 59.2624 34.582 59.0584 34.6773C58.8544 34.7725 58.6328 34.8244 58.4078 34.8299C56.8082 35.0658 55.2087 35.3198 53.6092 35.5917C53.4652 35.5917 53.2973 35.8437 53.2433 36.0057C52.9374 36.8215 52.6975 37.6674 52.3856 38.6872Z" fill="black"/>
<path d="M41.1451 30.4925C41.0791 31.0924 41.0551 31.6924 40.9412 32.2323C40.8898 32.4066 40.8896 32.592 40.9407 32.7665C40.9917 32.9409 41.0918 33.097 41.2291 33.2161C44.888 36.8515 48.5429 40.4969 52.1938 44.1523C52.7694 44.686 53.2329 45.329 53.5573 46.0438C53.8817 46.7587 54.0604 47.531 54.083 48.3156C54.1056 49.1003 53.9717 49.8816 53.689 50.614C53.4063 51.3463 52.9806 52.0149 52.4367 52.5809C51.8927 53.1468 51.2415 53.5987 50.521 53.9101C49.8005 54.2215 49.0252 54.3862 48.2403 54.3946C47.4555 54.403 46.6769 54.2548 45.9499 53.9589C45.2229 53.663 44.5622 53.2251 44.0063 52.6709C40.3114 48.9995 36.6285 45.3141 32.9576 41.6147C32.8394 41.4682 32.6816 41.3586 32.503 41.299C32.3243 41.2395 32.1324 41.2325 31.9499 41.2788C29.1574 41.768 26.2838 41.1619 23.9266 39.5865C21.5695 38.0112 19.9102 35.5877 19.2937 32.8202C18.8579 30.9232 18.9429 28.9437 19.5396 27.0911C19.7316 26.4912 20.0735 26.3952 20.5353 26.8571L26.7734 33.1201C26.9987 33.3835 27.2783 33.595 27.5931 33.7401C27.9079 33.8851 28.2503 33.9602 28.5969 33.9602C28.9435 33.9602 29.2859 33.8851 29.6007 33.7401C29.9155 33.595 30.1951 33.3835 30.4204 33.1201C31.2001 32.3202 31.9779 31.5384 32.7536 30.7745C33.9533 29.5747 33.9533 28.2729 32.7536 27.0551L26.7075 21.0021C26.5914 20.892 26.4813 20.7759 26.3776 20.6541C26.3174 20.5928 26.275 20.5162 26.255 20.4326C26.235 20.349 26.2381 20.2615 26.264 20.1795C26.2899 20.0976 26.3375 20.0242 26.4019 19.9672C26.4663 19.9103 26.545 19.8719 26.6295 19.8563C28.2554 19.3351 29.9794 19.1955 31.668 19.4483C33.5162 19.7028 35.2674 20.4302 36.7522 21.56C38.237 22.6897 39.4051 24.1837 40.1434 25.8973C40.7835 27.3459 41.1242 28.9089 41.1451 30.4925Z" fill="#FCA804"/>
<path d="M72 9.60001H79.26V36.18H72V9.60001ZM87.96 9.60001V14.76H74.58V9.60001H87.96ZM86.82 21.24V25.98H75.18V21.24H86.82Z" fill="black"/>
<path d="M97.3205 15.7199V20.6999H90.0605V14.7599C90.0605 13.1999 90.5405 11.9999 91.4405 11.0399C92.3405 10.0799 93.9005 9.65991 96.1205 9.65991H99.6605V14.8199H98.2806C97.9206 14.8199 97.6806 14.8799 97.5006 15.0599C97.4406 15.1799 97.3205 15.4199 97.3205 15.7199ZM97.3205 20.1599V30.0599C97.3205 30.3599 97.3805 30.5999 97.5605 30.7199C97.7405 30.8999 97.9805 30.9599 98.3405 30.9599H99.7205V36.1199H96.1806C93.9606 36.1199 92.4006 35.6399 91.5006 34.7399C90.6006 33.7799 90.1206 32.5799 90.1206 31.0199V20.1599H97.3205ZM101.161 20.6999V15.7199C101.161 15.4199 101.101 15.1799 100.921 15.0599C100.741 14.8799 100.501 14.8199 100.141 14.8199H98.7605V9.65991H102.301C104.521 9.65991 106.081 10.1399 106.981 11.0399C107.881 11.9999 108.361 13.1999 108.361 14.7599V20.6999H101.161ZM101.161 30.1199V20.1599H108.421V31.0199C108.421 32.5799 107.941 33.7799 107.041 34.7399C106.141 35.6999 104.581 36.1199 102.361 36.1199H98.8205V30.9599H100.201C100.561 30.9599 100.801 30.8999 100.981 30.7199C101.041 30.5999 101.161 30.4199 101.161 30.1199Z" fill="black"/>
<path d="M111.6 9.60001H118.86V36.18H111.6V9.60001ZM122.7 20.94V15.72C122.7 15.42 122.64 15.18 122.46 15.06C122.28 14.88 122.04 14.82 121.68 14.82H114V9.66001H123.9C126.12 9.66001 127.68 10.14 128.58 11.04C129.48 12 129.96 13.2 129.96 14.76V21.6C129.96 23.16 129.48 24.36 128.58 25.32C127.68 26.28 126.12 26.7 123.9 26.7H114V21.78H121.68C122.04 21.78 122.28 21.72 122.46 21.54C122.64 21.42 122.7 21.24 122.7 20.94ZM117.96 23.82H125.04L131.22 36.12H123.42L117.96 23.82Z" fill="black"/>
<path d="M139.86 15.2999V30.5399C139.86 30.8399 139.92 31.0799 140.1 31.1999C140.28 31.3799 140.52 31.4399 140.88 31.4399H141.84V36.1799H138.72C136.5 36.1799 134.94 35.6999 134.04 34.7999C133.14 33.8399 132.66 32.6399 132.66 31.0799V14.7599C132.66 13.1999 133.14 11.9999 134.04 11.0399C134.94 10.0799 136.5 9.65991 138.72 9.65991H142.02V14.3999H140.88C140.52 14.3999 140.28 14.4599 140.1 14.6399C139.92 14.7599 139.86 14.9999 139.86 15.2999ZM143.4 18.7199V15.2999C143.4 14.9999 143.34 14.7599 143.16 14.6399C142.98 14.4599 142.74 14.3999 142.38 14.3999H141.24V9.65991H144.54C146.76 9.65991 148.32 10.1399 149.22 11.0399C150.12 11.9999 150.6 13.1999 150.6 14.7599V18.7199H143.4ZM150.66 21.4799V26.0999H141.36V21.4799H150.66ZM143.4 30.4799V24.6599H150.66V31.0199C150.66 32.5799 150.18 33.7799 149.28 34.7399C148.38 35.6999 146.82 36.1199 144.6 36.1199H141.42V31.3799H142.38C142.74 31.3799 142.98 31.3199 143.16 31.1399C143.34 31.0199 143.4 30.8399 143.4 30.4799Z" fill="black"/>
<path d="M153.54 9.60001H160.8V36.18H153.54V9.60001ZM169.5 9.60001V14.76H156.12V9.60001H169.5ZM169.86 31.02V36.18H156.12V31.02H169.86ZM168.3 20.22V25.38H156.66V20.22H168.3Z" fill="black"/>
<path d="M185.1 22.68L192 36.18H183.84L181.02 28.74L178.14 36.18H170.46L176.94 22.68L170.64 9.60001H178.86L181.08 16.38L183.3 9.60001H191.1L185.1 22.68Z" fill="url(#paint0_linear_223_1137)"/>
<path d="M190.442 49.357C190.442 49.1548 190.515 48.9862 190.661 48.8514C190.808 48.7138 190.996 48.645 191.226 48.645C191.459 48.645 191.647 48.7138 191.791 48.8514C191.937 48.9862 192.01 49.1548 192.01 49.357C192.01 49.5592 191.937 49.7291 191.791 49.8668C191.647 50.0016 191.459 50.069 191.226 50.069C190.996 50.069 190.808 50.0016 190.661 49.8668C190.515 49.7291 190.442 49.5592 190.442 49.357Z" fill="#FCA804"/>
<path d="M187.811 47.9456H189.286C189.266 48.3725 189.151 48.7489 188.941 49.0747C188.73 49.4005 188.438 49.6547 188.064 49.8372C187.694 50.017 187.255 50.1069 186.75 50.1069C186.34 50.1069 185.973 50.0381 185.65 49.9004C185.33 49.7628 185.058 49.5648 184.833 49.3064C184.611 49.048 184.441 48.7348 184.323 48.3669C184.208 47.999 184.15 47.5847 184.15 47.1241V46.7912C184.15 46.3306 184.211 45.9163 184.332 45.5484C184.455 45.1776 184.629 44.8631 184.854 44.6047C185.081 44.3435 185.354 44.1441 185.671 44.0064C185.989 43.8688 186.341 43.8 186.729 43.8C187.262 43.8 187.713 43.8955 188.081 44.0865C188.449 44.2775 188.734 44.5401 188.936 44.8743C189.139 45.2057 189.258 45.5835 189.294 46.0076H187.82C187.814 45.7773 187.775 45.5849 187.702 45.4304C187.629 45.2731 187.514 45.1552 187.356 45.0765C187.199 44.9979 186.99 44.9586 186.729 44.9586C186.546 44.9586 186.387 44.9923 186.253 45.0597C186.118 45.1271 186.006 45.2338 185.916 45.3799C185.826 45.5259 185.758 45.7155 185.713 45.9486C185.671 46.1789 185.65 46.457 185.65 46.7828V47.1241C185.65 47.4499 185.67 47.7279 185.709 47.9582C185.749 48.1885 185.812 48.3767 185.899 48.5228C185.986 48.6688 186.098 48.777 186.236 48.8472C186.376 48.9146 186.548 48.9483 186.75 48.9483C186.975 48.9483 187.164 48.9132 187.319 48.843C187.473 48.7699 187.592 48.6604 187.677 48.5143C187.761 48.3655 187.806 48.1759 187.811 47.9456Z" fill="#FCA804"/>
<path d="M182.957 43.8884V50.0226H181.482L179.313 46.2056V50.0226H177.834V43.8884H179.313L181.482 47.7054V43.8884H182.957Z" fill="#FCA804"/>
<path d="M176.362 43.8884V50.0226H174.888V43.8884H176.362Z" fill="#FCA804"/>
<path d="M171.173 48.8851V50.0226H167.903V48.8851H171.173ZM168.43 43.8884V50.0226H166.951V43.8884H168.43ZM170.751 46.3235V47.4231H167.903V46.3235H170.751ZM171.185 43.8884V45.0302H167.903V43.8884H171.185Z" fill="#FCA804"/>
<path d="M164.346 47.9456H165.82C165.801 48.3725 165.685 48.7489 165.475 49.0747C165.264 49.4005 164.972 49.6547 164.598 49.8372C164.228 50.017 163.79 50.1069 163.284 50.1069C162.874 50.1069 162.507 50.0381 162.184 49.9004C161.864 49.7628 161.592 49.5648 161.367 49.3064C161.145 49.048 160.975 48.7348 160.857 48.3669C160.742 47.999 160.685 47.5847 160.685 47.1241V46.7912C160.685 46.3306 160.745 45.9163 160.866 45.5484C160.989 45.1776 161.163 44.8631 161.388 44.6047C161.616 44.3435 161.888 44.1441 162.205 44.0064C162.523 43.8688 162.875 43.8 163.263 43.8C163.797 43.8 164.247 43.8955 164.615 44.0865C164.983 44.2775 165.268 44.5401 165.471 44.8743C165.673 45.2057 165.792 45.5835 165.829 46.0076H164.354C164.348 45.7773 164.309 45.5849 164.236 45.4304C164.163 45.2731 164.048 45.1552 163.891 45.0765C163.733 44.9979 163.524 44.9586 163.263 44.9586C163.08 44.9586 162.922 44.9923 162.787 45.0597C162.652 45.1271 162.54 45.2338 162.45 45.3799C162.36 45.5259 162.293 45.7155 162.248 45.9486C162.205 46.1789 162.184 46.457 162.184 46.7828V47.1241C162.184 47.4499 162.204 47.7279 162.243 47.9582C162.283 48.1885 162.346 48.3767 162.433 48.5228C162.52 48.6688 162.632 48.777 162.77 48.8472C162.91 48.9146 163.082 48.9483 163.284 48.9483C163.509 48.9483 163.698 48.9132 163.853 48.843C164.007 48.7699 164.127 48.6604 164.211 48.5143C164.295 48.3655 164.34 48.1759 164.346 47.9456Z" fill="#FCA804"/>
<path d="M159.385 43.8884V50.0226H157.91V43.8884H159.385Z" fill="#FCA804"/>
<path d="M153.999 48.5775L155.276 43.8884H156.931L154.863 50.0226H153.793L153.999 48.5775ZM152.841 43.8884L154.117 48.5775L154.332 50.0226H153.249L151.193 43.8884H152.841Z" fill="#FCA804"/>
<path d="M145.702 43.8884H148.116C148.588 43.8884 148.998 43.9586 149.346 44.0991C149.695 44.2395 149.963 44.4474 150.151 44.7226C150.342 44.9979 150.438 45.3377 150.438 45.7422C150.438 46.0932 150.383 46.3867 150.273 46.6227C150.164 46.8586 150.011 47.0538 149.814 47.2083C149.62 47.3599 149.394 47.4849 149.136 47.5832L148.651 47.8571H146.625L146.616 46.7154H148.116C148.304 46.7154 148.46 46.6817 148.584 46.6142C148.707 46.5468 148.8 46.4513 148.862 46.3278C148.927 46.2014 148.959 46.0511 148.959 45.877C148.959 45.7 148.927 45.5484 148.862 45.422C148.797 45.2956 148.702 45.1987 148.575 45.1313C148.452 45.0639 148.299 45.0302 148.116 45.0302H147.181V50.0226H145.702V43.8884ZM149.06 50.0226L147.703 47.3094L149.271 47.301L150.644 49.9594V50.0226H149.06Z" fill="#FCA804"/>
<path d="M144.664 48.8851V50.0226H141.395V48.8851H144.664ZM141.921 43.8884V50.0226H140.442V43.8884H141.921ZM144.243 46.3235V47.4231H141.395V46.3235H144.243ZM144.676 43.8884V45.0302H141.395V43.8884H144.676Z" fill="#FCA804"/>
<path d="M137.77 48.3921C137.77 48.2966 137.756 48.211 137.728 48.1351C137.7 48.0565 137.648 47.9835 137.572 47.9161C137.496 47.8487 137.386 47.7812 137.243 47.7138C137.103 47.6436 136.917 47.5706 136.687 47.4948C136.418 47.4049 136.158 47.3038 135.908 47.1914C135.658 47.0763 135.434 46.9429 135.238 46.7912C135.041 46.6367 134.885 46.457 134.77 46.2519C134.655 46.0441 134.597 45.8025 134.597 45.5273C134.597 45.2633 134.656 45.0259 134.774 44.8153C134.892 44.6018 135.057 44.4207 135.267 44.2718C135.481 44.1201 135.731 44.005 136.017 43.9263C136.304 43.8449 136.617 43.8042 136.957 43.8042C137.406 43.8042 137.802 43.8828 138.145 44.0401C138.49 44.1946 138.76 44.4151 138.954 44.7015C139.15 44.9852 139.249 45.3209 139.249 45.7084H137.778C137.778 45.554 137.746 45.4178 137.681 45.2998C137.62 45.1818 137.526 45.0891 137.399 45.0217C137.273 44.9543 137.114 44.9206 136.923 44.9206C136.738 44.9206 136.582 44.9487 136.455 45.0049C136.329 45.061 136.234 45.1369 136.169 45.2324C136.104 45.3251 136.072 45.4276 136.072 45.5399C136.072 45.6326 136.097 45.7169 136.148 45.7927C136.201 45.8657 136.276 45.9345 136.371 45.9991C136.469 46.0637 136.587 46.1255 136.725 46.1845C136.865 46.2435 137.023 46.3011 137.197 46.3573C137.523 46.4612 137.812 46.5777 138.065 46.7069C138.32 46.8333 138.535 46.978 138.709 47.1409C138.886 47.301 139.02 47.4835 139.11 47.6886C139.202 47.8936 139.249 48.1253 139.249 48.3837C139.249 48.659 139.195 48.9033 139.089 49.1168C138.982 49.3302 138.829 49.5114 138.629 49.6603C138.43 49.8063 138.191 49.9172 137.913 49.9931C137.635 50.0689 137.325 50.1068 136.982 50.1068C136.667 50.1068 136.357 50.0675 136.051 49.9889C135.748 49.9074 135.472 49.7838 135.225 49.6181C134.978 49.4496 134.78 49.2347 134.631 48.9735C134.485 48.7095 134.412 48.3963 134.412 48.034H135.895C135.895 48.2138 135.919 48.3655 135.967 48.489C136.014 48.6126 136.085 48.7123 136.177 48.7882C136.27 48.8612 136.384 48.9145 136.519 48.9483C136.653 48.9791 136.808 48.9946 136.982 48.9946C137.17 48.9946 137.322 48.9679 137.437 48.9145C137.552 48.8584 137.636 48.7854 137.69 48.6955C137.743 48.6028 137.77 48.5017 137.77 48.3921Z" fill="#FCA804"/>
<path d="M130.735 46.7449V49.2643C130.631 49.3794 130.471 49.503 130.254 49.635C130.041 49.7642 129.771 49.8751 129.445 49.9678C129.12 50.0605 128.736 50.1069 128.295 50.1069C127.888 50.1069 127.519 50.0423 127.187 49.9131C126.856 49.7811 126.571 49.5887 126.332 49.3359C126.096 49.0803 125.914 48.7685 125.784 48.4006C125.658 48.0299 125.595 47.6057 125.595 47.1283V46.787C125.595 46.3095 125.659 45.8854 125.789 45.5147C125.918 45.1439 126.099 44.8322 126.332 44.5794C126.568 44.3238 126.845 44.13 127.162 43.998C127.482 43.866 127.833 43.8 128.215 43.8C128.78 43.8 129.239 43.8899 129.593 44.0696C129.947 44.2466 130.215 44.4923 130.398 44.8069C130.58 45.1187 130.691 45.4796 130.73 45.8896H129.311C129.283 45.6874 129.229 45.5161 129.151 45.3757C129.075 45.2324 128.965 45.1243 128.822 45.0513C128.679 44.9754 128.493 44.9375 128.266 44.9375C128.089 44.9375 127.927 44.9754 127.781 45.0513C127.638 45.1271 127.516 45.2422 127.415 45.3967C127.314 45.5484 127.235 45.7394 127.179 45.9697C127.125 46.2 127.099 46.4696 127.099 46.7786V47.1283C127.099 47.4344 127.124 47.7026 127.175 47.933C127.228 48.1633 127.307 48.3557 127.411 48.5101C127.517 48.6618 127.652 48.777 127.815 48.8556C127.981 48.9314 128.176 48.9694 128.401 48.9694C128.558 48.9694 128.693 48.9567 128.805 48.9314C128.917 48.9033 129.01 48.8696 129.083 48.8303C129.159 48.7882 129.217 48.7489 129.256 48.7124V47.7602H128.228V46.7449H130.735Z" fill="#FCA804"/>
<path d="M124.351 43.8884V50.0226H122.876L120.706 46.2056V50.0226H119.228V43.8884H120.706L122.876 47.7054V43.8884H124.351Z" fill="#FCA804"/>
<path d="M117.756 43.8884V50.0226H116.281V43.8884H117.756Z" fill="#FCA804"/>
<path d="M110.124 43.8884H112.538C113.01 43.8884 113.42 43.9586 113.768 44.0991C114.117 44.2395 114.385 44.4474 114.573 44.7226C114.764 44.9979 114.859 45.3377 114.859 45.7422C114.859 46.0932 114.805 46.3867 114.695 46.6227C114.586 46.8586 114.433 47.0538 114.236 47.2083C114.042 47.3599 113.816 47.4849 113.558 47.5832L113.073 47.8571H111.047L111.038 46.7154H112.538C112.726 46.7154 112.882 46.6817 113.006 46.6142C113.129 46.5468 113.222 46.4513 113.284 46.3278C113.348 46.2014 113.381 46.0511 113.381 45.877C113.381 45.7 113.348 45.5484 113.284 45.422C113.219 45.2956 113.124 45.1987 112.997 45.1313C112.874 45.0639 112.721 45.0302 112.538 45.0302H111.603V50.0226H110.124V43.8884ZM113.482 50.0226L112.125 47.3094L113.692 47.301L115.066 49.9594V50.0226H113.482Z" fill="#FCA804"/>
<path d="M109.086 48.8851V50.0226H105.816V48.8851H109.086ZM106.343 43.8884V50.0226H104.864V43.8884H106.343ZM108.664 46.3235V47.4231H105.816V46.3235H108.664ZM109.098 43.8884V45.0302H105.816V43.8884H109.098Z" fill="#FCA804"/>
<path d="M103.827 48.8851V50.0226H100.558V48.8851H103.827ZM101.084 43.8884V50.0226H99.6055V43.8884H101.084ZM103.406 46.3235V47.4231H100.558V46.3235H103.406ZM103.84 43.8884V45.0302H100.558V43.8884H103.84Z" fill="#FCA804"/>
<path d="M98.2383 43.8884V50.0226H96.7637L94.594 46.2056V50.0226H93.1152V43.8884H94.594L96.7637 47.7054V43.8884H98.2383Z" fill="#FCA804"/>
<path d="M91.6435 43.8884V50.0226H90.1689V43.8884H91.6435Z" fill="#FCA804"/>
<path d="M88.7766 46.7449V49.2643C88.6727 49.3794 88.5126 49.503 88.2963 49.635C88.0828 49.7642 87.8132 49.8751 87.4874 49.9678C87.1616 50.0605 86.7782 50.1069 86.3373 50.1069C85.93 50.1069 85.5607 50.0423 85.2292 49.9131C84.8978 49.7811 84.6127 49.5887 84.374 49.3359C84.1381 49.0803 83.9555 48.7685 83.8263 48.4006C83.6999 48.0299 83.6367 47.6057 83.6367 47.1283V46.787C83.6367 46.3095 83.7013 45.8854 83.8305 45.5147C83.9597 45.1439 84.1409 44.8322 84.374 44.5794C84.6099 44.3238 84.8866 44.13 85.204 43.998C85.5241 43.866 85.8752 43.8 86.2572 43.8C86.8218 43.8 87.281 43.8899 87.6349 44.0696C87.9888 44.2466 88.257 44.4923 88.4395 44.8069C88.6221 45.1187 88.7331 45.4796 88.7724 45.8896H87.3526C87.3245 45.6874 87.2711 45.5161 87.1925 45.3757C87.1167 45.2324 87.0071 45.1243 86.8639 45.0513C86.7206 44.9754 86.5353 44.9375 86.3078 44.9375C86.1308 44.9375 85.9693 44.9754 85.8233 45.0513C85.68 45.1271 85.5579 45.2422 85.4567 45.3967C85.3556 45.5484 85.277 45.7394 85.2208 45.9697C85.1674 46.2 85.1408 46.4696 85.1408 46.7786V47.1283C85.1408 47.4344 85.166 47.7026 85.2166 47.933C85.27 48.1633 85.3486 48.3557 85.4525 48.5101C85.5593 48.6618 85.6941 48.777 85.857 48.8556C86.0227 48.9314 86.2179 48.9694 86.4426 48.9694C86.5999 48.9694 86.7347 48.9567 86.847 48.9314C86.9594 48.9033 87.0521 48.8696 87.1251 48.8303C87.2009 48.7882 87.2585 48.7489 87.2978 48.7124V47.7602H86.2698V46.7449H88.7766Z" fill="#FCA804"/>
<path d="M82.3926 43.8884V50.0226H80.918L78.7483 46.2056V50.0226H77.2695V43.8884H78.7483L80.918 47.7054V43.8884H82.3926Z" fill="#FCA804"/>
<path d="M76.2312 48.8851V50.0226H72.9619V48.8851H76.2312ZM73.4885 43.8884V50.0226H72.0098V43.8884H73.4885ZM75.8099 46.3235V47.4231H72.9619V46.3235H75.8099ZM76.2438 43.8884V45.0302H72.9619V43.8884H76.2438Z" fill="#FCA804"/>
<defs>
<linearGradient id="paint0_linear_223_1137" x1="170.366" y1="9.66248" x2="190.512" y2="29.8269" gradientUnits="userSpaceOnUse">
<stop stop-color="#FCA804"/>
<stop offset="1"/>
</linearGradient>
</defs>
</svg>
