<svg width="386" height="181" viewBox="0 0 386 181" fill="none" xmlns="http://www.w3.org/2000/svg">
<path d="M92.8999 72.7H143.5C143.5 72.7 171.3 6.7 224.1 32.6C224.1 32.5 158.6 -21.5 92.8999 72.7Z" fill="black"/>
<path d="M385.9 139.3H289.8C289.8 139.3 265.8 -33.9 135.4 20.4C135.6 20.4 286 -72.8 385.9 139.3Z" fill="#FC5220"/>
<path d="M32.2 116.6H9.7V140.3H0V84.4H35.5V92.2H9.7V108.8H32.2V116.6Z" fill="black"/>
<path d="M38.2 119.2C38.2 115.1 39 111.5 40.6 108.2C42.2 104.9 44.5 102.4 47.4 100.7C50.3 98.9 53.7 98.1 57.5 98.1C63.1 98.1 67.7 99.9 71.1 103.5C74.6 107.1 76.5 111.9 76.8 117.9V120.1C76.8 124.2 76 127.9 74.4 131.1C72.8 134.3 70.6 136.8 67.6 138.6C64.7 140.4 61.3 141.2 57.4 141.2C51.5 141.2 46.8 139.2 43.3 135.3C39.8 131.4 38 126.2 38 119.7V119.2H38.2ZM47.5 120C47.5 124.3 48.4 127.6 50.1 130C51.9 132.4 54.3 133.6 57.5 133.6C60.6 133.6 63.1 132.4 64.9 129.9C66.7 127.4 67.5 123.8 67.5 119.1C67.5 114.9 66.6 111.6 64.8 109.1C63 106.6 60.5 105.4 57.4 105.4C54.4 105.4 51.9 106.6 50.1 109C48.4 111.5 47.5 115.2 47.5 120Z" fill="black"/>
<path d="M104.8 107.3C103.6 107.1 102.3 107 101 107C96.7001 107 93.8001 108.6 92.4001 111.9V140.3H83.1001V98.8H92.0001L92.2001 103.4C94.5001 99.8 97.6001 98 101.6 98C102.9 98 104 98.2 104.9 98.5L104.8 107.3Z" fill="black"/>
<path d="M107.5 119.2C107.5 112.8 109 107.6 112 103.7C115 99.8 119.1 97.9 124.1 97.9C128.8 97.9 132.6 99.6 135.3 102.9L135.7 98.7H144.1V139C144.1 144.5 142.4 148.8 139 151.9C135.6 155 131 156.6 125.3 156.6C122.3 156.6 119.3 156 116.4 154.7C113.5 153.4 111.3 151.8 109.8 149.7L114.2 144.1C117.1 147.5 120.6 149.2 124.8 149.2C127.9 149.2 130.3 148.4 132.1 146.7C133.9 145 134.8 142.6 134.8 139.3V136.5C132.1 139.5 128.5 141 124.1 141C119.2 141 115.3 139.1 112.2 135.2C109.1 131.4 107.5 126.1 107.5 119.2ZM116.8 120C116.8 124.2 117.7 127.5 119.4 129.8C121.1 132.2 123.5 133.4 126.5 133.4C130.3 133.4 133.1 131.8 134.9 128.6V110.3C133.1 107.2 130.4 105.6 126.6 105.6C123.5 105.6 121.1 106.8 119.4 109.2C117.7 111.7 116.8 115.3 116.8 120Z" fill="black"/>
<path d="M170.5 141.1C164.6 141.1 159.8 139.2 156.1 135.5C152.4 131.8 150.6 126.8 150.6 120.6V119.4C150.6 115.3 151.4 111.5 153 108.3C154.6 105 156.8 102.5 159.7 100.7C162.6 98.9 165.8 98 169.4 98C175.1 98 179.4 99.8 182.5 103.4C185.6 107 187.1 112.1 187.1 118.7V122.5H160C160.3 125.9 161.4 128.6 163.4 130.6C165.4 132.6 167.9 133.6 171 133.6C175.3 133.6 178.8 131.9 181.4 128.4L186.4 133.2C184.7 135.7 182.5 137.6 179.7 139C177 140.4 173.9 141.1 170.5 141.1ZM169.3 105.5C166.7 105.5 164.7 106.4 163.1 108.2C161.5 110 160.5 112.5 160.1 115.7H177.9V115C177.7 111.9 176.9 109.5 175.4 107.9C173.9 106.3 171.9 105.5 169.3 105.5Z" fill="black"/>
<path d="M212.9 104.6L224.6 84.4H235.8L219 112.1L260.7 180.7H249.4L212.9 119.7L200.8 140.2H189.5L206.8 112L190 84.4H201.2L212.9 104.6Z" fill="#FC5220"/>
<path d="M2.3001 180.7H0.100098V167.9H2.3001V180.7Z" fill="black"/>
<path d="M18.3002 180.7H16.1002L10.4002 171.6V180.7H8.2002V167.9H10.4002L16.2002 177V167.9H18.4002L18.3002 180.7Z" fill="black"/>
<path d="M24.1001 180.7V167.9H27.9001C29.0001 167.9 30.0001 168.1 30.9001 168.6C31.8001 169.1 32.5001 169.8 32.9001 170.7C33.4001 171.6 33.6001 172.7 33.6001 173.9V174.5C33.6001 175.7 33.4001 176.8 32.9001 177.7C32.4001 178.6 31.7001 179.3 30.8001 179.8C29.9001 180.3 28.9001 180.6 27.7001 180.6L24.1001 180.7ZM26.3001 169.6V178.8H27.8001C29.0001 178.8 29.9001 178.4 30.5001 177.7C31.1001 177 31.4001 175.9 31.4001 174.6V173.9C31.4001 172.5 31.1001 171.4 30.5001 170.7C29.9001 170 29.0001 169.6 27.9001 169.6H26.3001Z" fill="black"/>
<path d="M48.4001 167.8V176.4C48.4001 177.8 48 178.8 47.1 179.6C46.2 180.4 45.1 180.8 43.6 180.8C42.1 180.8 41 180.4 40.1 179.6C39.2 178.8 38.8 177.7 38.8 176.3V167.7H41V176.3C41 177.2 41.2001 177.8 41.7001 178.3C42.1001 178.8 42.8 179 43.6 179C45.3 179 46.2001 178.1 46.2001 176.3V167.8H48.4001Z" fill="black"/>
<path d="M60.6002 177.3C60.6002 176.7 60.4002 176.3 60.0002 176C59.6002 175.7 58.9002 175.4 57.9002 175.1C56.9002 174.8 56.0002 174.4 55.4002 174.1C54.2002 173.4 53.6002 172.4 53.6002 171.2C53.6002 170.2 54.0002 169.3 54.9002 168.6C55.7002 167.9 56.8002 167.6 58.2002 167.6C59.1002 167.6 59.9002 167.8 60.6002 168.1C61.3002 168.4 61.8002 168.9 62.2002 169.5C62.6002 170.1 62.8002 170.8 62.8002 171.5H60.6002C60.6002 170.8 60.4002 170.3 60.0002 169.9C59.6002 169.5 59.0002 169.3 58.2002 169.3C57.5002 169.3 56.9002 169.5 56.5002 169.8C56.1002 170.1 55.9002 170.5 55.9002 171.1C55.9002 171.6 56.1002 172 56.6002 172.3C57.0002 172.6 57.8002 172.9 58.7002 173.2C59.7002 173.5 60.5002 173.8 61.1002 174.2C61.7002 174.6 62.1002 175 62.4002 175.5C62.7002 176 62.8002 176.6 62.8002 177.2C62.8002 178.3 62.4002 179.1 61.6002 179.8C60.8002 180.4 59.7002 180.8 58.3002 180.8C57.4002 180.8 56.5002 180.6 55.7002 180.3C54.9002 180 54.3002 179.5 53.9002 178.9C53.5002 178.3 53.2002 177.6 53.2002 176.8H55.4002C55.4002 177.5 55.6002 178.1 56.1002 178.5C56.6002 178.9 57.3002 179.1 58.2002 179.1C59.0002 179.1 59.6002 178.9 59.9002 178.6C60.4002 178.2 60.6002 177.8 60.6002 177.3Z" fill="black"/>
<path d="M77.2 169.5H73.2V180.5H71V169.5H67V167.7H77.2V169.5Z" fill="black"/>
<path d="M86.7 175.6H84.2V180.5H82V167.7H86.5C88 167.7 89.1 168 89.9 168.7C90.7 169.4 91.1 170.3 91.1 171.6C91.1 172.5 90.9 173.2 90.5 173.8C90.1 174.4 89.5 174.8 88.8 175.1L91.7 180.4V180.5H89.3L86.7 175.6ZM84.3 173.8H86.6C87.4 173.8 87.9 173.6 88.4 173.2C88.8 172.8 89 172.3 89 171.6C89 170.9 88.8 170.4 88.4 170C88 169.6 87.4 169.4 86.7 169.4H84.4L84.3 173.8Z" fill="black"/>
<path d="M98.8001 180.4H96.6001V167.6H98.8001V180.4Z" fill="black"/>
<path d="M111.9 177.4H106.9L105.9 180.4H103.6L108.4 167.6H110.4L115.3 180.4H113L111.9 177.4ZM107.5 175.6H111.2L109.3 170.3L107.5 175.6Z" fill="black"/>
<path d="M122.1 178.6H127.9V180.4H119.9V167.6H122.1V178.6Z" fill="black"/>
<path d="M146.5 177C146.5 176.4 146.3 176 145.9 175.7C145.5 175.4 144.8 175.1 143.8 174.8C142.8 174.5 141.9 174.1 141.3 173.8C140.1 173.1 139.5 172.1 139.5 170.9C139.5 169.9 139.9 169 140.8 168.3C141.6 167.6 142.7 167.3 144.1 167.3C145 167.3 145.8 167.5 146.5 167.8C147.2 168.1 147.7 168.6 148.1 169.2C148.5 169.8 148.7 170.5 148.7 171.2H146.5C146.5 170.5 146.3 170 145.9 169.6C145.5 169.2 144.9 169 144.1 169C143.4 169 142.8 169.2 142.4 169.5C142 169.8 141.8 170.2 141.8 170.8C141.8 171.3 142 171.7 142.5 172C142.9 172.3 143.7 172.6 144.6 172.9C145.6 173.2 146.4 173.5 147 173.9C147.6 174.3 148 174.7 148.3 175.2C148.6 175.7 148.7 176.3 148.7 176.9C148.7 178 148.3 178.8 147.5 179.5C146.7 180.1 145.6 180.5 144.2 180.5C143.3 180.5 142.4 180.3 141.6 180C140.8 179.7 140.2 179.2 139.8 178.6C139.4 178 139.1 177.3 139.1 176.5H141.3C141.3 177.2 141.5 177.8 142 178.2C142.5 178.6 143.2 178.8 144.1 178.8C144.9 178.8 145.5 178.6 145.8 178.3C146.3 177.9 146.5 177.5 146.5 177Z" fill="black"/>
<path d="M161.3 174.5H156V178.4H162.2V180.2H153.8V167.4H162.1V169.2H156V172.7H161.3V174.5Z" fill="black"/>
<path d="M171.8 175.3H169.3V180.2H167.1V167.4H171.6C173.1 167.4 174.2 167.7 175 168.4C175.8 169.1 176.2 170 176.2 171.3C176.2 172.2 176 172.9 175.6 173.5C175.2 174.1 174.6 174.5 173.9 174.8L176.8 180.1V180.2H174.4L171.8 175.3ZM169.3 173.5H171.6C172.4 173.5 172.9 173.3 173.4 172.9C173.8 172.5 174 172 174 171.3C174 170.6 173.8 170.1 173.4 169.7C173 169.3 172.4 169.1 171.7 169.1H169.4L169.3 173.5Z" fill="black"/>
<path d="M185.9 177.4L189.1 167.4H191.5L186.9 180.2H184.7L180.1 167.4H182.5L185.9 177.4Z" fill="black"/>
<path d="M198.5 180.1H196.3V167.3H198.5V180.1Z" fill="black"/>
<path d="M214.2 175.9C214.1 177.3 213.6 178.3 212.7 179.1C211.8 179.9 210.7 180.3 209.2 180.3C208.2 180.3 207.3 180.1 206.5 179.6C205.7 179.1 205.1 178.4 204.7 177.5C204.3 176.6 204.1 175.6 204 174.4V173.2C204 172 204.2 170.9 204.6 170C205 169.1 205.6 168.4 206.4 167.9C207.2 167.4 208.1 167.1 209.2 167.1C210.6 167.1 211.8 167.5 212.6 168.2C213.5 169 214 170 214.1 171.4H211.9C211.8 170.5 211.5 169.8 211.1 169.4C210.7 169 210 168.8 209.2 168.8C208.2 168.8 207.5 169.2 207 169.9C206.5 170.6 206.2 171.6 206.2 173V174.1C206.2 175.5 206.5 176.5 207 177.3C207.5 178 208.2 178.4 209.2 178.4C210.1 178.4 210.7 178.2 211.2 177.8C211.6 177.4 211.9 176.8 212 175.8L214.2 175.9Z" fill="black"/>
<path d="M226.8 174.3H221.5V178.2H227.7V180H219.3V167.2H227.6V169H221.5V172.5H226.8V174.3Z" fill="black"/>
<path d="M272.6 177.3C272.6 176.7 272.4 176.3 272 176C271.6 175.7 270.9 175.4 269.9 175.1C268.9 174.8 268 174.4 267.4 174.1C266.2 173.4 265.6 172.4 265.6 171.2C265.6 170.2 266 169.3 266.9 168.6C267.7 167.9 268.8 167.6 270.2 167.6C271.1 167.6 271.9 167.8 272.6 168.1C273.3 168.4 273.8 168.9 274.2 169.5C274.6 170.1 274.8 170.8 274.8 171.5H272.6C272.6 170.8 272.4 170.3 272 169.9C271.6 169.5 271 169.3 270.2 169.3C269.5 169.3 268.9 169.5 268.5 169.8C268.1 170.1 267.9 170.5 267.9 171.1C267.9 171.6 268.1 172 268.6 172.3C269 172.6 269.8 172.9 270.7 173.2C271.7 173.5 272.5 173.8 273.1 174.2C273.7 174.6 274.1 175 274.4 175.5C274.7 176 274.8 176.6 274.8 177.2C274.8 178.3 274.4 179.1 273.6 179.8C272.8 180.4 271.7 180.8 270.3 180.8C269.4 180.8 268.5 180.6 267.7 180.3C266.9 180 266.3 179.5 265.9 178.9C265.5 178.3 265.2 177.6 265.2 176.8H267.4C267.4 177.5 267.6 178.1 268.1 178.5C268.6 178.9 269.3 179.1 270.2 179.1C271 179.1 271.6 178.9 271.9 178.6C272.4 178.2 272.6 177.8 272.6 177.3Z" fill="black"/>
<path d="M290.2 174.5C290.2 175.8 290 176.9 289.6 177.8C289.2 178.7 288.6 179.5 287.7 180C286.9 180.5 286 180.8 284.9 180.8C283.9 180.8 282.9 180.6 282.1 180C281.3 179.5 280.7 178.8 280.2 177.8C279.8 176.9 279.5 175.8 279.5 174.6V173.9C279.5 172.7 279.7 171.5 280.2 170.6C280.6 169.6 281.3 168.9 282.1 168.4C282.9 167.9 283.8 167.6 284.9 167.6C285.9 167.6 286.9 167.8 287.7 168.3C288.5 168.8 289.1 169.5 289.6 170.5C290 171.4 290.3 172.5 290.3 173.8L290.2 174.5ZM287.9 173.8C287.9 172.4 287.6 171.3 287.1 170.5C286.6 169.7 285.8 169.4 284.8 169.4C283.8 169.4 283.1 169.8 282.5 170.5C282 171.3 281.7 172.3 281.7 173.7V174.4C281.7 175.8 282 176.9 282.5 177.7C283.1 178.5 283.8 178.8 284.8 178.8C285.8 178.8 286.5 178.4 287.1 177.7C287.6 176.9 287.9 175.8 287.9 174.4V173.8Z" fill="black"/>
<path d="M297.8 178.8H303.6V180.6H295.6V167.8H297.8V178.8Z" fill="black"/>
<path d="M317.6 167.7V176.3C317.6 177.7 317.2 178.7 316.3 179.5C315.4 180.3 314.3 180.7 312.8 180.7C311.3 180.7 310.2 180.3 309.3 179.5C308.4 178.7 308 177.6 308 176.2V167.6H310.2V176.2C310.2 177.1 310.4 177.7 310.9 178.2C311.3 178.7 312 178.9 312.8 178.9C314.5 178.9 315.4 178 315.4 176.2V167.7H317.6Z" fill="black"/>
<path d="M332.4 169.4H328.4V180.4H326.2V169.4H322.2V167.6H332.4V169.4Z" fill="black"/>
<path d="M339.6 180.4H337.4V167.6H339.6V180.4Z" fill="black"/>
<path d="M355.7 174.3C355.7 175.6 355.5 176.7 355.1 177.6C354.7 178.5 354.1 179.3 353.2 179.8C352.4 180.3 351.5 180.6 350.4 180.6C349.4 180.6 348.4 180.4 347.6 179.8C346.8 179.3 346.2 178.6 345.7 177.6C345.3 176.7 345 175.6 345 174.4V173.7C345 172.5 345.2 171.3 345.7 170.4C346.1 169.4 346.8 168.7 347.6 168.2C348.4 167.7 349.3 167.4 350.4 167.4C351.4 167.4 352.4 167.6 353.2 168.1C354 168.6 354.6 169.3 355.1 170.3C355.5 171.2 355.8 172.3 355.8 173.6L355.7 174.3ZM353.5 173.6C353.5 172.2 353.2 171.1 352.7 170.3C352.2 169.5 351.4 169.2 350.4 169.2C349.4 169.2 348.7 169.6 348.1 170.3C347.6 171.1 347.3 172.1 347.3 173.5V174.2C347.3 175.6 347.6 176.7 348.1 177.5C348.7 178.3 349.4 178.6 350.4 178.6C351.4 178.6 352.1 178.2 352.7 177.5C353.2 176.7 353.5 175.6 353.5 174.2V173.6Z" fill="black"/>
<path d="M371.2 180.3H369L363.3 171.2V180.3H361.1V167.5H363.3L369.1 176.6V167.5H371.3L371.2 180.3Z" fill="black"/>
<path d="M383.7 177C383.7 176.4 383.5 176 383.1 175.7C382.7 175.4 382 175.1 381 174.8C380 174.5 379.1 174.1 378.5 173.8C377.3 173.1 376.7 172.1 376.7 170.9C376.7 169.9 377.1 169 378 168.3C378.8 167.6 379.9 167.3 381.3 167.3C382.2 167.3 383 167.5 383.7 167.8C384.4 168.1 384.9 168.6 385.3 169.2C385.7 169.8 385.9 170.5 385.9 171.2H383.7C383.7 170.5 383.5 170 383.1 169.6C382.7 169.2 382.1 169 381.3 169C380.6 169 380 169.2 379.6 169.5C379.2 169.8 379 170.2 379 170.8C379 171.3 379.2 171.7 379.7 172C380.1 172.3 380.9 172.6 381.8 172.9C382.8 173.2 383.6 173.5 384.2 173.9C384.8 174.3 385.2 174.7 385.5 175.2C385.8 175.7 385.9 176.3 385.9 176.9C385.9 178 385.5 178.8 384.7 179.5C383.9 180.1 382.8 180.5 381.4 180.5C380.5 180.5 379.6 180.3 378.8 180C378 179.7 377.4 179.2 377 178.6C376.6 178 376.3 177.3 376.3 176.5H378.5C378.5 177.2 378.7 177.8 379.2 178.2C379.7 178.6 380.4 178.8 381.3 178.8C382.1 178.8 382.7 178.6 383 178.3C383.5 177.9 383.7 177.5 383.7 177Z" fill="black"/>
</svg>
