<svg width="386" height="182" viewBox="0 0 386 182" fill="none" xmlns="http://www.w3.org/2000/svg">
<path d="M92.8999 73.4916H143.5C143.5 73.4916 171.3 7.49156 224.1 33.3916C224.1 33.2916 158.6 -20.7084 92.8999 73.4916Z" fill="white"/>
<path d="M385.9 140.092H289.8C289.8 140.092 265.8 -33.1084 135.4 21.1916C135.6 21.1916 286 -72.0084 385.9 140.092Z" fill="#FC5220"/>
<path d="M32.2 117.392H9.7V141.092H0V85.1916H35.5V92.9916H9.7V109.592H32.2V117.392Z" fill="white"/>
<path d="M38.2 119.992C38.2 115.892 39 112.292 40.6 108.992C42.2 105.692 44.5 103.192 47.4 101.492C50.3 99.6916 53.7 98.8916 57.5 98.8916C63.1 98.8916 67.7 100.692 71.1 104.292C74.6 107.892 76.5 112.692 76.8 118.692V120.892C76.8 124.992 76 128.692 74.4 131.892C72.8 135.092 70.6 137.592 67.6 139.392C64.7 141.192 61.3 141.992 57.4 141.992C51.5 141.992 46.8 139.992 43.3 136.092C39.8 132.192 38 126.992 38 120.492V119.992H38.2ZM47.5 120.792C47.5 125.092 48.4 128.392 50.1 130.792C51.9 133.192 54.3 134.392 57.5 134.392C60.6 134.392 63.1 133.192 64.9 130.692C66.7 128.192 67.5 124.592 67.5 119.892C67.5 115.692 66.6 112.392 64.8 109.892C63 107.392 60.5 106.192 57.4 106.192C54.4 106.192 51.9 107.392 50.1 109.792C48.4 112.292 47.5 115.992 47.5 120.792Z" fill="white"/>
<path d="M104.8 108.092C103.6 107.892 102.3 107.792 101 107.792C96.7001 107.792 93.8001 109.392 92.4001 112.692V141.092H83.1001V99.5916H92.0001L92.2001 104.192C94.5001 100.592 97.6001 98.7916 101.6 98.7916C102.9 98.7916 104 98.9916 104.9 99.2916L104.8 108.092Z" fill="white"/>
<path d="M107.5 119.992C107.5 113.592 109 108.392 112 104.492C115 100.592 119.1 98.6916 124.1 98.6916C128.8 98.6916 132.6 100.392 135.3 103.692L135.7 99.4916H144.1V139.792C144.1 145.292 142.4 149.592 139 152.692C135.6 155.792 131 157.392 125.3 157.392C122.3 157.392 119.3 156.792 116.4 155.492C113.5 154.192 111.3 152.592 109.8 150.492L114.2 144.892C117.1 148.292 120.6 149.992 124.8 149.992C127.9 149.992 130.3 149.192 132.1 147.492C133.9 145.792 134.8 143.392 134.8 140.092V137.292C132.1 140.292 128.5 141.792 124.1 141.792C119.2 141.792 115.3 139.892 112.2 135.992C109.1 132.192 107.5 126.892 107.5 119.992ZM116.8 120.792C116.8 124.992 117.7 128.292 119.4 130.592C121.1 132.992 123.5 134.192 126.5 134.192C130.3 134.192 133.1 132.592 134.9 129.392V111.092C133.1 107.992 130.4 106.392 126.6 106.392C123.5 106.392 121.1 107.592 119.4 109.992C117.7 112.492 116.8 116.092 116.8 120.792Z" fill="white"/>
<path d="M170.5 141.892C164.6 141.892 159.8 139.992 156.1 136.292C152.4 132.592 150.6 127.592 150.6 121.392V120.192C150.6 116.092 151.4 112.292 153 109.092C154.6 105.792 156.8 103.292 159.7 101.492C162.6 99.6916 165.8 98.7916 169.4 98.7916C175.1 98.7916 179.4 100.592 182.5 104.192C185.6 107.792 187.1 112.892 187.1 119.492V123.292H160C160.3 126.692 161.4 129.392 163.4 131.392C165.4 133.392 167.9 134.392 171 134.392C175.3 134.392 178.8 132.692 181.4 129.192L186.4 133.992C184.7 136.492 182.5 138.392 179.7 139.792C177 141.192 173.9 141.892 170.5 141.892ZM169.3 106.292C166.7 106.292 164.7 107.192 163.1 108.992C161.5 110.792 160.5 113.292 160.1 116.492H177.9V115.792C177.7 112.692 176.9 110.292 175.4 108.692C173.9 107.092 171.9 106.292 169.3 106.292Z" fill="white"/>
<path d="M212.9 105.392L224.6 85.1916H235.8L219 112.892L260.7 181.492H249.4L212.9 120.492L200.8 140.992H189.5L206.8 112.792L190 85.1916H201.2L212.9 105.392Z" fill="#FC5220"/>
<path d="M2.3001 181.492H0.100098V168.692H2.3001V181.492Z" fill="white"/>
<path d="M18.3002 181.492H16.1002L10.4002 172.392V181.492H8.2002V168.692H10.4002L16.2002 177.792V168.692H18.4002L18.3002 181.492Z" fill="white"/>
<path d="M24.1001 181.492V168.692H27.9001C29.0001 168.692 30.0001 168.892 30.9001 169.392C31.8001 169.892 32.5001 170.592 32.9001 171.492C33.4001 172.392 33.6001 173.492 33.6001 174.692V175.292C33.6001 176.492 33.4001 177.592 32.9001 178.492C32.4001 179.392 31.7001 180.092 30.8001 180.592C29.9001 181.092 28.9001 181.392 27.7001 181.392L24.1001 181.492ZM26.3001 170.392V179.592H27.8001C29.0001 179.592 29.9001 179.192 30.5001 178.492C31.1001 177.792 31.4001 176.692 31.4001 175.392V174.692C31.4001 173.292 31.1001 172.192 30.5001 171.492C29.9001 170.792 29.0001 170.392 27.9001 170.392H26.3001Z" fill="white"/>
<path d="M48.4001 168.592V177.192C48.4001 178.592 48 179.592 47.1 180.392C46.2 181.192 45.1 181.592 43.6 181.592C42.1 181.592 41 181.192 40.1 180.392C39.2 179.592 38.8 178.492 38.8 177.092V168.492H41V177.092C41 177.992 41.2001 178.592 41.7001 179.092C42.1001 179.592 42.8 179.792 43.6 179.792C45.3 179.792 46.2001 178.892 46.2001 177.092V168.592H48.4001Z" fill="white"/>
<path d="M60.6002 178.092C60.6002 177.492 60.4002 177.092 60.0002 176.792C59.6002 176.492 58.9002 176.192 57.9002 175.892C56.9002 175.592 56.0002 175.192 55.4002 174.892C54.2002 174.192 53.6002 173.192 53.6002 171.992C53.6002 170.992 54.0002 170.092 54.9002 169.392C55.7002 168.692 56.8002 168.392 58.2002 168.392C59.1002 168.392 59.9002 168.592 60.6002 168.892C61.3002 169.192 61.8002 169.692 62.2002 170.292C62.6002 170.892 62.8002 171.592 62.8002 172.292H60.6002C60.6002 171.592 60.4002 171.092 60.0002 170.692C59.6002 170.292 59.0002 170.092 58.2002 170.092C57.5002 170.092 56.9002 170.292 56.5002 170.592C56.1002 170.892 55.9002 171.292 55.9002 171.892C55.9002 172.392 56.1002 172.792 56.6002 173.092C57.0002 173.392 57.8002 173.692 58.7002 173.992C59.7002 174.292 60.5002 174.592 61.1002 174.992C61.7002 175.392 62.1002 175.792 62.4002 176.292C62.7002 176.792 62.8002 177.392 62.8002 177.992C62.8002 179.092 62.4002 179.892 61.6002 180.592C60.8002 181.192 59.7002 181.592 58.3002 181.592C57.4002 181.592 56.5002 181.392 55.7002 181.092C54.9002 180.792 54.3002 180.292 53.9002 179.692C53.5002 179.092 53.2002 178.392 53.2002 177.592H55.4002C55.4002 178.292 55.6002 178.892 56.1002 179.292C56.6002 179.692 57.3002 179.892 58.2002 179.892C59.0002 179.892 59.6002 179.692 59.9002 179.392C60.4002 178.992 60.6002 178.592 60.6002 178.092Z" fill="white"/>
<path d="M77.2 170.292H73.2V181.292H71V170.292H67V168.492H77.2V170.292Z" fill="white"/>
<path d="M86.7 176.392H84.2V181.292H82V168.492H86.5C88 168.492 89.1 168.792 89.9 169.492C90.7 170.192 91.1 171.092 91.1 172.392C91.1 173.292 90.9 173.992 90.5 174.592C90.1 175.192 89.5 175.592 88.8 175.892L91.7 181.192V181.292H89.3L86.7 176.392ZM84.3 174.592H86.6C87.4 174.592 87.9 174.392 88.4 173.992C88.8 173.592 89 173.092 89 172.392C89 171.692 88.8 171.192 88.4 170.792C88 170.392 87.4 170.192 86.7 170.192H84.4L84.3 174.592Z" fill="white"/>
<path d="M98.8001 181.192H96.6001V168.392H98.8001V181.192Z" fill="white"/>
<path d="M111.9 178.192H106.9L105.9 181.192H103.6L108.4 168.392H110.4L115.3 181.192H113L111.9 178.192ZM107.5 176.392H111.2L109.3 171.092L107.5 176.392Z" fill="white"/>
<path d="M122.1 179.392H127.9V181.192H119.9V168.392H122.1V179.392Z" fill="white"/>
<path d="M146.5 177.792C146.5 177.192 146.3 176.792 145.9 176.492C145.5 176.192 144.8 175.892 143.8 175.592C142.8 175.292 141.9 174.892 141.3 174.592C140.1 173.892 139.5 172.892 139.5 171.692C139.5 170.692 139.9 169.792 140.8 169.092C141.6 168.392 142.7 168.092 144.1 168.092C145 168.092 145.8 168.292 146.5 168.592C147.2 168.892 147.7 169.392 148.1 169.992C148.5 170.592 148.7 171.292 148.7 171.992H146.5C146.5 171.292 146.3 170.792 145.9 170.392C145.5 169.992 144.9 169.792 144.1 169.792C143.4 169.792 142.8 169.992 142.4 170.292C142 170.592 141.8 170.992 141.8 171.592C141.8 172.092 142 172.492 142.5 172.792C142.9 173.092 143.7 173.392 144.6 173.692C145.6 173.992 146.4 174.292 147 174.692C147.6 175.092 148 175.492 148.3 175.992C148.6 176.492 148.7 177.092 148.7 177.692C148.7 178.792 148.3 179.592 147.5 180.292C146.7 180.892 145.6 181.292 144.2 181.292C143.3 181.292 142.4 181.092 141.6 180.792C140.8 180.492 140.2 179.992 139.8 179.392C139.4 178.792 139.1 178.092 139.1 177.292H141.3C141.3 177.992 141.5 178.592 142 178.992C142.5 179.392 143.2 179.592 144.1 179.592C144.9 179.592 145.5 179.392 145.8 179.092C146.3 178.692 146.5 178.292 146.5 177.792Z" fill="white"/>
<path d="M161.3 175.292H156V179.192H162.2V180.992H153.8V168.192H162.1V169.992H156V173.492H161.3V175.292Z" fill="white"/>
<path d="M171.8 176.092H169.3V180.992H167.1V168.192H171.6C173.1 168.192 174.2 168.492 175 169.192C175.8 169.892 176.2 170.792 176.2 172.092C176.2 172.992 176 173.692 175.6 174.292C175.2 174.892 174.6 175.292 173.9 175.592L176.8 180.892V180.992H174.4L171.8 176.092ZM169.3 174.292H171.6C172.4 174.292 172.9 174.092 173.4 173.692C173.8 173.292 174 172.792 174 172.092C174 171.392 173.8 170.892 173.4 170.492C173 170.092 172.4 169.892 171.7 169.892H169.4L169.3 174.292Z" fill="white"/>
<path d="M185.9 178.192L189.1 168.192H191.5L186.9 180.992H184.7L180.1 168.192H182.5L185.9 178.192Z" fill="white"/>
<path d="M198.5 180.892H196.3V168.092H198.5V180.892Z" fill="white"/>
<path d="M214.2 176.692C214.1 178.092 213.6 179.092 212.7 179.892C211.8 180.692 210.7 181.092 209.2 181.092C208.2 181.092 207.3 180.892 206.5 180.392C205.7 179.892 205.1 179.192 204.7 178.292C204.3 177.392 204.1 176.392 204 175.192V173.992C204 172.792 204.2 171.692 204.6 170.792C205 169.892 205.6 169.192 206.4 168.692C207.2 168.192 208.1 167.892 209.2 167.892C210.6 167.892 211.8 168.292 212.6 168.992C213.5 169.792 214 170.792 214.1 172.192H211.9C211.8 171.292 211.5 170.592 211.1 170.192C210.7 169.792 210 169.592 209.2 169.592C208.2 169.592 207.5 169.992 207 170.692C206.5 171.392 206.2 172.392 206.2 173.792V174.892C206.2 176.292 206.5 177.292 207 178.092C207.5 178.792 208.2 179.192 209.2 179.192C210.1 179.192 210.7 178.992 211.2 178.592C211.6 178.192 211.9 177.592 212 176.592L214.2 176.692Z" fill="white"/>
<path d="M226.8 175.092H221.5V178.992H227.7V180.792H219.3V167.992H227.6V169.792H221.5V173.292H226.8V175.092Z" fill="white"/>
<path d="M272.6 178.092C272.6 177.492 272.4 177.092 272 176.792C271.6 176.492 270.9 176.192 269.9 175.892C268.9 175.592 268 175.192 267.4 174.892C266.2 174.192 265.6 173.192 265.6 171.992C265.6 170.992 266 170.092 266.9 169.392C267.7 168.692 268.8 168.392 270.2 168.392C271.1 168.392 271.9 168.592 272.6 168.892C273.3 169.192 273.8 169.692 274.2 170.292C274.6 170.892 274.8 171.592 274.8 172.292H272.6C272.6 171.592 272.4 171.092 272 170.692C271.6 170.292 271 170.092 270.2 170.092C269.5 170.092 268.9 170.292 268.5 170.592C268.1 170.892 267.9 171.292 267.9 171.892C267.9 172.392 268.1 172.792 268.6 173.092C269 173.392 269.8 173.692 270.7 173.992C271.7 174.292 272.5 174.592 273.1 174.992C273.7 175.392 274.1 175.792 274.4 176.292C274.7 176.792 274.8 177.392 274.8 177.992C274.8 179.092 274.4 179.892 273.6 180.592C272.8 181.192 271.7 181.592 270.3 181.592C269.4 181.592 268.5 181.392 267.7 181.092C266.9 180.792 266.3 180.292 265.9 179.692C265.5 179.092 265.2 178.392 265.2 177.592H267.4C267.4 178.292 267.6 178.892 268.1 179.292C268.6 179.692 269.3 179.892 270.2 179.892C271 179.892 271.6 179.692 271.9 179.392C272.4 178.992 272.6 178.592 272.6 178.092Z" fill="white"/>
<path d="M290.2 175.292C290.2 176.592 290 177.692 289.6 178.592C289.2 179.492 288.6 180.292 287.7 180.792C286.9 181.292 286 181.592 284.9 181.592C283.9 181.592 282.9 181.392 282.1 180.792C281.3 180.292 280.7 179.592 280.2 178.592C279.8 177.692 279.5 176.592 279.5 175.392V174.692C279.5 173.492 279.7 172.292 280.2 171.392C280.6 170.392 281.3 169.692 282.1 169.192C282.9 168.692 283.8 168.392 284.9 168.392C285.9 168.392 286.9 168.592 287.7 169.092C288.5 169.592 289.1 170.292 289.6 171.292C290 172.192 290.3 173.292 290.3 174.592L290.2 175.292ZM287.9 174.592C287.9 173.192 287.6 172.092 287.1 171.292C286.6 170.492 285.8 170.192 284.8 170.192C283.8 170.192 283.1 170.592 282.5 171.292C282 172.092 281.7 173.092 281.7 174.492V175.192C281.7 176.592 282 177.692 282.5 178.492C283.1 179.292 283.8 179.592 284.8 179.592C285.8 179.592 286.5 179.192 287.1 178.492C287.6 177.692 287.9 176.592 287.9 175.192V174.592Z" fill="white"/>
<path d="M297.8 179.592H303.6V181.392H295.6V168.592H297.8V179.592Z" fill="white"/>
<path d="M317.6 168.492V177.092C317.6 178.492 317.2 179.492 316.3 180.292C315.4 181.092 314.3 181.492 312.8 181.492C311.3 181.492 310.2 181.092 309.3 180.292C308.4 179.492 308 178.392 308 176.992V168.392H310.2V176.992C310.2 177.892 310.4 178.492 310.9 178.992C311.3 179.492 312 179.692 312.8 179.692C314.5 179.692 315.4 178.792 315.4 176.992V168.492H317.6Z" fill="white"/>
<path d="M332.4 170.192H328.4V181.192H326.2V170.192H322.2V168.392H332.4V170.192Z" fill="white"/>
<path d="M339.6 181.192H337.4V168.392H339.6V181.192Z" fill="white"/>
<path d="M355.7 175.092C355.7 176.392 355.5 177.492 355.1 178.392C354.7 179.292 354.1 180.092 353.2 180.592C352.4 181.092 351.5 181.392 350.4 181.392C349.4 181.392 348.4 181.192 347.6 180.592C346.8 180.092 346.2 179.392 345.7 178.392C345.3 177.492 345 176.392 345 175.192V174.492C345 173.292 345.2 172.092 345.7 171.192C346.1 170.192 346.8 169.492 347.6 168.992C348.4 168.492 349.3 168.192 350.4 168.192C351.4 168.192 352.4 168.392 353.2 168.892C354 169.392 354.6 170.092 355.1 171.092C355.5 171.992 355.8 173.092 355.8 174.392L355.7 175.092ZM353.5 174.392C353.5 172.992 353.2 171.892 352.7 171.092C352.2 170.292 351.4 169.992 350.4 169.992C349.4 169.992 348.7 170.392 348.1 171.092C347.6 171.892 347.3 172.892 347.3 174.292V174.992C347.3 176.392 347.6 177.492 348.1 178.292C348.7 179.092 349.4 179.392 350.4 179.392C351.4 179.392 352.1 178.992 352.7 178.292C353.2 177.492 353.5 176.392 353.5 174.992V174.392Z" fill="white"/>
<path d="M371.2 181.092H369L363.3 171.992V181.092H361.1V168.292H363.3L369.1 177.392V168.292H371.3L371.2 181.092Z" fill="white"/>
<path d="M383.7 177.792C383.7 177.192 383.5 176.792 383.1 176.492C382.7 176.192 382 175.892 381 175.592C380 175.292 379.1 174.892 378.5 174.592C377.3 173.892 376.7 172.892 376.7 171.692C376.7 170.692 377.1 169.792 378 169.092C378.8 168.392 379.9 168.092 381.3 168.092C382.2 168.092 383 168.292 383.7 168.592C384.4 168.892 384.9 169.392 385.3 169.992C385.7 170.592 385.9 171.292 385.9 171.992H383.7C383.7 171.292 383.5 170.792 383.1 170.392C382.7 169.992 382.1 169.792 381.3 169.792C380.6 169.792 380 169.992 379.6 170.292C379.2 170.592 379 170.992 379 171.592C379 172.092 379.2 172.492 379.7 172.792C380.1 173.092 380.9 173.392 381.8 173.692C382.8 173.992 383.6 174.292 384.2 174.692C384.8 175.092 385.2 175.492 385.5 175.992C385.8 176.492 385.9 177.092 385.9 177.692C385.9 178.792 385.5 179.592 384.7 180.292C383.9 180.892 382.8 181.292 381.4 181.292C380.5 181.292 379.6 181.092 378.8 180.792C378 180.492 377.4 179.992 377 179.392C376.6 178.792 376.3 178.092 376.3 177.292H378.5C378.5 177.992 378.7 178.592 379.2 178.992C379.7 179.392 380.4 179.592 381.3 179.592C382.1 179.592 382.7 179.392 383 179.092C383.5 178.692 383.7 178.292 383.7 177.792Z" fill="white"/>
</svg>
