<svg width="88" height="88" viewBox="0 0 88 88" fill="none" xmlns="http://www.w3.org/2000/svg">
<g clip-path="url(#clip0_144_940)">
<path d="M52.6572 88C52.5582 88 52.4518 87.9963 52.3528 87.989C51.2198 87.901 50.1858 87.3217 49.5148 86.405L45.0855 80.3293C44.9975 80.2083 44.8802 80.0947 44.7518 79.9993L38.2545 75.2143C37.3378 74.536 36.7658 73.4983 36.6778 72.3653C36.5935 71.2323 37.0042 70.1213 37.8108 69.3183C38.9988 68.123 40.7662 67.793 42.3135 68.4713L47.0802 70.554L56.9802 59.884L57.8382 57.706L56.9802 59.3267L39.6588 50.16C38.4965 49.4597 37.7888 48.3707 37.6385 47.124C37.4845 45.8773 37.9062 44.649 38.7972 43.758C39.6698 42.8817 40.9275 42.5223 42.1338 42.779L67.3238 48.114C67.4705 48.147 67.6135 48.1067 67.7088 48.0003L76.7435 38.401C77.7518 37.3303 79.4385 36.7033 81.3782 36.674C83.4865 36.5603 85.2318 37.2717 86.3172 38.3533C87.3988 39.435 88.0295 41.2793 88.0002 43.2923C87.9708 45.232 87.3402 46.9223 86.2695 47.9307L76.6482 57.002C76.5382 57.1047 76.4942 57.2477 76.5272 57.3833L82.3205 82.874C82.6102 84.095 82.2472 85.3673 81.3562 86.2657C80.4725 87.153 79.2698 87.5893 78.0048 87.428C76.7618 87.2813 75.6728 86.5883 75.0202 85.5213L65.3768 67.6903L63.5728 66.352L64.8232 67.694L54.1752 77.5903L56.2578 82.3643C56.9325 83.9117 56.5988 85.6753 55.4108 86.8633C54.6738 87.593 53.6875 88 52.6572 88ZM65.0835 63.921C65.2668 63.921 65.4538 63.932 65.6372 63.9577C66.8472 64.1227 67.9068 64.812 68.5485 65.8533L78.1918 83.6843L80.0582 84.964L78.7602 83.6697L72.9595 58.212C72.6222 56.8113 73.0768 55.3117 74.1438 54.318L83.7578 45.2577C84.0218 45.0047 84.3188 44.264 84.3335 43.2337C84.3482 42.1447 84.0402 41.2573 83.7248 40.942C83.4058 40.6267 82.5075 40.2857 81.4332 40.3333C80.4065 40.348 79.6695 40.6413 79.4165 40.909L70.3855 50.501C69.4138 51.5423 67.9398 51.9933 66.5502 51.689L41.3602 46.354L40.5168 48.5283L41.3748 46.9077L58.6962 56.0743C59.8365 56.76 60.5332 57.8197 60.7092 59.0333C60.8815 60.2507 60.5002 61.4643 59.6678 62.3663L48.8805 73.9897C48.3488 74.5617 47.5202 74.7377 46.8052 74.4223L40.8432 71.819C40.7002 71.7567 40.5205 71.786 40.4068 71.8997L46.9372 77.0367C47.3625 77.352 47.7365 77.726 48.0482 78.1513L52.4848 84.2343C52.9358 84.1463 52.9688 83.9667 52.8992 83.8163L50.2995 77.8543C49.9878 77.1393 50.1602 76.307 50.7285 75.779L62.3262 64.999C63.0852 64.3023 64.0678 63.921 65.0835 63.921Z" fill="#08449C"/>
<path d="M36.6886 38.5C36.0176 38.5 35.3722 38.1297 35.0496 37.488C34.5986 36.5823 34.9616 35.4787 35.8672 35.0277L70.6786 17.611C71.2432 17.325 71.9252 17.3543 72.4606 17.6917C73.0032 18.0253 73.3332 18.6157 73.3332 19.25V34.8333C73.3332 35.8453 72.5119 36.6667 71.4999 36.6667C70.4879 36.6667 69.6666 35.8453 69.6666 34.8333V22.2163L37.5062 38.3057C37.2459 38.4377 36.9636 38.5 36.6886 38.5Z" fill="#FC5220"/>
<path d="M31.515 71.5C31.2107 71.5 30.9063 71.4267 30.624 71.269L0.942333 54.769C0.363 54.4464 0 53.834 0 53.1667V19.25C0 18.6157 0.33 18.0254 0.869 17.6917C1.408 17.358 2.08267 17.3287 2.651 17.611L37.4623 35.0277C38.368 35.4824 38.7347 36.5824 38.2837 37.488C37.829 38.3974 36.7253 38.7604 35.8233 38.3094L3.66667 22.2164V52.0887L32.406 68.0644C33.2897 68.5557 33.6087 69.6704 33.1173 70.5577C32.78 71.159 32.1567 71.5 31.515 71.5Z" fill="#FC5220"/>
<path d="M71.4998 21.0833C71.2248 21.0833 70.9461 21.021 70.6784 20.889L36.6444 3.883L2.65444 20.889C1.75611 21.3363 0.648773 20.977 0.194107 20.0713C-0.256893 19.1657 0.106107 18.062 1.01177 17.611L35.8231 0.194331C36.3401 -0.0623356 36.9488 -0.0623356 37.4621 0.194331L72.3174 17.611C73.2231 18.0657 73.5898 19.1657 73.1388 20.0713C72.8161 20.713 72.1708 21.0833 71.4998 21.0833Z" fill="#FC5220"/>
<path d="M18.491 43.043C17.479 43.043 16.6577 42.2217 16.6577 41.2097V27.577C16.6577 26.884 17.05 26.2497 17.6697 25.938L52.481 8.52134C53.3757 8.07401 54.4867 8.43701 54.9414 9.34267C55.3924 10.2483 55.0257 11.3483 54.1201 11.803L20.3244 28.7137V41.2133C20.3244 42.2253 19.503 43.043 18.491 43.043Z" fill="#FC5220"/>
</g>
<defs>
<clipPath id="clip0_144_940">
<rect width="88" height="88" fill="white"/>
</clipPath>
</defs>
</svg>
