<svg width="88" height="88" viewBox="0 0 88 88" fill="none" xmlns="http://www.w3.org/2000/svg">
<path d="M86.5341 38.1333H86.5333H80.6667V13.5291C83.8979 11.1069 84.5537 6.52392 82.1315 3.29267C79.7093 0.0614165 75.1263 -0.594367 71.8951 1.82783C70.1934 3.10347 69.1313 5.0567 68.9859 7.17842L29.3333 3.07652V1.46667C29.3335 0.656883 28.6772 0.000183372 27.8674 3.83985e-08H27.8667H19.0667C18.2569 -0.000183295 17.6002 0.65615 17.6 1.46593V1.46667V8.8C17.5998 9.60978 18.2562 10.2665 19.0659 10.2667H19.0667H22V14.6667C21.9998 15.4764 22.6562 16.1332 23.4659 16.1333H23.4667H24.2C26.2251 16.1333 27.8667 17.7749 27.8667 19.8C27.8667 21.8251 26.2251 23.4667 24.2 23.4667C22.1749 23.4667 20.5333 21.8251 20.5333 19.8H17.6C17.607 21.818 18.5416 23.7206 20.1346 24.9596L2.58665 33.7333H1.46667C0.656883 33.7332 0.000183372 34.3895 3.83985e-08 35.1993V35.2V55.7333C-0.000183295 56.5431 0.65615 57.1998 1.46593 57.2H1.46667H45.4667C46.2765 57.2002 46.9332 56.5438 46.9333 55.7341V55.7333V35.2C46.9335 34.3902 46.2772 33.7335 45.4674 33.7333H45.4667H42.9042L27.54 25.4602C30.6772 23.6274 31.7345 19.5987 29.9017 16.4615C28.8497 14.661 27.0065 13.4657 24.9333 13.24V10.2667H27.8667C28.6765 10.2669 29.3332 9.61052 29.3333 8.80073V8.8V6.0269L69.3922 10.171C69.8742 11.5066 70.7338 12.6733 71.8667 13.5293V38.1333H58.6667C57.8569 38.1332 57.2002 38.7895 57.2 39.5993V39.6V60.1333H54.2667C53.4569 60.1332 52.8002 60.7895 52.8 61.5993V61.6V86.5333C52.7998 87.3431 53.4562 87.9998 54.2659 88H54.2667H86.5333C87.3431 88.0002 87.9998 87.3438 88 86.5341V86.5333V39.6C88.0002 38.7902 87.3438 38.1335 86.5341 38.1333ZM44 36.6667V54.2667H2.93333V36.6667H44ZM36.7149 33.7333H9.14687L23.4417 26.5863L36.7149 33.7333ZM26.4 7.33333H20.5333V2.93333H26.4V7.33333ZM76.2667 3.3C78.6968 3.3 80.6667 5.26992 80.6667 7.7C80.6667 10.1301 78.6968 12.1 76.2667 12.1C73.8366 12.1 71.8667 10.1301 71.8667 7.7C71.8692 5.27102 73.8377 3.30257 76.2667 3.3ZM79.2 47.1317L84.0855 51.203L79.2 54.4597V47.1317ZM84.0855 64.403L79.2 67.6597V60.3319L84.0855 64.403ZM84.0855 77.603L79.2 80.8597V73.5319L84.0855 77.603ZM76.2667 85.0667H55.7333V63.0667H76.2667V85.0667ZM76.2667 60.1333H60.1333V41.0667H76.2667V60.1333ZM77.7333 38.1333H74.8V14.885C75.7678 15.0827 76.7655 15.0827 77.7333 14.885V38.1333ZM85.0667 85.0667H79.2V84.3848L85.0667 80.4738V85.0667ZM85.0667 74.6014L80.1812 70.5302L85.0667 67.2736V74.6014ZM85.0667 61.4015L80.1812 57.3302L85.0667 54.0736V61.4015ZM85.0667 48.2015L79.2 43.3125V41.0667H85.0667V48.2015Z" fill="#FC5220"/>
</svg>
