<svg width="130" height="40" viewBox="0 0 130 40" fill="none" xmlns="http://www.w3.org/2000/svg">
<g opacity="0.84">
<path fill-rule="evenodd" clip-rule="evenodd" d="M16.6667 36.6663C25.8714 36.6663 33.3333 29.2044 33.3333 19.9997C33.3333 10.7949 25.8714 3.33301 16.6667 3.33301C7.4619 3.33301 0 10.7949 0 19.9997C0 29.2044 7.4619 36.6663 16.6667 36.6663ZM21.8661 11.097C22.1192 10.1981 21.2468 9.66645 20.45 10.2341L9.32759 18.1577C8.46351 18.7732 8.59943 19.9997 9.53176 19.9997H12.4606V19.977H18.1688L13.5177 21.6181L11.4673 28.9023C11.2142 29.8013 12.0865 30.3329 12.8833 29.7652L24.0058 21.8417C24.8698 21.2262 24.7338 19.9997 23.8016 19.9997H19.3601L21.8661 11.097Z" fill="#070707"/>
</g>
<g opacity="0.84">
<path d="M107.497 14.0598C107.871 14.4021 108.322 14.5732 108.851 14.5732C109.395 14.5732 109.846 14.4021 110.204 14.0598C110.562 13.7176 110.741 13.2665 110.741 12.7065C110.741 12.1465 110.562 11.6954 110.204 11.3532C109.846 11.011 109.395 10.8398 108.851 10.8398C108.322 10.8398 107.871 11.011 107.497 11.3532C107.14 11.6954 106.961 12.1465 106.961 12.7065C106.961 13.2665 107.14 13.7176 107.497 14.0598Z" fill="#070707"/>
<path fill-rule="evenodd" clip-rule="evenodd" d="M51.6537 26.9865C50.9225 27.3287 50.067 27.4998 49.087 27.4998H41.667V11.1665H48.9937C49.9892 11.1665 50.8525 11.3376 51.5837 11.6798C52.3303 12.0065 52.9059 12.481 53.3103 13.1032C53.7303 13.7098 53.9403 14.441 53.9403 15.2965V15.5298C53.9403 16.2765 53.8003 16.891 53.5203 17.3732C53.2403 17.8398 52.9059 18.2054 52.517 18.4698C52.1437 18.7187 51.7859 18.8976 51.4437 19.0065V19.4265C51.7859 19.5198 52.1592 19.6987 52.5637 19.9632C52.9681 20.2121 53.3103 20.5776 53.5903 21.0598C53.8859 21.5421 54.0337 22.1721 54.0337 22.9498V23.1832C54.0337 24.0854 53.8237 24.8632 53.4037 25.5165C52.9837 26.1543 52.4003 26.6443 51.6537 26.9865ZM50.347 21.1765C49.9425 20.8498 49.3981 20.6865 48.7137 20.6865H44.747V24.6998H48.7137C49.3825 24.6998 49.9192 24.5365 50.3237 24.2098C50.7437 23.8832 50.9537 23.4165 50.9537 22.8098V22.5765C50.9537 21.9698 50.7514 21.5032 50.347 21.1765ZM50.2537 14.4565C49.8492 14.1298 49.3203 13.9665 48.667 13.9665H44.747V17.8865H48.667C49.3048 17.8865 49.8259 17.7232 50.2303 17.3965C50.6503 17.0698 50.8603 16.6187 50.8603 16.0432V15.8098C50.8603 15.2187 50.6581 14.7676 50.2537 14.4565Z" fill="#070707"/>
<path fill-rule="evenodd" clip-rule="evenodd" d="M60.9799 27.8265C59.8288 27.8265 58.7943 27.5932 57.8765 27.1265C56.9588 26.6598 56.2354 25.9832 55.7065 25.0965C55.1777 24.2098 54.9132 23.1443 54.9132 21.8998V21.5265C54.9132 20.2821 55.1777 19.2165 55.7065 18.3298C56.2354 17.4432 56.9588 16.7665 57.8765 16.2998C58.7943 15.8332 59.8288 15.5998 60.9799 15.5998C62.131 15.5998 63.1654 15.8332 64.0832 16.2998C65.001 16.7665 65.7243 17.4432 66.2532 18.3298C66.7821 19.2165 67.0465 20.2821 67.0465 21.5265V21.8998C67.0465 23.1443 66.7821 24.2098 66.2532 25.0965C65.7243 25.9832 65.001 26.6598 64.0832 27.1265C63.1654 27.5932 62.131 27.8265 60.9799 27.8265ZM60.9799 25.2132C61.8821 25.2132 62.6288 24.9254 63.2199 24.3498C63.811 23.7587 64.1065 22.9187 64.1065 21.8298V21.5965C64.1065 20.5076 63.811 19.6754 63.2199 19.0998C62.6443 18.5087 61.8977 18.2132 60.9799 18.2132C60.0777 18.2132 59.331 18.5087 58.7399 19.0998C58.1488 19.6754 57.8532 20.5076 57.8532 21.5965V21.8298C57.8532 22.9187 58.1488 23.7587 58.7399 24.3498C59.331 24.9254 60.0777 25.2132 60.9799 25.2132Z" fill="#070707"/>
<path d="M78.0582 27.4998C77.296 27.4998 76.6738 27.2665 76.1916 26.7998C75.7249 26.3176 75.4916 25.6798 75.4916 24.8865V18.3532H72.5982V15.9265H75.4916V12.3332H78.4316V15.9265H81.6049V18.3532H78.4316V24.3732C78.4316 24.8398 78.6493 25.0732 79.0849 25.0732H81.3249V27.4998H78.0582Z" fill="#070707"/>
<path d="M84.1962 26.8465C85.1606 27.4998 86.3973 27.8265 87.9062 27.8265C89.384 27.8265 90.5584 27.4998 91.4295 26.8465C92.3162 26.1776 92.7595 25.2365 92.7595 24.0232C92.7595 23.2143 92.5495 22.5765 92.1295 22.1098C91.7251 21.6276 91.1651 21.2621 90.4495 21.0132C89.7495 20.7487 88.964 20.5387 88.0928 20.3832L87.4395 20.2665C86.9106 20.1732 86.4906 20.041 86.1795 19.8698C85.8684 19.6832 85.7128 19.4032 85.7128 19.0298C85.7128 18.6876 85.8606 18.4232 86.1562 18.2365C86.4517 18.0343 86.8795 17.9332 87.4395 17.9332C87.9995 17.9332 88.4662 18.0576 88.8395 18.3065C89.2284 18.5554 89.4851 18.9754 89.6095 19.5665L92.3395 18.7265C92.0751 17.7932 91.5151 17.0387 90.6595 16.4632C89.804 15.8876 88.7306 15.5998 87.4395 15.5998C86.0706 15.5998 84.9662 15.911 84.1262 16.5332C83.2862 17.1398 82.8662 18.0187 82.8662 19.1698C82.8662 19.9321 83.0684 20.5543 83.4728 21.0365C83.8773 21.5187 84.414 21.8998 85.0828 22.1798C85.7517 22.4443 86.4906 22.6543 87.2995 22.8098L87.9528 22.9265C88.6373 23.051 89.1351 23.2143 89.4462 23.4165C89.7573 23.6032 89.9128 23.8754 89.9128 24.2332C89.9128 24.591 89.7495 24.8943 89.4228 25.1432C89.0962 25.3765 88.5906 25.4932 87.9062 25.4932C87.4551 25.4932 87.0351 25.431 86.6462 25.3065C86.2728 25.1665 85.954 24.941 85.6895 24.6298C85.4406 24.3187 85.2617 23.891 85.1528 23.3465L82.4462 24.0465C82.6484 25.2598 83.2317 26.1932 84.1962 26.8465Z" fill="#070707"/>
<path d="M97.8558 19.1232C97.3581 19.7143 97.1092 20.5465 97.1092 21.6198V27.4998H94.1692V11.1665H97.1092V17.3498H97.5292C97.6536 17.101 97.8481 16.8521 98.1125 16.6032C98.377 16.3543 98.727 16.1521 99.1625 15.9965C99.6136 15.8254 100.181 15.7398 100.866 15.7398C101.768 15.7398 102.554 15.9498 103.223 16.3698C103.907 16.7743 104.436 17.3421 104.809 18.0732C105.182 18.7887 105.369 19.6287 105.369 20.5932V27.4998H102.429V20.8265C102.429 19.9554 102.211 19.3021 101.776 18.8665C101.356 18.431 100.749 18.2132 99.9558 18.2132C99.0536 18.2132 98.3536 18.5165 97.8558 19.1232Z" fill="#070707"/>
<path d="M123.747 26.7998C123.28 26.3176 123.047 25.6798 123.047 24.8865V18.3532H117.265V27.4998H114.325V18.3532H111.385V15.9265H114.325V13.7798C114.325 12.9865 114.559 12.3565 115.025 11.8898C115.508 11.4076 116.13 11.1665 116.892 11.1665H119.925V13.5932H117.919C117.483 13.5932 117.265 13.8265 117.265 14.2932V15.9265H123.047V12.3332H125.987V15.9265H129.16V18.3532H125.987V24.3732C125.987 24.8398 126.205 25.0732 126.64 25.0732H128.88V27.4998H125.614C124.851 27.4998 124.229 27.2665 123.747 26.7998Z" fill="#070707"/>
<path d="M107.381 15.9265V27.4998H110.321V15.9265H107.381Z" fill="#070707"/>
<path d="M68.5937 11.1665V27.4998H71.5337V11.1665H68.5937Z" fill="#070707"/>
</g>
</svg>
