<svg width="170" height="40" viewBox="0 0 170 40" fill="none" xmlns="http://www.w3.org/2000/svg">
<g opacity="0.84">
<path d="M11.875 4.16699C11.875 10.7254 6.55838 16.042 0 16.042V23.9587H11.875V35.8337H19.7917C19.7917 29.2753 25.1083 23.9587 31.6667 23.9587V16.042H19.7917V4.16699H11.875Z" fill="#070707"/>
</g>
<g opacity="0.84">
<path d="M46.833 27.8C45.0663 27.8 43.5497 27.425 42.283 26.675C41.0163 25.9083 40.0413 24.85 39.358 23.5C38.6747 22.1333 38.333 20.5583 38.333 18.775C38.333 16.9917 38.6747 15.4167 39.358 14.05C40.0413 12.6833 41.0163 11.6167 42.283 10.85C43.5497 10.0833 45.0663 9.7 46.833 9.7C48.933 9.7 50.6497 10.225 51.983 11.275C53.333 12.3083 54.1747 13.7667 54.508 15.65H50.983C50.7663 14.7 50.2997 13.9583 49.583 13.425C48.883 12.875 47.9497 12.6 46.783 12.6C45.1663 12.6 43.8997 13.15 42.983 14.25C42.0663 15.35 41.608 16.8583 41.608 18.775C41.608 20.6917 42.0663 22.2 42.983 23.3C43.8997 24.3833 45.1663 24.925 46.783 24.925C47.9497 24.925 48.883 24.675 49.583 24.175C50.2997 23.6583 50.7663 22.95 50.983 22.05H54.508C54.1747 23.85 53.333 25.2583 51.983 26.275C50.6497 27.2917 48.933 27.8 46.833 27.8Z" fill="#070707"/>
<path d="M55.7656 27.5V9.5H58.9656V27.5H55.7656Z" fill="#070707"/>
<path d="M66.4353 27.8C65.2687 27.8 64.227 27.5167 63.3103 26.95C62.3937 26.3833 61.6687 25.6083 61.1353 24.625C60.602 23.6417 60.3353 22.525 60.3353 21.275C60.3353 20.025 60.602 18.9167 61.1353 17.95C61.6687 16.9667 62.3937 16.2 63.3103 15.65C64.227 15.0833 65.2687 14.8 66.4353 14.8C67.3687 14.8 68.1853 14.975 68.8853 15.325C69.5853 15.675 70.152 16.1667 70.5853 16.8L70.7603 15.1H73.7853V27.5H70.7853L70.5853 25.725C70.1853 26.275 69.652 26.7583 68.9853 27.175C68.3353 27.5917 67.4853 27.8 66.4353 27.8ZM67.1103 25C68.1437 25 68.9853 24.6583 69.6353 23.975C70.302 23.275 70.6353 22.3833 70.6353 21.3C70.6353 20.2167 70.302 19.3333 69.6353 18.65C68.9853 17.95 68.1437 17.6 67.1103 17.6C66.0937 17.6 65.252 17.9417 64.5853 18.625C63.9187 19.3083 63.5853 20.1917 63.5853 21.275C63.5853 22.3583 63.9187 23.25 64.5853 23.95C65.252 24.65 66.0937 25 67.1103 25Z" fill="#070707"/>
<path d="M75.5439 27.5V15.1H78.3689L78.6189 17.2C79.0023 16.4667 79.5523 15.8833 80.2689 15.45C81.0023 15.0167 81.8606 14.8 82.8439 14.8C84.3773 14.8 85.5689 15.2833 86.4189 16.25C87.2689 17.2167 87.6939 18.6333 87.6939 20.5V27.5H84.4939V20.8C84.4939 19.7333 84.2773 18.9167 83.8439 18.35C83.4106 17.7833 82.7356 17.5 81.8189 17.5C80.9189 17.5 80.1773 17.8167 79.5939 18.45C79.0273 19.0833 78.7439 19.9667 78.7439 21.1V27.5H75.5439Z" fill="#070707"/>
<path d="M94.9539 27.8C93.7872 27.8 92.7456 27.5167 91.8289 26.95C90.9122 26.3833 90.1872 25.6083 89.6539 24.625C89.1206 23.6417 88.8539 22.525 88.8539 21.275C88.8539 20.025 89.1206 18.9167 89.6539 17.95C90.1872 16.9667 90.9122 16.2 91.8289 15.65C92.7456 15.0833 93.7872 14.8 94.9539 14.8C95.8872 14.8 96.7039 14.975 97.4039 15.325C98.1039 15.675 98.6706 16.1667 99.1039 16.8V9.5H102.304V27.5H99.4539L99.1039 25.725C98.7039 26.275 98.1706 26.7583 97.5039 27.175C96.8539 27.5917 96.0039 27.8 94.9539 27.8ZM95.6289 25C96.6622 25 97.5039 24.6583 98.1539 23.975C98.8206 23.275 99.1539 22.3833 99.1539 21.3C99.1539 20.2167 98.8206 19.3333 98.1539 18.65C97.5039 17.95 96.6622 17.6 95.6289 17.6C94.6122 17.6 93.7706 17.9417 93.1039 18.625C92.4372 19.3083 92.1039 20.1917 92.1039 21.275C92.1039 22.3583 92.4372 23.25 93.1039 23.95C93.7706 24.65 94.6122 25 95.6289 25Z" fill="#070707"/>
<path d="M110.087 27.8C108.837 27.8 107.729 27.5333 106.762 27C105.796 26.4667 105.037 25.7167 104.487 24.75C103.937 23.7833 103.662 22.6667 103.662 21.4C103.662 20.1167 103.929 18.975 104.462 17.975C105.012 16.975 105.762 16.2 106.712 15.65C107.679 15.0833 108.812 14.8 110.112 14.8C111.329 14.8 112.404 15.0667 113.337 15.6C114.271 16.1333 114.996 16.8667 115.512 17.8C116.046 18.7167 116.312 19.7417 116.312 20.875C116.312 21.0583 116.304 21.25 116.287 21.45C116.287 21.65 116.279 21.8583 116.262 22.075H106.837C106.904 23.0417 107.237 23.8 107.837 24.35C108.454 24.9 109.196 25.175 110.062 25.175C110.712 25.175 111.254 25.0333 111.687 24.75C112.137 24.45 112.471 24.0667 112.687 23.6H115.937C115.704 24.3833 115.312 25.1 114.762 25.75C114.229 26.3833 113.562 26.8833 112.762 27.25C111.979 27.6167 111.087 27.8 110.087 27.8ZM110.112 17.4C109.329 17.4 108.637 17.625 108.037 18.075C107.437 18.5083 107.054 19.175 106.887 20.075H113.062C113.012 19.2583 112.712 18.6083 112.162 18.125C111.612 17.6417 110.929 17.4 110.112 17.4Z" fill="#070707"/>
<path d="M122.629 27.8C121.529 27.8 120.562 27.625 119.729 27.275C118.896 26.9083 118.229 26.4083 117.729 25.775C117.229 25.1417 116.929 24.4083 116.829 23.575H120.054C120.154 24.0583 120.421 24.475 120.854 24.825C121.304 25.1583 121.879 25.325 122.579 25.325C123.279 25.325 123.787 25.1833 124.104 24.9C124.437 24.6167 124.604 24.2917 124.604 23.925C124.604 23.3917 124.371 23.0333 123.904 22.85C123.437 22.65 122.787 22.4583 121.954 22.275C121.421 22.1583 120.879 22.0167 120.329 21.85C119.779 21.6833 119.271 21.475 118.804 21.225C118.354 20.9583 117.987 20.625 117.704 20.225C117.421 19.8083 117.279 19.3 117.279 18.7C117.279 17.6 117.712 16.675 118.579 15.925C119.462 15.175 120.696 14.8 122.279 14.8C123.746 14.8 124.912 15.1417 125.779 15.825C126.662 16.5083 127.187 17.45 127.354 18.65H124.329C124.146 17.7333 123.454 17.275 122.254 17.275C121.654 17.275 121.187 17.3917 120.854 17.625C120.537 17.8583 120.379 18.15 120.379 18.5C120.379 18.8667 120.621 19.1583 121.104 19.375C121.587 19.5917 122.229 19.7917 123.029 19.975C123.896 20.175 124.687 20.4 125.404 20.65C126.137 20.8833 126.721 21.2417 127.154 21.725C127.587 22.1917 127.804 22.8667 127.804 23.75C127.821 24.5167 127.621 25.2083 127.204 25.825C126.787 26.4417 126.187 26.925 125.404 27.275C124.621 27.625 123.696 27.8 122.629 27.8Z" fill="#070707"/>
<path d="M134.273 27.5C132.973 27.5 131.931 27.1833 131.148 26.55C130.365 25.9167 129.973 24.7917 129.973 23.175V17.775H127.848V15.1H129.973L130.348 11.775H133.173V15.1H136.523V17.775H134.006C133.546 17.775 133.173 18.1481 133.173 18.6083V23.2C133.173 23.8 133.298 24.2167 133.548 24.45C133.815 24.6667 134.265 24.775 134.898 24.775H136.448V27.5H134.273Z" fill="#070707"/>
<path d="M139.495 13.175C138.912 13.175 138.429 13 138.045 12.65C137.679 12.3 137.495 11.8583 137.495 11.325C137.495 10.7917 137.679 10.3583 138.045 10.025C138.429 9.675 138.912 9.5 139.495 9.5C140.079 9.5 140.554 9.675 140.92 10.025C141.304 10.3583 141.495 10.7917 141.495 11.325C141.495 11.8583 141.304 12.3 140.92 12.65C140.554 13 140.079 13.175 139.495 13.175ZM137.895 27.5V15.1H141.095V27.5H137.895Z" fill="#070707"/>
<path d="M142.936 27.5V15.1H145.761L146.011 17.2C146.394 16.4667 146.944 15.8833 147.661 15.45C148.394 15.0167 149.252 14.8 150.236 14.8C151.769 14.8 152.961 15.2833 153.811 16.25C154.661 17.2167 155.086 18.6333 155.086 20.5V27.5H151.886V20.8C151.886 19.7333 151.669 18.9167 151.236 18.35C150.802 17.7833 150.127 17.5 149.211 17.5C148.311 17.5 147.569 17.8167 146.986 18.45C146.419 19.0833 146.136 19.9667 146.136 21.1V27.5H142.936Z" fill="#070707"/>
<path d="M162.67 27.8C161.42 27.8 160.312 27.5333 159.345 27C158.379 26.4667 157.62 25.7167 157.07 24.75C156.52 23.7833 156.245 22.6667 156.245 21.4C156.245 20.1167 156.512 18.975 157.045 17.975C157.595 16.975 158.345 16.2 159.295 15.65C160.262 15.0833 161.395 14.8 162.695 14.8C163.912 14.8 164.987 15.0667 165.92 15.6C166.854 16.1333 167.579 16.8667 168.095 17.8C168.629 18.7167 168.895 19.7417 168.895 20.875C168.895 21.0583 168.887 21.25 168.87 21.45C168.87 21.65 168.862 21.8583 168.845 22.075H159.42C159.487 23.0417 159.82 23.8 160.42 24.35C161.037 24.9 161.779 25.175 162.645 25.175C163.295 25.175 163.837 25.0333 164.27 24.75C164.72 24.45 165.054 24.0667 165.27 23.6H168.52C168.287 24.3833 167.895 25.1 167.345 25.75C166.812 26.3833 166.145 26.8833 165.345 27.25C164.562 27.6167 163.67 27.8 162.67 27.8ZM162.695 17.4C161.912 17.4 161.22 17.625 160.62 18.075C160.02 18.5083 159.637 19.175 159.47 20.075H165.645C165.595 19.2583 165.295 18.6083 164.745 18.125C164.195 17.6417 163.512 17.4 162.695 17.4Z" fill="#070707"/>
</g>
</svg>
