<svg width="174" height="40" viewBox="0 0 174 40" fill="none" xmlns="http://www.w3.org/2000/svg">
<g opacity="0.84">
<path d="M33.3263 19.5143C33.0695 10.5341 25.709 3.33301 16.6666 3.33301C13.8029 3.33301 11.108 4.05522 8.7539 5.32744L33.3263 19.5143Z" fill="#070707"/>
<path d="M6.4106 6.86129C5.72079 7.40052 5.07454 7.99289 4.478 8.63225L32.6092 24.8738C32.8621 24.0458 33.0522 23.1904 33.174 22.3131L6.4106 6.86129Z" fill="#070707"/>
<path d="M28.8554 31.3668C28.2589 32.0062 27.6127 32.5986 26.9229 33.1378L0.159241 17.6858C0.28108 16.8086 0.471198 15.9532 0.724054 15.1252L28.8554 31.3668Z" fill="#070707"/>
<path d="M30.4362 29.3927L1.64523 12.7703C2.0091 12.0156 2.42817 11.2925 2.89719 10.6063L31.6881 27.2288C31.3242 27.9834 30.9052 28.7065 30.4362 29.3927Z" fill="#070707"/>
<path d="M16.6666 36.6663C19.5304 36.6663 22.2255 35.944 24.5796 34.6717L0.00683594 20.4846C0.263416 29.4651 7.62402 36.6663 16.6666 36.6663Z" fill="#070707"/>
</g>
<g opacity="0.84">
<path d="M62.2978 20.3747C62.2978 19.1663 61.6312 18.3747 60.6312 18.3747C59.5687 18.3747 58.7353 18.958 57.8187 20.458V27.4997H49.1045C44.5837 27.4997 41.667 24.7288 41.667 20.2288C41.667 15.7288 44.5837 12.958 49.1045 12.958H52.6045V15.7705H49.1045C46.667 15.7705 45.2087 17.3955 45.2087 20.2288C45.2087 23.0622 46.667 24.6872 49.1045 24.6872H54.5687V12.083H57.8187V17.1872C58.7978 16.1038 60.0478 15.6663 61.2978 15.6663C63.9437 15.6663 65.5478 17.458 65.5478 20.1663V27.4997H62.2978V20.3747Z" fill="#070707"/>
<path d="M73.04 18.3747C73.915 18.3747 74.29 19.083 74.29 20.1663V21.7288H77.5609V20.1663C77.5609 17.208 75.9775 15.6663 73.7484 15.6663C72.5609 15.6663 71.5609 16.1872 70.7067 17.208L70.6442 15.9163H67.4984V27.4997H70.7484V20.2705C71.6025 19.0205 72.3109 18.3747 73.04 18.3747Z" fill="#070707"/>
<path fill-rule="evenodd" clip-rule="evenodd" d="M84.3188 27.7497C80.6105 27.7497 78.3605 25.4788 78.3605 21.708C78.3605 17.9372 80.6105 15.6663 84.3188 15.6663C88.0272 15.6663 90.2563 17.9372 90.2563 21.708C90.2563 25.4788 88.0272 27.7497 84.3188 27.7497ZM81.6105 21.708C81.6105 23.8538 82.6313 25.1247 84.3188 25.1247C85.9855 25.1247 87.0063 23.8538 87.0063 21.708C87.0063 19.5622 85.9855 18.2913 84.3188 18.2913C82.6313 18.2913 81.6105 19.5622 81.6105 21.708Z" fill="#070707"/>
<path d="M104.896 18.3538C106 18.3538 106.709 19.0622 106.709 20.2288V27.4997H109.959V20.2288C109.959 17.3747 108.105 15.6663 105.813 15.6663C104.021 15.6663 102.667 16.458 101.959 17.6872C101.25 16.3955 99.8963 15.6663 98.313 15.6663C97.0005 15.6663 95.7505 16.3122 94.9588 17.3122L94.8963 15.9163H91.7505V27.4997H95.0005V20.1455C95.6463 19.083 96.4796 18.3538 97.4171 18.3538C98.5005 18.3538 99.2296 19.0622 99.2296 20.2288V27.4997H102.48V20.1872C103.125 19.1038 103.959 18.3538 104.896 18.3538Z" fill="#070707"/>
<path fill-rule="evenodd" clip-rule="evenodd" d="M118.819 27.4997L118.756 26.3538C117.965 27.3538 116.735 27.7497 115.298 27.7497C113.048 27.7497 111.569 26.3122 111.569 24.2705C111.569 21.8747 113.465 20.5205 116.59 20.5205H118.715V19.7288C118.715 18.6247 117.944 17.958 116.631 17.958C115.34 17.958 114.506 18.583 114.402 19.6038H111.236C111.444 17.1663 113.527 15.6663 116.777 15.6663C119.944 15.6663 121.965 17.208 121.965 19.9372V27.4997H118.819ZM114.756 24.0622C114.756 24.6872 115.194 25.1872 116.111 25.1872C117.236 25.1872 118.09 24.6247 118.715 23.6663V22.7705L116.527 22.7913C115.444 22.7913 114.756 23.1663 114.756 24.0622Z" fill="#070707"/>
<path d="M124.734 23.333C124.734 25.7913 126.276 27.4997 128.63 27.4997H131.547V24.8747H129.922C128.505 24.8747 127.984 24.5413 127.984 23.333V18.5413H130.359V15.9163H127.984V12.083H124.734V15.9163H122.755V18.5413H124.734V23.333Z" fill="#070707"/>
<path fill-rule="evenodd" clip-rule="evenodd" d="M137.93 27.7497C134.221 27.7497 131.971 25.4788 131.971 21.708C131.971 17.9372 134.221 15.6663 137.93 15.6663C141.638 15.6663 143.867 17.9372 143.867 21.708C143.867 25.4788 141.638 27.7497 137.93 27.7497ZM135.221 21.708C135.221 23.8538 136.242 25.1247 137.93 25.1247C139.596 25.1247 140.617 23.8538 140.617 21.708C140.617 19.5622 139.596 18.2913 137.93 18.2913C136.242 18.2913 135.221 19.5622 135.221 21.708Z" fill="#070707"/>
<path fill-rule="evenodd" clip-rule="evenodd" d="M144.82 21.708C144.82 25.4788 147.07 27.7497 150.778 27.7497C154.486 27.7497 156.715 25.4788 156.715 21.708C156.715 17.9372 154.486 15.6663 150.778 15.6663C147.07 15.6663 144.82 17.9372 144.82 21.708ZM150.778 25.1247C149.09 25.1247 148.07 23.8538 148.07 21.708C148.07 19.5622 149.09 18.2913 150.778 18.2913C152.445 18.2913 153.465 19.5622 153.465 21.708C153.465 23.8538 152.445 25.1247 150.778 25.1247Z" fill="#070707"/>
<path d="M162.863 23.3538C162.905 26.083 164.863 27.7497 168.051 27.7497C171.051 27.7497 172.863 26.333 172.863 23.9788C172.863 21.1156 170.494 20.6671 168.611 20.3109C167.371 20.0761 166.342 19.8814 166.342 19.0622C166.342 18.3955 166.884 18.0205 167.801 18.0205C168.884 18.0205 169.592 18.583 169.655 19.6038H172.655C172.446 17.1247 170.801 15.6663 167.905 15.6663C165.051 15.6663 163.113 16.9997 163.113 19.2705C163.113 21.9893 165.45 22.5355 167.326 22.974C168.583 23.268 169.634 23.5135 169.634 24.333C169.634 24.9997 169.03 25.3955 168.051 25.3955C166.634 25.3955 165.801 24.6247 165.863 23.3538H162.863Z" fill="#070707"/>
<path d="M158.23 27.4997V12.083H161.48V27.4997H158.23Z" fill="#070707"/>
</g>
</svg>
