<svg width="119" height="40" viewBox="0 0 119 40" fill="none" xmlns="http://www.w3.org/2000/svg">
<g opacity="0.84">
<path d="M23.8708 32.6397C23.3682 33.7567 22.7433 34.8506 21.9942 35.797C28.2093 33.7022 32.7845 28.0425 33.2882 21.2497H31.0758C28.3759 21.2497 26.2071 23.4047 25.7682 26.0688C25.3637 28.5244 24.7165 30.7605 23.8708 32.6397Z" fill="#070707"/>
<path d="M18.9773 21.2497C21.8041 21.2497 24.1165 23.6079 23.5972 26.3866C22.4695 32.4219 19.7917 36.6663 16.6677 36.6663C12.7148 36.6663 9.4761 29.8706 9.18846 21.2497H18.9773Z" fill="#070707"/>
<path d="M25.8257 14.2915C26.2391 16.9804 28.4179 19.1663 31.1384 19.1663H33.3139C32.9703 12.189 28.336 6.33981 21.9942 4.20232C22.7433 5.14877 23.3682 6.24267 23.8708 7.35963C24.7577 9.3305 25.4263 11.6939 25.8257 14.2915Z" fill="#070707"/>
<path d="M23.6807 14.0794C24.1536 16.8441 21.8512 19.1663 19.0464 19.1663H9.17689C9.37228 10.3487 12.6513 3.33301 16.6677 3.33301C19.8716 3.33301 22.6062 7.79735 23.6807 14.0794Z" fill="#070707"/>
<path d="M7.09308 19.1663C7.18774 14.6594 8.04755 10.5085 9.46454 7.35963C9.96718 6.24267 10.592 5.14877 11.3411 4.20232C4.9994 6.33981 0.365062 12.189 0.0214844 19.1663H7.09308Z" fill="#070707"/>
<path d="M0.0471826 21.2497C0.550848 28.0425 5.12606 33.7022 11.3411 35.797C10.592 34.8506 9.96718 33.7567 9.46454 32.6397C8.09133 29.5881 7.2414 25.5955 7.10404 21.2497H0.0471826Z" fill="#070707"/>
</g>
<g opacity="0.84">
<path d="M41.667 27.4992V11.0967H54.1545V14.2242H45.357V17.7117H53.007V20.6367H45.357V24.3717H54.1545V27.4992H41.667Z" fill="#070707"/>
<path d="M60.3292 27.7242C58.9942 27.7242 57.9967 27.2892 57.3367 26.4192C56.6767 25.5342 56.3467 24.3717 56.3467 22.9317V15.4167H59.7892V22.4367C59.7892 23.3967 59.9767 24.0567 60.3517 24.4167C60.7417 24.7617 61.2592 24.9342 61.9042 24.9342C62.6692 24.9342 63.2467 24.6792 63.6367 24.1692C64.0267 23.6592 64.2217 22.9917 64.2217 22.1667V15.4167H67.6642V27.4992H64.4467L64.1992 25.5192H64.0192C63.7492 26.1792 63.2842 26.7117 62.6242 27.1167C61.9792 27.5217 61.2142 27.7242 60.3292 27.7242Z" fill="#070707"/>
<path d="M70.2474 27.4992V15.4167H73.4649L73.7124 17.4192H73.9149C74.1849 16.6692 74.5449 16.1217 74.9949 15.7767C75.4449 15.4167 76.0899 15.2367 76.9299 15.2367H78.0099V18.7467H76.4574C75.4674 18.7467 74.7624 19.0017 74.3424 19.5117C73.9224 20.0067 73.7124 20.6742 73.7124 21.5142V27.4992H70.2474Z" fill="#070707"/>
<path d="M84.6372 27.7242C82.6722 27.7242 81.2097 27.1617 80.2497 26.0367C79.2897 24.9117 78.8097 23.4117 78.8097 21.5367V21.4692C78.8097 19.3392 79.3422 17.7642 80.4072 16.7442C81.4722 15.7092 82.8822 15.1917 84.6372 15.1917C86.4072 15.1917 87.8247 15.7092 88.8897 16.7442C89.9697 17.7642 90.5097 19.3392 90.5097 21.4692V21.5367C90.4947 23.4117 90.0072 24.9117 89.0472 26.0367C88.0872 27.1617 86.6172 27.7242 84.6372 27.7242ZM84.6372 24.9342C85.4022 24.9342 85.9797 24.7242 86.3697 24.3042C86.7747 23.8842 86.9772 23.3067 86.9772 22.5717V20.4117C86.9772 19.6617 86.7672 19.0767 86.3472 18.6567C85.9422 18.2217 85.3722 18.0042 84.6372 18.0042C83.9172 18.0042 83.3472 18.2217 82.9272 18.6567C82.5222 19.0767 82.3197 19.6617 82.3197 20.4117V22.5717C82.3197 23.3067 82.5147 23.8842 82.9047 24.3042C83.3097 24.7242 83.8872 24.9342 84.6372 24.9342Z" fill="#070707"/>
<path d="M92.3968 31.2567V15.4167H95.6818L95.8618 17.1942H96.0193C96.3193 16.5642 96.7843 16.0767 97.4143 15.7317C98.0593 15.3717 98.7793 15.1917 99.5743 15.1917C101.194 15.1917 102.372 15.7392 103.107 16.8342C103.842 17.9292 104.209 19.3917 104.209 21.2217V21.7392C104.209 23.8242 103.789 25.3467 102.949 26.3067C102.124 27.2517 100.999 27.7242 99.5743 27.7242C98.7943 27.7242 98.0818 27.5517 97.4368 27.2067C96.7918 26.8467 96.3193 26.3517 96.0193 25.7217H95.8618V31.2567H92.3968ZM98.1793 24.9117C98.9293 24.9117 99.5068 24.7017 99.9118 24.2817C100.317 23.8617 100.519 23.2692 100.519 22.5042V20.4342C100.519 19.6692 100.317 19.0767 99.9118 18.6567C99.5068 18.2217 98.9293 18.0042 98.1793 18.0042C97.4743 18.0042 96.9118 18.2217 96.4918 18.6567C96.0868 19.0917 95.8843 19.6992 95.8843 20.4792V22.4592C95.8843 23.2392 96.0868 23.8467 96.4918 24.2817C96.9118 24.7017 97.4743 24.9117 98.1793 24.9117Z" fill="#070707"/>
<path d="M109.045 27.7242C107.935 27.7242 107.035 27.4317 106.345 26.8467C105.655 26.2467 105.31 25.4517 105.31 24.4617V24.4167C105.31 23.2617 105.677 22.3692 106.412 21.7392C107.147 21.1092 108.137 20.7192 109.382 20.5692L112.757 20.1192V19.6467C112.757 18.5067 112.067 17.9367 110.687 17.9367C110.027 17.9367 109.502 18.0642 109.112 18.3192C108.737 18.5742 108.55 18.9417 108.55 19.4217H105.422C105.422 18.0867 105.91 17.0517 106.885 16.3167C107.86 15.5667 109.232 15.1917 111.002 15.1917C112.622 15.1917 113.89 15.5367 114.805 16.2267C115.735 16.9167 116.2 18.0117 116.2 19.5117V25.0692H117.775V27.4992H113.635L113.365 25.6317H113.117C112.817 26.2917 112.315 26.8092 111.61 27.1842C110.92 27.5442 110.065 27.7242 109.045 27.7242ZM110.53 25.2492C111.13 25.2492 111.632 25.1067 112.037 24.8217C112.457 24.5217 112.697 24.1392 112.757 23.6742V22.0542L110.485 22.3917C109.975 22.4517 109.562 22.5867 109.247 22.7967C108.932 22.9917 108.775 23.2917 108.775 23.6967V23.9892C108.775 24.3642 108.925 24.6717 109.225 24.9117C109.54 25.1367 109.975 25.2492 110.53 25.2492Z" fill="#070707"/>
</g>
</svg>
