<svg width="112" height="40" viewBox="0 0 112 40" fill="none" xmlns="http://www.w3.org/2000/svg">
<g opacity="0.84">
<path opacity="0.7" d="M24.6172 5.34863C26.86 9.74603 28.1248 14.7255 28.1248 20.0004C28.1248 25.2754 26.86 30.2549 24.6172 34.6523C29.8092 31.8289 33.3332 26.3262 33.3332 20.0005C33.3332 13.6747 29.8092 8.17208 24.6172 5.34863Z" fill="#070707"/>
<path d="M17.1234 4.99861C16.3695 3.93067 15.0853 3.35552 13.7973 3.57904C5.95987 4.93915 0 11.7735 0 19.9999C0 28.2263 5.95984 35.0607 13.7973 36.4208C15.0852 36.6443 16.3695 36.0692 17.1233 35.0013C20.1169 30.7605 21.8755 25.5855 21.8755 19.9999C21.8755 14.4143 20.117 9.23938 17.1234 4.99861Z" fill="#070707"/>
</g>
<g opacity="0.84">
<path fill-rule="evenodd" clip-rule="evenodd" d="M41.667 21.6565V18.0589C42.4452 13.9492 45.8764 11.0083 50.1985 11.0083C54.0548 11.0083 57.5679 13.6341 58.2157 16.6988L58.2582 16.8999H54.7473L54.7067 16.792C54.1093 15.2067 52.1795 14.0966 50.1985 14.0966C47.1091 14.0966 44.7585 16.5748 44.7585 19.8508C44.7585 23.1485 47.1068 25.6533 50.3918 25.6533C52.8991 25.6533 54.8227 24.0617 55.3354 21.7574H49.2468V18.6933H58.4341L58.4584 18.831C58.5331 19.254 58.5818 19.9409 58.5818 20.4549C58.5818 25.3117 54.9507 28.7416 50.1985 28.7416C45.856 28.7416 42.4427 25.7838 41.667 21.6565Z" fill="#070707"/>
<path fill-rule="evenodd" clip-rule="evenodd" d="M62.5702 20.6699H59.8157L59.8304 20.4897C60.0315 18.0267 62.2382 16.1074 64.8541 16.1074C66.5295 16.1074 67.8381 16.5946 68.7283 17.4628C69.6189 18.3312 70.0716 19.5621 70.0716 21.0108V28.4999H67.2007V27.3249C66.3608 28.2474 65.2055 28.7416 63.7666 28.7416C61.3928 28.7416 59.7332 27.1822 59.7332 25.0949C59.7332 23.7944 60.3108 22.7353 61.3445 22.0073C62.3724 21.2835 63.8416 20.8924 65.6274 20.8924H67.2007V20.8416C67.2007 20.1688 66.968 19.6226 66.5672 19.2439C66.1655 18.8644 65.5809 18.6399 64.8541 18.6399C63.6143 18.6399 62.6455 19.4141 62.5796 20.5133L62.5702 20.6699ZM62.9081 25.878C63.2136 26.1267 63.6631 26.2816 64.2257 26.2816C65.9998 26.2816 67.2007 24.9494 67.2007 23.5724V23.2316H65.5549C64.5138 23.2316 63.7248 23.3761 63.2018 23.656C62.9425 23.7947 62.7526 23.9645 62.627 24.1633C62.5018 24.3614 62.4349 24.5971 62.4349 24.8774C62.4349 25.2859 62.6052 25.6314 62.9081 25.878Z" fill="#070707"/>
<path fill-rule="evenodd" clip-rule="evenodd" d="M74.8785 11.2499V28.4999H71.8626V11.2499H74.8785Z" fill="#070707"/>
<path fill-rule="evenodd" clip-rule="evenodd" d="M76.9017 16.3491H79.9176V28.4999H76.9017V16.3491Z" fill="#070707"/>
<path fill-rule="evenodd" clip-rule="evenodd" d="M85.0983 11.2499V28.4999H82.0825V11.2499H85.0983Z" fill="#070707"/>
<path fill-rule="evenodd" clip-rule="evenodd" d="M98.4172 23.2316H89.202C89.3447 24.079 89.7195 24.7777 90.2661 25.2736C90.852 25.8052 91.6447 26.1124 92.5859 26.1124C94.0661 26.1124 95.1288 25.4116 95.3472 24.407L95.3757 24.2758H98.3645L98.3328 24.4693C97.9057 27.0828 95.546 28.7416 92.61 28.7416C89.0613 28.7416 86.305 25.9836 86.305 22.3883C86.305 18.8404 89.0622 16.1074 92.5617 16.1074C95.8428 16.1074 98.48 18.6703 98.48 22.0499C98.48 22.2971 98.4556 22.8097 98.431 23.08L98.4172 23.2316ZM89.3765 20.9408H95.2714C95.0541 19.6536 93.9145 18.7124 92.4409 18.7124C91.6635 18.7124 90.9875 18.9325 90.4552 19.3424C89.9709 19.7153 89.5975 20.2516 89.3765 20.9408Z" fill="#070707"/>
<path fill-rule="evenodd" clip-rule="evenodd" d="M76.5392 12.7699C76.5392 11.7384 77.3842 10.8633 78.4217 10.8633C79.482 10.8633 80.3284 11.7369 80.3284 12.7699C80.3284 13.7803 79.4805 14.6524 78.4217 14.6524C77.3857 14.6524 76.5392 13.7788 76.5392 12.7699Z" fill="#070707"/>
<path fill-rule="evenodd" clip-rule="evenodd" d="M105.39 16.1074C108.938 16.1074 111.695 18.8404 111.695 22.4366C111.695 26.0091 108.937 28.7416 105.39 28.7416C101.842 28.7416 99.1092 26.0082 99.1092 22.4366C99.1092 18.8413 101.841 16.1074 105.39 16.1074ZM102.053 22.4366C102.053 24.3527 103.503 25.8224 105.39 25.8224C107.255 25.8224 108.752 24.3504 108.752 22.4366C108.752 20.4964 107.253 19.0024 105.39 19.0024C103.505 19.0024 102.053 20.4942 102.053 22.4366Z" fill="#070707"/>
</g>
</svg>
