<svg width="131" height="40" viewBox="0 0 131 40" fill="none" xmlns="http://www.w3.org/2000/svg">
<g opacity="0.84">
<path d="M14.5833 13.7497C14.5833 14.9003 15.5161 15.833 16.6667 15.833C17.8173 15.833 18.75 14.9003 18.75 13.7497V5.41634C18.75 4.26575 17.8173 3.33301 16.6667 3.33301C15.5161 3.33301 14.5833 4.26575 14.5833 5.41634V13.7497Z" fill="#070707"/>
<path d="M14.5833 34.583C14.5833 35.7336 15.5161 36.6663 16.6667 36.6663C17.8173 36.6663 18.75 35.7336 18.75 34.583V26.2497C18.75 25.0991 17.8173 24.1663 16.6667 24.1663C15.5161 24.1663 14.5833 25.0991 14.5833 26.2497V34.583Z" fill="#070707"/>
<path d="M19.6135 17.0534C18.7999 16.2398 18.7999 14.9207 19.6135 14.1071L25.506 8.21455C26.3196 7.40096 27.6387 7.40096 28.4523 8.21455C29.2659 9.02815 29.2659 10.3472 28.4523 11.1608L22.5597 17.0534C21.7462 17.867 20.4271 17.867 19.6135 17.0534Z" fill="#070707"/>
<path d="M4.88208 28.8385C4.06849 29.6521 4.06849 30.9712 4.88208 31.7848C5.69567 32.5984 7.01477 32.5984 7.82836 31.7848L13.7209 25.8922C14.5345 25.0786 14.5345 23.7595 13.7209 22.9459C12.9073 22.1324 11.5882 22.1324 10.7746 22.9459L4.88208 28.8385Z" fill="#070707"/>
<path d="M19.6132 22.946C20.4267 22.1324 21.7458 22.1324 22.5594 22.946L28.452 28.8385C29.2656 29.6521 29.2656 30.9712 28.452 31.7848C27.6384 32.5984 26.3193 32.5984 25.5057 31.7848L19.6132 25.8922C18.7996 25.0787 18.7996 23.7596 19.6132 22.946Z" fill="#070707"/>
<path d="M7.82804 8.21458C7.01445 7.40099 5.69536 7.40099 4.88177 8.21458C4.06817 9.02817 4.06817 10.3473 4.88177 11.1609L10.7743 17.0534C11.5879 17.867 12.907 17.867 13.7206 17.0534C14.5342 16.2398 14.5342 14.9207 13.7206 14.1071L7.82804 8.21458Z" fill="#070707"/>
<path d="M20.8333 19.9997C20.8333 18.8491 21.7661 17.9163 22.9167 17.9163H31.25C32.4006 17.9163 33.3333 18.8491 33.3333 19.9997C33.3333 21.1503 32.4006 22.083 31.25 22.083H22.9167C21.7661 22.083 20.8333 21.1503 20.8333 19.9997Z" fill="#070707"/>
<path d="M2.08333 17.9163C0.932741 17.9163 0 18.8491 0 19.9997C0 21.1503 0.93274 22.083 2.08333 22.083L10.4167 22.083C11.5673 22.083 12.5 21.1503 12.5 19.9997C12.5 18.8491 11.5673 17.9163 10.4167 17.9163L2.08333 17.9163Z" fill="#070707"/>
</g>
<g opacity="0.84">
<path d="M41.667 27.5008V12.2008H52.647V15.0583H45.267V18.2758H51.7695V21.0658H45.267V24.6433H52.647V27.5008H41.667Z" fill="#070707"/>
<path d="M61.6451 22.3483V15.3958H65.0876V27.5008H61.6451V25.8808C60.8576 27.2308 59.6651 27.8608 58.2026 27.8608C55.9076 27.8608 54.2201 26.4658 54.2201 23.4508V15.3958H57.6626V22.7533C57.6626 24.3058 58.2476 25.0708 59.4626 25.0708C60.7901 25.0708 61.6451 23.9008 61.6451 22.3483Z" fill="#070707"/>
<path d="M70.4181 32.4733H66.9756V15.3958H70.4181V16.6558C71.1606 15.5983 72.1956 15.0133 73.4556 15.0133C76.5831 15.0133 78.5406 17.4658 78.5406 21.4258C78.5406 25.5433 76.5381 27.8608 73.4556 27.8608C72.1731 27.8608 71.1381 27.3208 70.4181 26.2858V32.4733ZM72.7356 17.8033C71.2056 17.8033 70.4181 19.0858 70.4181 21.4258C70.4181 23.7658 71.2281 25.0708 72.7356 25.0708C74.2206 25.0708 75.0081 23.7883 75.0081 21.4258C75.0081 19.0858 74.1981 17.8033 72.7356 17.8033Z" fill="#070707"/>
<path d="M79.907 27.5008V11.3008H83.3495V16.9933C84.137 15.6433 85.3745 15.0133 86.8595 15.0133C89.177 15.0133 90.9095 16.4308 90.9095 19.4233V27.5008H87.467V20.1208C87.467 18.5908 86.8595 17.8033 85.5995 17.8033C84.227 17.8033 83.3495 18.9958 83.3495 20.5483V27.5008H79.907Z" fill="#070707"/>
<path d="M98.2169 27.8608C94.5494 27.8608 92.2769 25.4308 92.2769 21.4483C92.2769 17.3308 94.6169 15.0133 98.2169 15.0133C101.884 15.0133 104.179 17.4883 104.179 21.4483C104.179 25.5433 101.817 27.8608 98.2169 27.8608ZM98.2169 25.0708C99.8144 25.0708 100.647 23.8108 100.647 21.4483C100.647 19.1083 99.7919 17.8033 98.2169 17.8033C96.6419 17.8033 95.8094 19.0858 95.8094 21.4483C95.8094 23.7883 96.6644 25.0708 98.2169 25.0708Z" fill="#070707"/>
<path d="M105.55 27.5008V15.3958H108.992V17.0833C109.757 15.6433 110.927 15.0133 112.165 15.0133C112.66 15.0133 113.11 15.1483 113.357 15.3958V18.2983C112.952 18.2083 112.525 18.1633 111.985 18.1633C109.915 18.1633 108.992 19.3333 108.992 21.2458V27.5008H105.55Z" fill="#070707"/>
<path d="M114.285 14.1808V11.3008H117.727V14.1808H114.285ZM114.285 27.5008V15.3958H117.727V27.5008H114.285Z" fill="#070707"/>
<path d="M122.966 19.4008H119.524C119.884 16.6783 121.976 15.0133 125.081 15.0133C128.546 15.0133 130.346 17.0383 130.346 19.8508V24.4858C130.346 26.0608 130.481 26.8708 130.684 27.5008H127.129C127.016 27.0958 126.949 26.5783 126.926 25.9933C125.981 27.2983 124.541 27.8608 123.101 27.8608C120.806 27.8608 119.096 26.6908 119.096 24.3733C119.096 22.7308 120.041 21.4708 121.954 20.7958C123.529 20.2783 125.036 20.1208 126.904 20.0983V19.8283C126.904 18.5008 126.251 17.8033 124.924 17.8033C123.754 17.8033 123.124 18.4558 122.966 19.4008ZM122.539 24.1483C122.539 24.9583 123.146 25.4758 124.159 25.4758C125.689 25.4758 126.904 24.2383 126.904 22.5733V22.1008C123.416 22.1683 122.539 23.0233 122.539 24.1483Z" fill="#070707"/>
</g>
</svg>
