<svg width="123" height="24" viewBox="0 0 123 24" fill="none" xmlns="http://www.w3.org/2000/svg">
<g clip-path="url(#clip0_48_244)">
<path fill-rule="evenodd" clip-rule="evenodd" d="M4.53003 2.36027C8.33003 -0.939725 14.09 -0.539725 17.39 3.26027C17.41 3.28027 17.42 3.30027 17.44 3.31027C20.93 6.84027 21.13 12.4403 17.92 16.2203L10.75 23.3903C9.32003 22.4303 6.93003 20.5203 7.88003 18.6103C9.79003 16.2203 12.18 14.3103 14.1 11.9203C15.53 10.0103 14.58 6.18027 11.71 5.70027C9.63003 4.98027 7.36003 6.07027 6.63003 8.15027C6.42003 8.74027 6.36003 9.38027 6.44003 10.0003C6.44003 12.3903 8.35003 13.8203 9.79003 15.2603C8.36003 16.6903 6.44003 17.6503 6.44003 19.5603C5.01003 17.6503 2.62003 16.2103 1.66003 13.8203C-0.139966 9.80027 1.05003 5.06027 4.53003 2.36027Z" fill="#261723"/>
<path fill-rule="evenodd" clip-rule="evenodd" d="M35.128 2.35523C35.608 0.925225 37.038 1.39523 37.998 1.39523V19.0752H35.128V17.6452C32.758 19.5552 29.368 19.5552 26.998 17.6452C24.238 15.1252 24.028 10.8652 26.518 8.08523C28.748 5.66523 32.418 5.25523 35.118 7.12523V2.35523H35.128ZM30.828 8.57523C28.438 9.05523 26.528 12.3952 28.438 14.7952C29.558 16.4352 31.798 16.8552 33.438 15.7252C33.958 15.3652 34.378 14.8852 34.648 14.3152C36.088 11.9152 33.688 8.56523 30.828 8.57523Z" fill="#261723"/>
<path fill-rule="evenodd" clip-rule="evenodd" d="M40.3901 6.18002H43.2601V7.14002C44.2201 5.71002 46.1301 5.71002 48.0401 6.18002C47.5601 7.14002 47.0801 7.61002 47.0801 8.57002C45.1701 8.09002 43.2601 9.05002 43.2601 10.48V17.65C42.7801 19.09 41.3501 19.09 40.3901 19.09V6.18002Z" fill="#261723"/>
<path fill-rule="evenodd" clip-rule="evenodd" d="M52.332 6.18088C57.112 4.27088 61.892 9.05088 60.932 13.8309C59.972 18.6109 53.282 21.0009 49.932 17.6509C46.122 14.3109 47.552 7.14088 52.332 6.18088ZM53.772 8.57088C52.132 9.00088 50.862 10.2809 50.422 11.9209C50.062 13.9109 51.382 15.8109 53.372 16.1709C53.662 16.2209 53.952 16.2409 54.242 16.2209C56.152 16.2209 58.062 14.7909 58.062 12.8709C58.072 10.4809 55.682 8.09088 53.772 8.57088Z" fill="#261723"/>
<path fill-rule="evenodd" clip-rule="evenodd" d="M62.8582 6.17788H65.7282V7.13788C68.4282 5.25788 72.1082 5.66788 74.3282 8.09788C76.7182 10.5779 76.6382 14.5279 74.1582 16.9079C74.0582 16.9979 73.9582 17.0879 73.8582 17.1779C71.9482 19.5679 68.1182 19.5679 65.7282 18.1379V22.4379C65.2482 23.8679 63.8182 23.8679 62.8582 23.8679V6.17788ZM69.0682 8.56788C66.1982 9.04788 64.7682 12.3879 66.1982 14.3079C67.6282 16.6979 71.4582 16.6979 72.4082 14.3079C74.3282 11.9179 71.9382 8.56788 69.0682 8.56788Z" fill="#261723"/>
<path fill-rule="evenodd" clip-rule="evenodd" d="M81.0201 6.66C83.5001 5.27 86.6001 5.65 88.6701 7.62C88.1901 8.1 87.7101 9.05 86.7601 9.53C85.1701 8.24 82.8401 8.49 81.5601 10.08C81.3401 10.35 81.1601 10.65 81.0301 10.97C80.2801 13 81.3301 15.26 83.3601 16C83.6901 16.12 84.0301 16.2 84.3801 16.23C85.3401 16.23 86.2901 15.75 87.2501 15.75C88.1001 16.13 88.7901 16.81 89.1601 17.66C85.8101 20.53 80.0801 19.57 78.6401 15.27C76.7201 12.39 78.1501 8.57 81.0201 6.66Z" fill="#261723"/>
<path fill-rule="evenodd" clip-rule="evenodd" d="M89.1441 14.7841C87.7141 10.4841 91.0641 5.7041 95.3641 5.7041C98.9041 5.8541 101.874 8.4341 102.534 11.9241V19.0941C101.104 19.0941 100.144 19.0941 99.1841 18.1341C95.8441 20.5241 90.5841 18.6141 89.1441 14.7841ZM95.3641 8.5741C93.0841 9.0041 91.5841 11.1941 92.0141 13.4741C92.1041 13.9341 92.2641 14.3741 92.4941 14.7841C94.4041 17.1741 98.2341 16.6941 99.1841 14.3041C100.024 12.1341 98.9541 9.6941 96.7841 8.8541C96.3341 8.6741 95.8541 8.5841 95.3641 8.5741Z" fill="#261723"/>
<path fill-rule="evenodd" clip-rule="evenodd" d="M104.45 6.18012H107.32V7.14012C108.75 5.23012 112.1 5.71012 114.01 7.62012C116.4 4.75012 121.18 5.71012 122.14 9.05012C122.62 11.9201 122.14 15.2701 122.14 18.1301C122.14 19.0901 120.71 19.0901 119.27 19.0901C119.27 16.2201 119.75 13.3501 119.27 10.4901C119.05 9.30012 117.91 8.52012 116.72 8.74012C115.83 8.91012 115.14 9.60012 114.97 10.4901V19.0901H112.1C112.18 16.0501 112.02 13.0201 111.62 10.0101C111.14 8.10012 107.8 8.58012 107.8 10.4901C107.4 13.3401 107.24 16.2201 107.32 19.0901H104.45V6.18012Z" fill="#261723"/>
</g>
<defs>
<clipPath id="clip0_48_244">
<rect width="121.52" height="23.74" fill="white" transform="translate(0.830078 0.120117)"/>
</clipPath>
</defs>
</svg>
