<svg width="88" height="88" viewBox="0 0 88 88" fill="none" xmlns="http://www.w3.org/2000/svg">
<g clip-path="url(#clip0_144_932)">
<path d="M69.6668 88C69.4175 88 69.1645 87.9487 68.9335 87.846C68.2148 87.5343 51.3335 79.9847 51.3335 64.559V51.5937C51.3335 50.8163 51.8285 50.1197 52.5618 49.863L69.0618 44.1027C69.4542 43.967 69.8795 43.967 70.2718 44.1027L86.7718 49.863C87.5052 50.1197 88.0002 50.8163 88.0002 51.5937V64.559C88.0002 79.9883 71.1188 87.5343 70.4002 87.846C70.1692 87.9487 69.9162 88 69.6668 88ZM55.0002 52.8953V64.559C55.0002 75.944 66.5978 82.577 69.6632 84.1317C72.7285 82.5733 84.3335 75.911 84.3335 64.559V52.8953L69.6668 47.7767L55.0002 52.8953Z" fill="#08449C"/>
<path d="M68.1671 72.4864C68.1341 72.4864 68.0974 72.4864 68.0681 72.4827C67.5327 72.4534 67.0451 72.1967 66.7187 71.775L60.7164 64.02C60.0967 63.217 60.2434 62.0657 61.0464 61.446C61.8421 60.8264 62.9971 60.9694 63.6168 61.7724L68.3211 67.8554L77.3484 58.52C78.0487 57.794 79.2111 57.7757 79.9408 58.476C80.6667 59.18 80.6887 60.3387 79.9847 61.0684L69.4871 71.9254C69.1351 72.2847 68.6621 72.4864 68.1671 72.4864Z" fill="#FC5220"/>
<path d="M71.4998 40.3333C70.4878 40.3333 69.6664 39.512 69.6664 38.5V22.2163L37.5061 38.3057C36.6114 38.7567 35.5004 38.3937 35.0458 37.4843C34.5984 36.5823 34.9614 35.4787 35.8671 35.0277L70.6784 17.611C71.2431 17.325 71.9214 17.358 72.4604 17.6917C73.0031 18.0253 73.3331 18.6157 73.3331 19.25V38.5C73.3331 39.512 72.5118 40.3333 71.4998 40.3333Z" fill="#FC5220"/>
<path d="M36.6447 73.3333C36.3513 73.3333 36.058 73.2637 35.7903 73.1207L0.979 54.7873C0.377667 54.472 0 53.8487 0 53.1667V19.25C0 18.6157 0.33 18.0253 0.869 17.6917C1.40433 17.358 2.08633 17.325 2.651 17.611L37.4623 35.0277C38.082 35.3393 38.4743 35.9737 38.4743 36.6667V71.5C38.4743 72.1417 38.137 72.7357 37.5907 73.0693C37.301 73.2453 36.9747 73.3333 36.6447 73.3333ZM3.66667 52.0593L34.8113 68.4603V37.7997L3.66667 22.2163V52.0593Z" fill="#FC5220"/>
<path d="M71.4998 21.0833C71.2248 21.0833 70.9461 21.021 70.6784 20.889L36.6444 3.883L2.65444 20.889C1.75611 21.3363 0.648773 20.977 0.194107 20.0713C-0.256893 19.1657 0.106107 18.062 1.01177 17.611L35.8231 0.194331C36.3401 -0.0623356 36.9488 -0.0623356 37.4621 0.194331L72.3174 17.611C73.2231 18.0657 73.5898 19.1657 73.1388 20.0713C72.8161 20.713 72.1708 21.0833 71.4998 21.0833Z" fill="#FC5220"/>
<path d="M18.491 43.043C17.479 43.043 16.6577 42.2217 16.6577 41.2097V27.577C16.6577 26.884 17.05 26.2497 17.6697 25.938L52.481 8.52134C53.3794 8.07401 54.4867 8.43701 54.9414 9.34267C55.3924 10.2483 55.0257 11.3483 54.1201 11.803L20.3244 28.7137V41.2133C20.3244 42.2253 19.503 43.043 18.491 43.043Z" fill="#FC5220"/>
<path d="M36.6445 73.3333C35.9881 73.3333 35.3538 72.9813 35.0275 72.358C34.5508 71.4633 34.8918 70.3523 35.7865 69.8793L43.1418 65.978C44.0401 65.505 45.1475 65.8423 45.6205 66.7407C46.0971 67.6353 45.7561 68.7463 44.8615 69.2193L37.5061 73.1207C37.2275 73.2637 36.9341 73.3333 36.6445 73.3333Z" fill="#FC5220"/>
</g>
<defs>
<clipPath id="clip0_144_932">
<rect width="88" height="88" fill="white"/>
</clipPath>
</defs>
</svg>
