<svg width="157" height="40" viewBox="0 0 157 40" fill="none" xmlns="http://www.w3.org/2000/svg">
<path d="M0 13.2484L14.4546 13.2484L0.236822 27.4662L2.5338 29.7632L16.7516 15.5454V30H16.8436L20 26.8436L20 13.5404L16.4596 10L3.15462 10L4.42949e-08 13.1546L0 13.2484Z" fill="#070707"/>
<path d="M39.383 21.3031H42.1347V23.8598H39.383V27.4998H36.328V23.8598H28.333V21.6281L36.6097 11.8132H39.383V21.3031ZM32.233 21.3031H36.328V16.2981L32.233 21.3031Z" fill="#070707"/>
<path d="M49.8089 16.8398C50.8778 16.8398 51.8311 17.0493 52.6689 17.4681C53.5211 17.887 54.1856 18.5081 54.6622 19.3315C55.1533 20.1548 55.3989 21.1443 55.3989 22.2998C55.3989 24.0187 54.8572 25.362 53.7739 26.3298C52.6906 27.2831 51.1667 27.7598 49.2022 27.7598C47.8445 27.7598 46.7033 27.5359 45.7789 27.0881C44.8689 26.6404 44.1756 26.0481 43.6989 25.3115C43.2367 24.5748 42.9695 23.7659 42.8972 22.8848H46.0172C46.4795 24.5604 47.5339 25.3981 49.1806 25.3981C50.1917 25.3981 50.9572 25.1165 51.4772 24.5531C52.0117 23.9898 52.2789 23.2315 52.2789 22.2781C52.2789 21.3104 52.0117 20.5593 51.4772 20.0248C50.9428 19.4759 50.1845 19.2015 49.2022 19.2015C47.9022 19.2015 46.9056 19.7431 46.2122 20.8265L43.3956 20.5448L44.4572 11.8132H54.4889V14.3698H46.9922L46.5156 17.9665C47.2956 17.2154 48.3933 16.8398 49.8089 16.8398Z" fill="#070707"/>
<path d="M67.4249 11.8132C69.606 11.8132 71.5777 12.3332 73.3399 13.3732C75.1166 14.3987 76.0049 16.4931 76.0049 19.6565C76.0049 22.8198 75.1166 24.9215 73.3399 25.9615C71.5777 26.987 69.606 27.4998 67.4249 27.4998H62.1382V11.8132H67.4249ZM67.3166 24.7698C68.3132 24.7554 69.2016 24.6398 69.9816 24.4231C70.776 24.192 71.4477 23.7009 71.9966 22.9498C72.5599 22.1987 72.8416 21.1009 72.8416 19.6565C72.8416 18.212 72.5599 17.1143 71.9966 16.3632C71.4477 15.612 70.776 15.1209 69.9816 14.8898C69.2016 14.6587 68.3132 14.5431 67.3166 14.5431H65.1932V24.7698H67.3166Z" fill="#070707"/>
<path d="M83.1735 15.5832C84.4302 15.5832 85.5063 15.8648 86.4019 16.4281C87.3119 16.977 87.9835 17.7643 88.4169 18.7898C88.8646 19.8154 89.0524 21.0215 88.9802 22.4081H80.2269C80.328 23.3904 80.6385 24.1343 81.1585 24.6398C81.6785 25.1454 82.3574 25.3981 83.1952 25.3981C83.9319 25.3981 84.5241 25.2176 84.9719 24.8565C85.4341 24.4954 85.7446 24.0404 85.9035 23.4915H88.9152C88.6552 24.8493 88.0124 25.9037 86.9869 26.6548C85.9758 27.3915 84.7119 27.7598 83.1952 27.7598C81.953 27.7598 80.8769 27.507 79.9669 27.0015C79.0569 26.4959 78.3635 25.7881 77.8869 24.8781C77.4102 23.9537 77.1719 22.8848 77.1719 21.6715C77.1719 20.4726 77.4174 19.4109 77.9085 18.4865C78.3996 17.562 79.1002 16.847 80.0102 16.3415C80.9202 15.8359 81.9746 15.5832 83.1735 15.5832ZM85.9685 20.5015C85.8819 19.7215 85.6002 19.0931 85.1235 18.6165C84.6613 18.1398 84.0041 17.9015 83.1519 17.9015C82.3719 17.9015 81.7363 18.1181 81.2452 18.5515C80.7541 18.9848 80.4291 19.6348 80.2702 20.5015H85.9685Z" fill="#070707"/>
<path d="M101.687 15.8431V27.0231C101.687 28.5398 101.203 29.7604 100.235 30.6848C99.2671 31.6237 97.8515 32.0931 95.9882 32.0931C94.3704 32.0931 93.0848 31.732 92.1315 31.0098C91.1782 30.302 90.6148 29.3487 90.4415 28.1498H93.4099C93.7565 29.2187 94.616 29.7531 95.9882 29.7531C96.9415 29.7531 97.6348 29.5148 98.0682 29.0381C98.5015 28.5759 98.7182 27.8898 98.7182 26.9798V25.4198C97.9093 26.662 96.6887 27.2831 95.0565 27.2831C94.031 27.2831 93.1282 27.052 92.3482 26.5898C91.5826 26.1131 90.9832 25.4343 90.5498 24.5531C90.131 23.672 89.9215 22.632 89.9215 21.4331C89.9215 20.2343 90.131 19.1943 90.5498 18.3131C90.9832 17.432 91.5826 16.7604 92.3482 16.2981C93.1282 15.8215 94.031 15.5832 95.0565 15.5832C96.7032 15.5832 97.9237 16.2043 98.7182 17.4465V15.8431H101.687ZM95.8582 24.9431C96.826 24.9431 97.5698 24.6181 98.0898 23.9681C98.6098 23.3181 98.8698 22.4731 98.8698 21.4331C98.8698 20.3931 98.6098 19.5481 98.0898 18.8981C97.5698 18.2481 96.826 17.9231 95.8582 17.9231C94.876 17.9231 94.1393 18.2554 93.6482 18.9198C93.1715 19.5698 92.9332 20.4076 92.9332 21.4331C92.9332 22.4587 93.1715 23.3037 93.6482 23.9681C94.1393 24.6181 94.876 24.9431 95.8582 24.9431Z" fill="#070707"/>
<path d="M109.787 15.7131C110.033 15.7131 110.278 15.7348 110.524 15.7782V18.7465C110.264 18.7031 109.99 18.6815 109.701 18.6815C108.791 18.6815 108.112 18.8981 107.664 19.3315C107.216 19.7504 106.935 20.2487 106.819 20.8265C106.703 21.3898 106.646 22.047 106.646 22.7981V27.4998H103.677V15.8431H106.602V17.8365C107.238 16.4209 108.3 15.7131 109.787 15.7131Z" fill="#070707"/>
<path d="M117.166 15.5832C118.423 15.5832 119.499 15.8648 120.395 16.4281C121.305 16.977 121.976 17.7643 122.41 18.7898C122.858 19.8154 123.045 21.0215 122.973 22.4081H114.22C114.321 23.3904 114.631 24.1343 115.151 24.6398C115.671 25.1454 116.35 25.3981 117.188 25.3981C117.925 25.3981 118.517 25.2176 118.965 24.8565C119.427 24.4954 119.738 24.0404 119.896 23.4915H122.908C122.648 24.8493 122.005 25.9037 120.98 26.6548C119.969 27.3915 118.705 27.7598 117.188 27.7598C115.946 27.7598 114.87 27.507 113.96 27.0015C113.05 26.4959 112.356 25.7881 111.88 24.8781C111.403 23.9537 111.165 22.8848 111.165 21.6715C111.165 20.4726 111.41 19.4109 111.901 18.4865C112.393 17.562 113.093 16.847 114.003 16.3415C114.913 15.8359 115.968 15.5832 117.166 15.5832ZM119.961 20.5015C119.875 19.7215 119.593 19.0931 119.116 18.6165C118.654 18.1398 117.997 17.9015 117.145 17.9015C116.365 17.9015 115.729 18.1181 115.238 18.5515C114.747 18.9848 114.422 19.6348 114.263 20.5015H119.961Z" fill="#070707"/>
<path d="M129.873 15.5832C131.129 15.5832 132.206 15.8648 133.101 16.4281C134.011 16.977 134.683 17.7643 135.116 18.7898C135.564 19.8154 135.752 21.0215 135.679 22.4081H126.926C127.027 23.3904 127.338 24.1343 127.858 24.6398C128.378 25.1454 129.057 25.3981 129.894 25.3981C130.631 25.3981 131.223 25.2176 131.671 24.8565C132.133 24.4954 132.444 24.0404 132.603 23.4915H135.614C135.354 24.8493 134.712 25.9037 133.686 26.6548C132.675 27.3915 131.411 27.7598 129.894 27.7598C128.652 27.7598 127.576 27.507 126.666 27.0015C125.756 26.4959 125.063 25.7881 124.586 24.8781C124.109 23.9537 123.871 22.8848 123.871 21.6715C123.871 20.4726 124.117 19.4109 124.608 18.4865C125.099 17.562 125.799 16.847 126.709 16.3415C127.619 15.8359 128.674 15.5832 129.873 15.5832ZM132.668 20.5015C132.581 19.7215 132.299 19.0931 131.823 18.6165C131.361 18.1398 130.703 17.9015 129.851 17.9015C129.071 17.9015 128.436 18.1181 127.944 18.5515C127.453 18.9848 127.128 19.6348 126.969 20.5015H132.668Z" fill="#070707"/>
<path d="M142.163 27.7598C140.401 27.7598 139.036 27.3698 138.068 26.5898C137.1 25.8098 136.551 24.8276 136.421 23.6431H139.39C139.78 24.8854 140.726 25.5065 142.228 25.5065C142.921 25.5065 143.463 25.3837 143.853 25.1381C144.243 24.8781 144.438 24.5459 144.438 24.1415C144.438 23.7081 144.221 23.4048 143.788 23.2315C143.369 23.0437 142.647 22.8559 141.621 22.6681C140.668 22.5093 139.852 22.3215 139.173 22.1048C138.494 21.8737 137.909 21.5126 137.418 21.0215C136.927 20.5304 136.681 19.8731 136.681 19.0498C136.681 17.8798 137.172 17.0131 138.155 16.4498C139.137 15.872 140.336 15.5832 141.751 15.5832C143.311 15.5832 144.553 15.9226 145.478 16.6015C146.417 17.2804 146.973 18.1904 147.146 19.3315H144.178C144.005 18.8548 143.723 18.4865 143.333 18.2265C142.957 17.9665 142.408 17.8365 141.686 17.8365C141.065 17.8365 140.567 17.9376 140.191 18.1398C139.83 18.342 139.65 18.6165 139.65 18.9631C139.65 19.2665 139.794 19.5193 140.083 19.7215C140.386 19.9093 140.718 20.0465 141.08 20.1331C141.441 20.2198 142.062 20.3498 142.943 20.5231C144.503 20.812 145.637 21.1948 146.345 21.6715C147.052 22.1481 147.406 22.8704 147.406 23.8381C147.406 25.0226 146.951 25.9759 146.041 26.6981C145.131 27.4059 143.838 27.7598 142.163 27.7598Z" fill="#070707"/>
<path d="M152.515 18.7898C151.865 18.7898 151.259 18.6454 150.695 18.3565C150.146 18.0531 149.706 17.627 149.374 17.0781C149.056 16.5293 148.897 15.8937 148.897 15.1715C148.897 14.4493 149.056 13.8137 149.374 13.2648C149.706 12.7159 150.146 12.297 150.695 12.0082C151.259 11.7048 151.865 11.5531 152.515 11.5531C153.165 11.5531 153.765 11.7048 154.314 12.0082C154.877 12.297 155.325 12.7231 155.657 13.2865C155.989 13.8354 156.155 14.4637 156.155 15.1715C156.155 15.8793 155.989 16.5148 155.657 17.0781C155.325 17.627 154.877 18.0531 154.314 18.3565C153.765 18.6454 153.165 18.7898 152.515 18.7898ZM152.515 16.9698C153.006 16.9698 153.396 16.8109 153.685 16.4932C153.989 16.1609 154.14 15.7204 154.14 15.1715C154.14 14.6226 153.989 14.1893 153.685 13.8715C153.396 13.5537 153.006 13.3948 152.515 13.3948C152.039 13.3948 151.649 13.5537 151.345 13.8715C151.056 14.1893 150.912 14.6226 150.912 15.1715C150.912 15.7204 151.056 16.1609 151.345 16.4932C151.649 16.8109 152.039 16.9698 152.515 16.9698Z" fill="#070707"/>
<path fill-rule="evenodd" clip-rule="evenodd" d="M152.529 13.5581C151.633 13.5581 150.908 14.2838 150.908 15.179C150.908 16.0741 151.633 16.7998 152.529 16.7998C153.424 16.7998 154.149 16.0741 154.149 15.179C154.149 14.2838 153.424 13.5581 152.529 13.5581ZM152.529 18.8081C154.533 18.8081 156.158 17.1833 156.158 15.179C156.158 13.1746 154.533 11.5498 152.529 11.5498C150.524 11.5498 148.899 13.1746 148.899 15.179C148.899 17.1833 150.524 18.8081 152.529 18.8081Z" fill="#070707"/>
</svg>
