<svg width="132" height="40" viewBox="0 0 132 40" fill="none" xmlns="http://www.w3.org/2000/svg">
<g opacity="0.84">
<path d="M26.6663 21.667C26.6663 26.2694 22.9354 30.0003 18.333 30.0003C13.7306 30.0003 9.99967 26.2694 9.99967 21.667H3.33301C3.33301 29.9513 10.0487 36.667 18.333 36.667C26.6173 36.667 33.333 29.9513 33.333 21.667C33.333 13.3827 26.6173 6.66699 18.333 6.66699V13.3337C22.9354 13.3337 26.6663 17.0646 26.6663 21.667Z" fill="#070707"/>
<path opacity="0.5" d="M8.33333 3.33301C8.33333 7.93538 4.60237 11.6663 0 11.6663V18.333C8.28427 18.333 15 11.6173 15 3.33301H8.33333Z" fill="#070707"/>
</g>
<g opacity="0.84">
<path d="M41.667 11.5254H53.142V14.7429H45.6045V17.8929H52.872V21.0879H45.6045V24.2829H53.322V27.5004H41.667V11.5254Z" fill="#070707"/>
<path d="M54.3779 19.3329C54.8279 16.7004 56.8079 15.3054 60.1379 15.3054C63.9629 15.3054 65.8529 17.0604 65.8529 20.5479V23.9454C65.8529 24.8229 66.2129 24.9579 66.6179 24.9579H67.0229V27.5004L66.4829 27.5454C65.8529 27.5679 63.1079 27.9954 62.7029 25.7004C62.0729 26.9829 60.7229 27.7704 58.4504 27.7704C56.0204 27.7704 54.1754 26.4654 54.1754 24.3504C54.1754 22.2129 55.7729 21.3129 58.7204 20.7279L61.9154 20.0754C61.9154 18.4329 61.3529 17.6679 60.1154 17.6679C59.0804 17.6679 58.4504 18.2754 58.2479 19.4904L54.3779 19.3329ZM58.1579 24.1929C58.1579 24.8904 58.7204 25.3854 59.7779 25.3854C61.0829 25.3854 61.9829 24.3954 61.9829 22.4379V22.3254L60.2954 22.6404C59.0129 22.8654 58.1579 23.1354 58.1579 24.1929Z" fill="#070707"/>
<path d="M75.1224 19.5129C74.9424 18.4554 74.1099 17.8254 73.2099 17.8254C72.2649 17.8254 71.5899 18.3204 71.6349 19.1079C71.6799 19.8729 72.5349 20.2329 73.5924 20.4129C77.3949 20.9754 79.0149 21.9429 79.0149 24.1704C79.0149 26.5554 76.8099 27.7704 73.5249 27.7704C69.8124 27.7704 67.5624 26.2629 67.3599 23.6979L71.2524 23.5404C71.4549 24.5979 72.1974 25.1829 73.3899 25.1829C74.1999 25.1829 75.0774 24.8679 75.0324 24.1254C75.0099 23.2479 74.0649 23.0229 72.9624 22.8204C69.2949 22.1454 67.6524 21.2454 67.6524 19.1079C67.6524 16.7004 69.6774 15.2829 73.3224 15.2829C76.5174 15.2829 78.5874 16.7904 78.9699 19.3779L75.1224 19.5129Z" fill="#070707"/>
<path d="M78.7567 15.5754H82.3567L85.1467 23.4729L87.8017 15.5754H91.4017L86.7667 28.5129C86.1817 30.1554 85.0792 30.8754 83.2342 30.8754H80.8942V28.1304H82.4467C83.2117 28.1304 83.5942 27.9279 83.8192 27.3654L84.0667 26.7579H83.0317L78.7567 15.5754Z" fill="#070707"/>
<path d="M104.739 11.5254V14.7429H100.014V27.5004H96.0985V14.7429H91.3735V11.5254H104.739Z" fill="#070707"/>
<path d="M104.831 19.3329C105.281 16.7004 107.261 15.3054 110.591 15.3054C114.416 15.3054 116.306 17.0604 116.306 20.5479V23.9454C116.306 24.8229 116.666 24.9579 117.071 24.9579H117.476V27.5004L116.936 27.5454C116.306 27.5679 113.561 27.9954 113.156 25.7004C112.526 26.9829 111.176 27.7704 108.903 27.7704C106.473 27.7704 104.628 26.4654 104.628 24.3504C104.628 22.2129 106.226 21.3129 109.173 20.7279L112.368 20.0754C112.368 18.4329 111.806 17.6679 110.568 17.6679C109.533 17.6679 108.903 18.2754 108.701 19.4904L104.831 19.3329ZM108.611 24.1929C108.611 24.8904 109.173 25.3854 110.231 25.3854C111.536 25.3854 112.436 24.3954 112.436 22.4379V22.3254L110.748 22.6404C109.466 22.8654 108.611 23.1354 108.611 24.1929Z" fill="#070707"/>
<path d="M126.966 15.5529H131.151L126.944 21.4479L131.264 27.5004H127.079L124.739 23.8554L122.376 27.5004H118.191L122.511 21.4479L118.304 15.5529H122.466L124.739 19.0179L126.966 15.5529Z" fill="#070707"/>
</g>
</svg>
