<svg width="152" height="40" viewBox="0 0 152 40" fill="none" xmlns="http://www.w3.org/2000/svg">
<g opacity="0.84">
<path fill-rule="evenodd" clip-rule="evenodd" d="M16.6667 3.33301C25.8714 3.33301 33.3333 10.7949 33.3333 19.9997C33.3333 29.2044 25.8714 36.6663 16.6667 36.6663C7.46192 36.6663 0 29.2044 0 19.9997C0 10.7949 7.46192 3.33301 16.6667 3.33301ZM29.1667 19.9997C29.1667 26.9032 23.5702 32.4997 16.6667 32.4997V7.49967C23.5702 7.49967 29.1667 13.0961 29.1667 19.9997Z" fill="#070707"/>
</g>
<g opacity="0.84">
<path d="M49.5195 10.7598C54.1095 10.7598 56.292 13.0548 56.7195 16.3848H53.412C53.0295 14.6973 51.702 13.6848 49.542 13.6848C46.7295 13.6848 45.0645 15.4848 45.0645 19.1973C45.0645 23.4723 47.0445 24.8898 49.6095 24.8898C51.747 24.8898 53.0295 23.8998 53.4345 22.1898H56.7195C56.247 25.8573 53.7045 27.8148 49.5195 27.8148C44.502 27.8148 41.667 24.9798 41.667 19.3548C41.667 14.3823 44.1195 10.7598 49.5195 10.7598Z" fill="#070707"/>
<path d="M61.0191 21.5373C61.0191 24.2598 62.0541 25.2048 63.8091 25.2048C65.5416 25.2048 66.5541 24.2598 66.5541 21.5373C66.5541 18.8598 65.5416 17.8923 63.8091 17.8923C62.0541 17.8923 61.0191 18.8598 61.0191 21.5373ZM57.6666 21.5373C57.6666 17.4873 59.8041 15.3048 63.8091 15.3048C67.8141 15.3048 69.9291 17.4873 69.9291 21.5373C69.9291 25.6098 67.7916 27.8148 63.8091 27.8148C59.8041 27.8148 57.6666 25.6098 57.6666 21.5373Z" fill="#070707"/>
<path d="M78.2363 15.3048C80.7338 15.3048 82.1738 16.2948 82.4663 18.4773C82.5338 19.0848 82.5563 19.6473 82.5563 20.6148V27.4998H79.3388V20.5698C79.3388 18.9948 78.9113 17.9823 77.1338 17.9823C75.6713 17.9373 74.6363 18.9498 74.6363 21.1998V27.4998H71.4188V15.6198H74.3663L74.5013 17.5548C74.8838 15.7998 76.2788 15.3048 78.2363 15.3048Z" fill="#070707"/>
<path d="M88.6178 23.3823C88.6178 25.1373 89.0003 25.2948 91.1378 25.1823V27.6123C90.3953 27.7023 89.7653 27.7698 88.7078 27.7698C86.3228 27.7698 85.5578 26.8023 85.4228 25.2723C85.3778 24.6198 85.3778 24.1473 85.3778 23.4723V18.1848H83.6678V15.6423H85.3778V12.1773H88.6178V15.6423H91.2728V18.1848H88.6178V23.3823Z" fill="#070707"/>
<path d="M98.8935 15.3048C99.321 15.3048 99.591 15.3048 99.861 15.3723V17.9823C97.0035 17.6898 95.6985 18.9948 95.6985 22.3473V27.4998H92.481V15.6198H95.4285L95.5635 17.8923C95.7885 16.0473 97.0935 15.3048 98.8935 15.3048Z" fill="#070707"/>
<path d="M105.547 15.3048C109.057 15.3048 110.362 16.8123 110.519 18.9048C110.564 19.5123 110.587 20.0748 110.587 20.7498V27.4998H107.684L107.504 25.9248C106.964 27.5223 105.547 27.8148 103.792 27.8148C101.609 27.8148 99.8991 26.5773 99.8991 24.2598C99.8991 21.2898 102.172 20.2098 106.762 20.2098H107.414V19.7823C107.414 18.6123 107.032 17.8698 105.412 17.8698C103.994 17.8698 103.364 18.3648 103.229 19.4673H100.282C100.372 16.9023 101.947 15.3048 105.547 15.3048ZM103.027 23.8773C103.027 24.7548 103.724 25.2498 104.827 25.2498C106.087 25.2498 107.414 24.5298 107.414 23.3598V22.4148C104.579 22.2798 103.027 22.5723 103.027 23.8773Z" fill="#070707"/>
<path d="M117.01 15.3048C120.385 15.3048 121.825 16.6098 121.983 19.1073H118.878C118.72 18.0048 117.978 17.7348 116.943 17.7348C115.998 17.7348 115.278 18.0948 115.278 18.7698C115.278 19.4898 115.863 19.8948 117.708 20.1873C120.835 20.6598 122.343 21.7398 122.343 24.0798C122.343 26.5998 120.048 27.8148 117.19 27.8148C113.815 27.8148 112.083 26.6223 111.768 23.9223H114.918C115.12 25.0023 115.795 25.3623 117.28 25.3623C118.45 25.3623 119.148 24.9798 119.148 24.3498C119.148 23.5623 118.338 23.1123 116.583 22.8423C113.433 22.3248 112.083 21.3798 112.083 18.9723C112.083 16.7898 114.018 15.3048 117.01 15.3048Z" fill="#070707"/>
<path d="M127.776 23.3823C127.776 25.1373 128.158 25.2948 130.296 25.1823V27.6123C129.553 27.7023 128.923 27.7698 127.866 27.7698C125.481 27.7698 124.716 26.8023 124.581 25.2723C124.536 24.6198 124.536 24.1473 124.536 23.4723V18.1848H122.826V15.6423H124.536V12.1773H127.776V15.6423H130.431V18.1848H127.776V23.3823Z" fill="#070707"/>
<path d="M140.726 11.0748L146.531 27.4998H143.043L141.671 23.5398H135.618L134.223 27.4998H130.781L136.698 11.0748H140.726ZM136.406 20.7498H140.928L138.701 14.1573L136.406 20.7498Z" fill="#070707"/>
<path d="M151.129 11.0748V27.4998H147.844V11.0748H151.129Z" fill="#070707"/>
</g>
</svg>
