<svg width="121" height="40" viewBox="0 0 121 40" fill="none" xmlns="http://www.w3.org/2000/svg">
<g opacity="0.84">
<path fill-rule="evenodd" clip-rule="evenodd" d="M12.6902 4.16699C10.0107 4.16699 7.53471 5.59648 6.19497 7.91699L1.38372 16.2503C0.0439711 18.5708 0.0439687 21.4298 1.38371 23.7503L6.19497 32.0837C7.53471 34.4042 10.0107 35.8337 12.6902 35.8337H22.3127C24.9921 35.8337 27.4681 34.4042 28.8078 32.0837L33.6191 23.7503C34.9588 21.4298 34.9588 18.5708 33.6191 16.2503L28.8078 7.91699C27.4681 5.59649 24.9922 4.16699 22.3127 4.16699H12.6902ZM22.3127 9.16699L16.2986 9.16699C15.3363 9.16699 14.7351 10.2086 15.2169 11.0415C16.7036 13.6113 18.1938 16.1792 19.6782 18.7503C20.1248 19.5238 20.1248 20.4768 19.6782 21.2503C18.1938 23.8214 16.7036 26.3893 15.2169 28.9592C14.7351 29.7921 15.3363 30.8337 16.2986 30.8337H22.3127C23.2058 30.8337 24.0311 30.3572 24.4777 29.5837L29.289 21.2503C29.7356 20.4768 29.7356 19.5238 29.289 18.7503L24.4777 10.417C24.0311 9.64349 23.2058 9.16699 22.3127 9.16699Z" fill="#070707"/>
</g>
<g opacity="0.84">
<path d="M55.8195 17.1048H52.0395C51.612 15.5973 50.532 14.7873 49.002 14.7873C46.6845 14.7873 45.357 16.7223 45.357 19.8723C45.357 23.0448 46.662 24.9123 49.002 24.9123C50.442 24.9123 51.567 24.1473 51.9945 22.7073H55.8195C55.032 26.0823 52.3095 27.8598 49.047 27.8598C44.4795 27.8598 41.667 24.8223 41.667 19.8723C41.667 14.9223 44.4795 11.8398 49.092 11.8398C52.377 11.8398 55.167 13.6173 55.8195 17.1048Z" fill="#070707"/>
<path d="M62.6205 27.8598C58.953 27.8598 56.6805 25.4298 56.6805 21.4473C56.6805 17.3298 59.0205 15.0123 62.6205 15.0123C66.288 15.0123 68.583 17.4873 68.583 21.4473C68.583 25.5423 66.2205 27.8598 62.6205 27.8598ZM62.6205 25.0698C64.218 25.0698 65.0505 23.8098 65.0505 21.4473C65.0505 19.1073 64.1955 17.8023 62.6205 17.8023C61.0455 17.8023 60.213 19.0848 60.213 21.4473C60.213 23.7873 61.068 25.0698 62.6205 25.0698Z" fill="#070707"/>
<path d="M69.9535 27.4998V15.3948H73.396V17.0823C74.161 15.6423 75.331 15.0123 76.5685 15.0123C77.0635 15.0123 77.5135 15.1473 77.761 15.3948V18.2973C77.356 18.2073 76.9285 18.1623 76.3885 18.1623C74.3185 18.1623 73.396 19.3323 73.396 21.2448V27.4998H69.9535Z" fill="#070707"/>
<path d="M89.8759 23.5173C89.2459 26.3073 86.9959 27.8598 84.0259 27.8598C80.2684 27.8598 77.9509 25.4298 77.9509 21.4473C77.9509 17.3298 80.2909 15.0123 83.8909 15.0123C87.5134 15.0123 89.7859 17.4198 89.7859 21.3798V22.1448H81.4609C81.6409 24.0798 82.5409 25.1148 84.0259 25.1148C85.1509 25.1148 85.9159 24.6198 86.2759 23.5173H89.8759ZM83.8909 17.7573C82.6084 17.7573 81.7984 18.5898 81.5284 20.1648H86.2309C85.9609 18.5898 85.1509 17.7573 83.8909 17.7573Z" fill="#070707"/>
<path d="M98.6039 27.8598C93.8564 27.8598 90.9314 24.7998 90.9314 19.8723C90.9314 14.9223 93.8564 11.8398 98.6039 11.8398C103.329 11.8398 106.254 14.9223 106.254 19.8723C106.254 24.7998 103.329 27.8598 98.6039 27.8598ZM98.6039 24.9123C101.101 24.9123 102.564 23.0223 102.564 19.8723C102.564 16.7223 101.101 14.7873 98.6039 14.7873C96.0839 14.7873 94.6214 16.6998 94.6214 19.8723C94.6214 23.0223 96.0839 24.9123 98.6039 24.9123Z" fill="#070707"/>
<path d="M111.222 16.1373C111.222 19.3998 120.222 16.6323 120.222 22.8873C120.222 26.0373 117.612 27.8598 114.034 27.8598C110.412 27.8598 107.824 26.1948 107.284 22.7073H111.087C111.379 24.2148 112.437 25.0473 114.057 25.0473C115.677 25.0473 116.532 24.3948 116.532 23.3373C116.532 19.9173 107.509 22.5273 107.509 16.4748C107.509 13.9098 109.647 11.8398 113.404 11.8398C116.577 11.8398 119.322 13.3473 119.794 16.8798H115.947C115.632 15.3723 114.754 14.6523 113.269 14.6523C112.009 14.6523 111.222 15.2373 111.222 16.1373Z" fill="#070707"/>
</g>
</svg>
