<svg width="157" height="40" viewBox="0 0 157 40" fill="none" xmlns="http://www.w3.org/2000/svg">
<g opacity="0.84">
<path d="M20.8088 5.86082C18.2053 3.25733 13.9842 3.25733 11.3807 5.86082L1.95262 15.2889C-0.650874 17.8924 -0.650874 22.1135 1.95262 24.717L11.3807 34.1451C13.9842 36.7486 18.2053 36.7486 20.8088 34.1451L25.3074 29.6465C21.5624 28.2017 18.9056 24.5679 18.9056 20.3134C18.9056 15.8895 21.7784 12.1365 25.7601 10.8182C25.6823 10.7363 25.6032 10.6552 25.5228 10.5749L20.8088 5.86082Z" fill="#070707"/>
<path opacity="0.7" d="M25.3076 29.6497C26.424 30.0803 27.6372 30.3164 28.9054 30.3164C34.4283 30.3164 38.9054 25.8393 38.9054 20.3164C38.9054 14.7936 34.4283 10.3164 28.9054 10.3164C27.8067 10.3164 26.7494 10.4936 25.7604 10.821C30.729 16.0444 30.65 24.3073 25.5233 29.434L25.3076 29.6497Z" fill="#070707"/>
</g>
<g opacity="0.84">
<path d="M58.0055 27.4997L56.7905 24.0347H50.513L49.2755 27.4997H45.833L51.908 11.3447H55.643L61.673 27.4997H58.0055ZM53.6855 15.0797L51.4805 21.3122H55.8455L53.6855 15.0797Z" fill="#070707"/>
<path d="M65.6211 27.4997H62.4711V11.3447H65.6211V27.4997Z" fill="#070707"/>
<path d="M79.5181 21.4922C79.5181 25.0472 77.4256 27.7247 74.1856 27.7247C72.7681 27.7247 71.5531 27.1172 70.6531 25.9472V31.8422H67.5256V15.4847H70.4056V17.2397C71.3281 15.9572 72.6556 15.2597 74.1856 15.2597C77.4256 15.2597 79.5181 17.9597 79.5181 21.4922ZM76.3006 21.4922C76.3006 19.2422 75.0181 18.0272 73.4881 18.0272C71.9581 18.0272 70.6756 19.2197 70.6756 21.4922C70.6756 23.7647 71.9581 24.9347 73.4881 24.9347C75.0181 24.9347 76.3006 23.7872 76.3006 21.4922Z" fill="#070707"/>
<path d="M83.7497 20.9522V27.4997H80.6222V11.3447H83.7497V17.0597C84.5822 15.9572 85.6172 15.2597 87.1922 15.2597C89.5997 15.2597 91.2647 16.8347 91.2647 19.7372V27.4997H88.1597V20.7947C88.1597 19.0172 87.4622 18.0272 86.0447 18.0272C84.8072 18.0272 83.7497 19.0172 83.7497 20.9522Z" fill="#070707"/>
<path d="M100.215 27.4997V26.0147C99.4271 27.1397 98.2346 27.7247 96.5921 27.7247C94.0946 27.7247 92.4296 26.2622 92.4296 24.0122C92.4296 21.6722 94.3196 20.4122 97.8296 20.4122C98.5046 20.4122 99.0896 20.4572 99.8321 20.5472V19.8272C99.8321 18.4772 99.0671 17.6897 97.7621 17.6897C96.4121 17.6897 95.6021 18.4772 95.4896 19.8272H92.6771C92.8571 17.0597 94.8596 15.2597 97.7621 15.2597C100.912 15.2597 102.757 16.9922 102.757 19.9397V27.4997H100.215ZM95.3771 23.9222C95.3771 24.9347 96.0971 25.5647 97.2671 25.5647C98.8646 25.5647 99.8321 24.6872 99.8321 23.2922V22.4372C99.0896 22.3247 98.5721 22.2797 98.0321 22.2797C96.2546 22.2797 95.3771 22.8422 95.3771 23.9222Z" fill="#070707"/>
<path d="M115.964 27.4997L112.949 16.2047L109.934 27.4997H106.469L102.329 11.3447H105.659L108.269 22.3022L111.239 11.3447H114.727L117.607 22.3472L120.239 11.3447H123.592L119.429 27.4997H115.964Z" fill="#070707"/>
<path d="M130.605 27.4997V26.0147C129.817 27.1397 128.625 27.7247 126.982 27.7247C124.485 27.7247 122.82 26.2622 122.82 24.0122C122.82 21.6722 124.71 20.4122 128.22 20.4122C128.895 20.4122 129.48 20.4572 130.222 20.5472V19.8272C130.222 18.4772 129.457 17.6897 128.152 17.6897C126.802 17.6897 125.992 18.4772 125.88 19.8272H123.067C123.247 17.0597 125.25 15.2597 128.152 15.2597C131.302 15.2597 133.147 16.9922 133.147 19.9397V27.4997H130.605ZM125.767 23.9222C125.767 24.9347 126.487 25.5647 127.657 25.5647C129.255 25.5647 130.222 24.6872 130.222 23.2922V22.4372C129.48 22.3247 128.962 22.2797 128.422 22.2797C126.645 22.2797 125.767 22.8422 125.767 23.9222Z" fill="#070707"/>
<path d="M145.347 15.4847L140.937 27.4997H137.517L133.085 15.4847H136.46L139.317 23.9447L142.197 15.4847H145.347Z" fill="#070707"/>
<path d="M150.622 27.7022C147.022 27.7022 144.614 25.2047 144.614 21.4472C144.614 17.8697 147.112 15.2597 150.577 15.2597C154.379 15.2597 156.899 18.3422 156.337 22.2572H147.809C148.012 24.2147 148.957 25.2947 150.554 25.2947C151.927 25.2947 152.849 24.6197 153.209 23.4272H156.314C155.639 26.1497 153.547 27.7022 150.622 27.7022ZM150.509 17.5547C149.047 17.5547 148.124 18.4997 147.854 20.2772H153.029C152.939 18.6122 151.994 17.5547 150.509 17.5547Z" fill="#070707"/>
</g>
</svg>
