<svg width="86" height="26" viewBox="0 0 86 26" fill="none" xmlns="http://www.w3.org/2000/svg">
<g clip-path="url(#clip0_48_245)">
<path d="M0.350098 18.37V0.38H3.5101V18.37H0.350098ZM11.6001 5.32C7.9001 5.33 4.9101 8.34 4.9201 12.04C4.9301 15.74 7.9401 18.73 11.6401 18.72C15.3401 18.71 18.3301 15.7 18.3201 12C18.3101 8.3 15.3001 5.31 11.6001 5.32ZM11.5601 8.37C13.5801 8.35 15.2301 9.96 15.2501 11.98C15.2701 14 13.6601 15.65 11.6401 15.67C9.6201 15.69 7.9701 14.08 7.9501 12.06C7.9501 12.05 7.9501 12.03 7.9501 12.02C7.9301 10.02 9.5401 8.39 11.5401 8.37C11.5501 8.37 11.5601 8.37 11.5601 8.37ZM26.3801 5.32C22.6801 5.33 19.6901 8.34 19.7001 12.04C19.7101 15.74 22.7201 18.73 26.4201 18.72C30.0801 18.81 33.1301 15.91 33.2201 12.25C33.2201 12.16 33.2201 12.08 33.2201 11.99C33.3101 10.76 32.9401 9.54 32.1901 8.56L33.0701 8.26V5.69H28.5801C27.8601 5.45 27.1201 5.32 26.3801 5.32ZM26.3401 8.37C28.3601 8.35 30.0101 9.96 30.0301 11.98C30.0501 14 28.4401 15.65 26.4201 15.67C24.4001 15.69 22.7501 14.08 22.7301 12.06C22.7301 12.05 22.7301 12.03 22.7301 12.02C22.7101 10.02 24.3201 8.39 26.3201 8.37C26.3301 8.37 26.3301 8.37 26.3401 8.37ZM30.0001 19.25C30.0001 21.26 28.3701 22.9 26.3501 22.9C24.3301 22.9 22.7001 21.27 22.7001 19.25H19.5001C19.4401 22.91 22.3601 25.92 26.0201 25.98C26.1401 25.98 26.2701 25.98 26.3901 25.98C30.0501 26.07 33.0901 23.18 33.1901 19.52C33.1901 19.43 33.1901 19.34 33.1901 19.25H30.0001ZM34.4801 18.37V5.69H37.6401V18.37H34.4801ZM40.7101 18.37V8.53H39.0201V5.69H40.7101V1.8H43.8701V5.69H45.6101V8.53H43.8701V18.37H40.7101ZM38.1401 2.09C38.1401 3.25 37.2001 4.18 36.0501 4.18C34.8901 4.18 33.9601 3.24 33.9601 2.09C33.9601 0.94 34.8901 0 36.0501 0C37.2101 0 38.1401 0.94 38.1401 2.09ZM52.7101 5.31C49.0901 5.23 46.0801 8.11 46.0101 11.73C46.0101 11.86 46.0101 11.99 46.0101 12.11C45.8701 15.62 48.6001 18.59 52.1101 18.73C52.3301 18.74 52.5501 18.74 52.7701 18.72C54.9401 18.79 57.0401 17.91 58.5201 16.31L56.4101 14.19C55.4601 15.18 54.1801 15.79 52.8201 15.91C51.1901 15.97 49.7401 14.87 49.3601 13.28H59.2101V12.41C59.2101 8.96 57.2001 5.31 52.7101 5.31ZM52.6101 8.1C54.2201 8.01 55.6301 9.15 55.8901 10.74H49.2701C49.5901 9.16 51.0001 8.04 52.6101 8.1ZM67.1101 18.74C63.4001 18.81 60.3401 15.86 60.2701 12.15C60.2001 8.44 63.1501 5.38 66.8601 5.31C66.9401 5.31 67.0101 5.31 67.0901 5.31C69.1901 5.29 71.1801 6.22 72.5101 7.84L70.3001 10.03C69.5001 9.05 68.3301 8.45 67.0701 8.38C65.1001 8.33 63.4701 9.89 63.4301 11.85C63.4301 11.9 63.4301 11.95 63.4301 12C63.3801 13.98 64.9501 15.62 66.9301 15.67C66.9701 15.67 67.0101 15.67 67.0501 15.67C68.3201 15.6 69.5001 15.01 70.3001 14.02L72.5301 16.21C71.2001 17.84 69.2101 18.76 67.1101 18.74ZM73.6901 18.38V0.34H76.8501V6.97C77.8101 5.86 79.2301 5.25 80.6901 5.31C84.0001 5.31 85.9201 7.77 85.9201 10.92V18.39H82.7601V11.4C82.9401 9.94 81.9001 8.61 80.4401 8.42C80.2901 8.4 80.1401 8.4 79.9801 8.4C78.3701 8.27 76.9701 9.47 76.8501 11.08C76.8401 11.24 76.8401 11.4 76.8501 11.56V18.38H73.6901Z" fill="#261723"/>
</g>
<defs>
<clipPath id="clip0_48_245">
<rect width="85.57" height="25.98" fill="white" transform="translate(0.350098)"/>
</clipPath>
</defs>
</svg>
