<svg width="81" height="22" viewBox="0 0 81 22" fill="none" xmlns="http://www.w3.org/2000/svg">
<g clip-path="url(#clip0_48_246)">
<path d="M6.17993 6.31006C2.44993 6.31006 0.919922 7.64004 0.919922 10.79C0.919922 14.19 2.26994 15.4497 6.05994 15.4497C8.79994 15.4497 9.82991 14.8499 10.4999 12.8999H10.6199L10.4599 15.29H15.2499V5.75C15.2499 4.74 15.0799 3.74004 14.7499 2.79004C13.8999 1.05004 12.1399 0.429685 8.00992 0.429685C4.60992 0.429685 3.15991 0.809899 2.24991 1.8999C1.70991 2.5599 1.55993 3.2097 1.51993 4.9497H6.33994C6.42994 3.6597 6.81992 3.35009 8.22992 3.35009C9.86992 3.35009 10.4699 3.86002 10.4699 5.27002V8.12988H10.3699C9.80993 6.65988 8.95993 6.31006 6.17993 6.31006ZM8.31992 12.3198C6.20992 12.3198 5.72991 12.01 5.74991 10.71C5.74991 9.56996 6.34993 9.1997 7.98993 9.1997C9.89993 9.1997 10.4399 9.5099 10.4399 10.6499C10.4299 11.9499 9.95992 12.3198 8.31992 12.3198ZM18.0399 0.459958V21.5801H22.9799V12.79H23.0799C23.6599 14.75 24.7599 15.4399 27.3099 15.4399C29.4099 15.4399 30.6099 15.0897 31.4599 14.1797C32.5999 12.9597 32.9699 11.3198 32.9699 7.56982C32.9699 4.10982 32.5899 2.63006 31.3699 1.56006C30.2399 0.710056 28.8399 0.299919 27.4299 0.419919C24.7299 0.419919 23.8799 0.889782 22.7399 3.02978H22.6399L22.8299 0.449704L18.0399 0.459958ZM28.1599 8.0498C28.1599 11.0598 27.6799 11.7598 25.6399 11.7598C23.4299 11.7598 22.9899 11.0698 22.9899 7.56982C22.9899 4.60982 23.4699 3.97998 25.5799 3.97998C27.7499 3.97998 28.1599 4.6098 28.1599 8.0498ZM35.3999 0.459958H35.3899V21.5801H40.3299V12.79H40.4299C41.0099 14.75 42.0999 15.4399 44.6599 15.4399C46.7699 15.4399 47.9699 15.0897 48.8199 14.1797C49.9599 12.9597 50.3299 11.3198 50.3299 7.56982C50.3299 4.10982 49.9499 2.63006 48.7299 1.56006C47.5999 0.710056 46.1999 0.299919 44.7899 0.419919C42.0899 0.419919 41.2399 0.889782 40.0999 3.02978H39.9999L40.1899 0.449704L35.3999 0.459958ZM45.5099 8.0498C45.5099 11.0598 45.0299 11.7598 42.9899 11.7598C40.7799 11.7598 40.3399 11.0698 40.3399 7.56982C40.3399 4.60982 40.8199 3.97998 42.9299 3.97998C45.0899 3.97998 45.5099 4.6098 45.5099 8.0498ZM52.2299 7.56982C52.2299 11.2598 52.5799 12.8599 53.6399 13.9199C54.7599 15.0399 56.5299 15.46 59.9699 15.46C63.0599 15.46 64.5899 14.9898 65.5099 13.7598C66.0999 12.8398 66.3999 11.7599 66.3599 10.6699V10.3799H61.6699C61.6699 11.7399 61.1699 12.1201 59.4299 12.1201C57.4799 12.1201 56.9199 11.4999 56.9199 9.37988C56.9199 9.17988 56.9299 8.97978 56.9599 8.77978H66.3699V7.39013C66.3699 2.03013 64.7599 0.429685 59.4099 0.429685C56.5499 0.429685 54.8699 0.829841 53.7699 1.83984C52.6499 2.84984 52.2299 4.39982 52.2299 7.56982ZM61.7799 6.12011H56.9899L57.0299 5.70996C57.1499 4.19996 57.4899 3.81982 59.2899 3.81982C61.3299 3.81982 61.7399 4.11013 61.7399 5.64013C61.7399 5.81013 61.7599 5.96011 61.7799 6.12011ZM68.7299 0.459958H68.7199V15.27H73.5099V6.77002C73.4599 6.25002 73.4999 5.72998 73.6299 5.22998C73.8499 4.51998 74.5199 4.03982 75.2699 4.06982C76.3099 4.06982 76.5599 4.56974 76.5599 6.48974C76.5599 6.65974 76.5499 6.81974 76.5199 6.98974H80.8999C80.8799 6.44974 80.8799 6.01008 80.8799 5.83008C80.8799 3.38008 80.6899 2.49008 80.0299 1.58008C79.2999 0.750075 78.2099 0.309919 77.0999 0.419919C75.1899 0.419919 74.2399 1.07994 73.3899 2.93994H73.2999L73.5299 0.449704L68.7299 0.459958Z" fill="#261723"/>
</g>
<defs>
<clipPath id="clip0_48_246">
<rect width="79.97" height="21.18" fill="white" transform="translate(0.919922 0.399902)"/>
</clipPath>
</defs>
</svg>
