<svg width="83" height="20" viewBox="0 0 83 20" fill="none" xmlns="http://www.w3.org/2000/svg">
<g clip-path="url(#clip0_48_243)">
<path d="M19.83 18.4999H15.26L13.86 15.1299H6.24999L4.97999 18.4999H0.48999L7.34999 1.48992H12.27L19.83 18.4999ZM9.86999 5.54992L7.36999 12.1599H12.61L9.86999 5.54992ZM36.41 1.48992H40.1V18.5099H35.86V7.86992L31.27 13.2099H30.62L26.04 7.86992V18.4999H21.79V1.48992H25.49L30.95 7.79992L36.41 1.48992ZM50.86 1.48992C57.07 1.48992 60.27 5.35992 60.27 10.0199C60.27 14.9099 57.18 18.4999 50.39 18.4999H43.35V1.48992H50.86ZM47.59 15.3799H50.36C54.63 15.3799 55.9 12.4799 55.9 9.98992C55.9 7.06992 54.33 4.59992 50.31 4.59992H47.59V15.3799ZM68.7 5.51992L63.35 0.169922H82.82V19.6399L77.47 14.2899V5.51992H68.7ZM68.7 6.58992L63.19 12.0999V19.8099H70.9L76.41 14.2999H68.7V6.58992Z" fill="#261723"/>
</g>
<defs>
<clipPath id="clip0_48_243">
<rect width="82.34" height="19.64" fill="white" transform="translate(0.48999 0.169922)"/>
</clipPath>
</defs>
</svg>
