<svg width="84" height="26" viewBox="0 0 84 26" fill="none" xmlns="http://www.w3.org/2000/svg">
<g clip-path="url(#clip0_48_242)">
<path fill-rule="evenodd" clip-rule="evenodd" d="M51.8 20.08C46.97 23.65 39.94 25.56 33.87 25.56C25.78 25.6 17.97 22.62 11.96 17.21C11.52 16.8 11.9 16.24 12.46 16.57C24.26 23.36 38.55 24.24 51.09 18.94C51.92 18.62 52.59 19.5 51.8 20.08Z" fill="#261723"/>
<path fill-rule="evenodd" clip-rule="evenodd" d="M53.8199 17.77C53.2099 16.98 49.7199 17.39 48.1699 17.59C47.6999 17.65 47.6099 17.24 48.0499 16.95C50.8299 14.99 55.3699 15.57 55.8999 16.22C56.4299 16.87 55.7499 21.43 53.1499 23.6C52.7399 23.92 52.3599 23.75 52.5399 23.31C53.1199 21.84 54.4399 18.59 53.8199 17.77Z" fill="#261723"/>
<path fill-rule="evenodd" clip-rule="evenodd" d="M48.26 3.18001V1.28001C48.25 1.03001 48.44 0.820014 48.68 0.810014C48.7 0.810014 48.71 0.810014 48.73 0.810014H57.22C57.49 0.800014 57.71 1.01001 57.72 1.28001V2.89001C57.72 3.15001 57.49 3.50001 57.08 4.09001L52.69 10.36C54.36 10.27 56.03 10.62 57.53 11.38C57.79 11.53 57.96 11.81 57.97 12.11V14.13C57.97 14.42 57.68 14.74 57.35 14.57C54.54 13.11 51.19 13.12 48.39 14.6C48.15 14.69 47.89 14.56 47.8 14.32C47.78 14.27 47.77 14.21 47.77 14.16V12.22C47.74 11.77 47.85 11.32 48.09 10.93L53.19 3.64001H48.77C48.49 3.65001 48.27 3.44001 48.26 3.18001ZM17.3 14.98H14.72C14.48 14.96 14.29 14.78 14.25 14.54V1.31001C14.26 1.04001 14.48 0.830014 14.75 0.840014H17.15C17.4 0.840014 17.6 1.03001 17.62 1.28001V3.01001H17.68C18.27 1.15001 20.26 0.120014 22.12 0.720014C23.21 1.07001 24.06 1.92001 24.41 3.01001C24.94 1.50001 26.38 0.500014 27.98 0.550014C29.15 0.530014 30.27 1.07001 30.97 2.01001C31.79 3.12001 31.61 4.73001 31.61 6.17001V14.55C31.6 14.82 31.38 15.03 31.11 15.02H28.56C28.31 15 28.11 14.8 28.09 14.55V7.52001C28.13 6.69001 28.11 5.86001 28.03 5.03001C27.92 4.30001 27.24 3.79001 26.51 3.89001C25.82 3.91001 25.21 4.34001 24.96 4.97001C24.75 5.80001 24.67 6.66001 24.73 7.52001V14.55C24.72 14.82 24.5 15.03 24.23 15.02H21.65C21.4 15 21.2 14.8 21.18 14.55V7.52001C21.18 6.06001 21.41 3.86001 19.6 3.86001C17.75 3.86001 17.81 5.97001 17.81 7.52001V14.55C17.78 14.8 17.55 14.99 17.3 14.98ZM65.04 0.540014C68.88 0.540014 70.96 3.82001 70.96 8.01001C70.96 12.05 68.67 15.27 65.04 15.27C61.29 15.27 59.24 11.99 59.24 7.89001C59.21 3.76001 61.29 0.540014 65.04 0.540014ZM65.04 3.26001C63.14 3.26001 63.02 5.87001 63.02 7.48001C63.02 9.09001 62.99 12.55 65.01 12.55C67 12.55 67.12 9.77001 67.12 8.07001C67.16 6.89001 67.03 5.70001 66.74 4.55001C66.57 3.76001 65.85 3.21001 65.04 3.26001ZM75.9 14.98H73.32C73.07 14.96 72.87 14.76 72.85 14.51V1.25001C72.88 1.00001 73.1 0.810014 73.35 0.810014H75.75C75.97 0.820014 76.17 0.970014 76.22 1.19001V3.21001H76.28C77.01 1.39001 78.01 0.540014 79.79 0.540014C81 0.490014 82.15 1.08001 82.81 2.09001C83.48 3.14001 83.48 4.93001 83.48 6.22001V14.57C83.44 14.81 83.23 14.99 82.98 14.98H80.4C80.17 14.96 79.98 14.79 79.93 14.57V7.37001C79.93 5.91001 80.11 3.80001 78.32 3.80001C77.66 3.83001 77.08 4.24001 76.83 4.85001C76.52 5.65001 76.38 6.51001 76.42 7.37001V14.52C76.4 14.78 76.17 14.98 75.9 14.98ZM41.49 8.65001C41.59 9.59001 41.42 10.54 41.02 11.4C40.69 12.09 40 12.54 39.23 12.57C38.23 12.57 37.65 11.81 37.65 10.69C37.65 8.49002 39.61 8.08001 41.49 8.08001V8.65001ZM44.1 14.95C43.93 15.1 43.68 15.12 43.48 15.01C42.88 14.53 42.38 13.94 41.99 13.28C40.95 14.55 39.38 15.24 37.74 15.16C35.72 15.28 33.98 13.74 33.86 11.71C33.85 11.52 33.85 11.33 33.87 11.14C33.81 9.29001 34.91 7.61001 36.62 6.92001C38.19 6.40001 39.83 6.09001 41.48 6.01001V5.70001C41.57 5.06001 41.46 4.40001 41.16 3.82001C40.82 3.38001 40.28 3.13001 39.73 3.15001C38.74 3.06001 37.85 3.73001 37.65 4.70001C37.59 4.93001 37.44 5.17001 37.21 5.17001L34.72 4.91001C34.47 4.88001 34.3 4.65001 34.34 4.40001C34.34 4.39001 34.34 4.39001 34.34 4.38001C34.93 1.33001 37.65 0.430014 40.11 0.430014C41.52 0.370014 42.91 0.830014 44.01 1.72001C45.27 2.89001 45.15 4.47001 45.15 6.17001V10.18C45.17 11.07 45.51 11.93 46.12 12.58C46.3 12.81 46.33 13.11 46.12 13.25C45.56 13.7 44.62 14.52 44.1 14.95ZM7.66 8.65001C7.76 9.59001 7.59 10.54 7.19 11.4C6.86 12.09 6.17 12.54 5.4 12.57C4.4 12.57 3.82 11.81 3.82 10.69C3.82 8.49002 5.78 8.08001 7.66 8.08001V8.65001ZM10.24 14.95C10.07 15.1 9.82 15.12 9.62 15.01C9.02 14.53 8.52 13.94 8.13 13.28C7.09 14.55 5.52 15.24 3.88 15.16C1.86 15.28 0.12 13.74 0 11.71C0 11.52 0 11.33 0.02 11.15C-0.04 9.30001 1.06 7.62001 2.77 6.93001C4.34 6.41001 5.98 6.10001 7.63 6.02001V5.70001C7.72 5.06001 7.61 4.40001 7.31 3.82001C6.97 3.38001 6.43 3.13001 5.87 3.15001C4.89 3.06001 3.99 3.73001 3.79 4.70001C3.74 4.94001 3.59 5.17001 3.36 5.17001L0.87 4.91001C0.62 4.87001 0.45 4.64001 0.48 4.40001C0.48 4.39001 0.48 4.39001 0.48 4.38001C1.07 1.33001 3.79 0.430014 6.25 0.430014C7.66 0.370014 9.05 0.830014 10.15 1.72001C11.41 2.89001 11.29 4.47001 11.29 6.17001V10.18C11.31 11.07 11.65 11.93 12.26 12.58C12.44 12.81 12.47 13.11 12.26 13.25C11.71 13.69 10.77 14.51 10.24 14.95Z" fill="#261723"/>
</g>
<defs>
<clipPath id="clip0_48_242">
<rect width="83.49" height="25.14" fill="white" transform="translate(0 0.419922)"/>
</clipPath>
</defs>
</svg>
