<svg width="85" height="26" viewBox="0 0 85 26" fill="none" xmlns="http://www.w3.org/2000/svg">
<g clip-path="url(#clip0_48_266)">
<path fill-rule="evenodd" clip-rule="evenodd" d="M52.6901 20.08C47.8601 23.65 40.8301 25.56 34.7601 25.56C26.6701 25.6 18.8601 22.62 12.8501 17.21C12.4101 16.8 12.7901 16.24 13.3501 16.57C25.1501 23.36 39.4401 24.24 51.9801 18.94C52.8101 18.62 53.4801 19.5 52.6901 20.08Z" fill="#261723"/>
<path fill-rule="evenodd" clip-rule="evenodd" d="M54.7101 17.77C54.1001 16.98 50.6101 17.39 49.0601 17.59C48.5901 17.65 48.5001 17.24 48.9401 16.95C51.7201 14.99 56.2601 15.57 56.7901 16.22C57.3201 16.87 56.6401 21.43 54.0401 23.6C53.6301 23.92 53.2501 23.75 53.4301 23.31C54.0101 21.84 55.3301 18.59 54.7101 17.77Z" fill="#261723"/>
<path fill-rule="evenodd" clip-rule="evenodd" d="M49.1501 3.18001V1.28001C49.1401 1.03001 49.3301 0.820014 49.5701 0.810014C49.5901 0.810014 49.6001 0.810014 49.6201 0.810014H58.1101C58.3801 0.800014 58.6001 1.01001 58.6101 1.28001V2.89001C58.6101 3.15001 58.3801 3.50001 57.9701 4.09001L53.5801 10.36C55.2501 10.27 56.9201 10.62 58.4201 11.38C58.6801 11.53 58.8501 11.81 58.8601 12.11V14.13C58.8601 14.42 58.5701 14.74 58.2401 14.57C55.4301 13.11 52.0801 13.12 49.2801 14.6C49.0401 14.69 48.7801 14.56 48.6901 14.32C48.6701 14.27 48.6601 14.21 48.6601 14.16V12.22C48.6301 11.77 48.7401 11.32 48.9801 10.93L54.0801 3.64001H49.6601C49.3801 3.65001 49.1601 3.44001 49.1501 3.18001ZM18.1901 14.98H15.6101C15.3701 14.96 15.1801 14.78 15.1401 14.54V1.31001C15.1501 1.04001 15.3701 0.830014 15.6401 0.840014H18.0401C18.2901 0.840014 18.4901 1.03001 18.5101 1.28001V3.01001H18.5701C19.1601 1.15001 21.1501 0.120014 23.0101 0.720014C24.1001 1.07001 24.9501 1.92001 25.3001 3.01001C25.8301 1.50001 27.2701 0.500014 28.8701 0.550014C30.0401 0.530014 31.1601 1.07001 31.8601 2.01001C32.6801 3.12001 32.5001 4.73001 32.5001 6.17001V14.55C32.4901 14.82 32.2701 15.03 32.0001 15.02H29.4501C29.2001 15 29.0001 14.8 28.9801 14.55V7.52001C29.0201 6.69001 29.0001 5.86001 28.9201 5.03001C28.8101 4.30001 28.1301 3.79001 27.4001 3.89001C26.7101 3.91001 26.1001 4.34001 25.8501 4.97001C25.6401 5.80001 25.5601 6.66001 25.6201 7.52001V14.55C25.6101 14.82 25.3901 15.03 25.1201 15.02H22.5401C22.2901 15 22.0901 14.8 22.0701 14.55V7.52001C22.0701 6.06001 22.3001 3.86001 20.4901 3.86001C18.6401 3.86001 18.7001 5.97001 18.7001 7.52001V14.55C18.6701 14.8 18.4401 14.99 18.1901 14.98ZM65.9301 0.540014C69.7701 0.540014 71.8501 3.82001 71.8501 8.01001C71.8501 12.05 69.5601 15.27 65.9301 15.27C62.1801 15.27 60.1301 11.99 60.1301 7.89001C60.1001 3.76001 62.1801 0.540014 65.9301 0.540014ZM65.9301 3.26001C64.0301 3.26001 63.9101 5.87001 63.9101 7.48001C63.9101 9.09001 63.8801 12.55 65.9001 12.55C67.8901 12.55 68.0101 9.77001 68.0101 8.07001C68.0501 6.89001 67.9201 5.70001 67.6301 4.55001C67.4601 3.76001 66.7401 3.21001 65.9301 3.26001ZM76.7901 14.98H74.2101C73.9601 14.96 73.7601 14.76 73.7401 14.51V1.25001C73.7701 1.00001 73.9901 0.810014 74.2401 0.810014H76.6401C76.8601 0.820014 77.0601 0.970014 77.1101 1.19001V3.21001H77.1701C77.9001 1.39001 78.9001 0.540014 80.6801 0.540014C81.8901 0.490014 83.0401 1.08001 83.7001 2.09001C84.3701 3.14001 84.3701 4.93001 84.3701 6.22001V14.57C84.3301 14.81 84.1201 14.99 83.8701 14.98H81.2901C81.0601 14.96 80.8701 14.79 80.8201 14.57V7.37001C80.8201 5.91001 81.0001 3.80001 79.2101 3.80001C78.5501 3.83001 77.9701 4.24001 77.7201 4.85001C77.4101 5.65001 77.2701 6.51001 77.3101 7.37001V14.52C77.2901 14.78 77.0601 14.98 76.7901 14.98ZM42.3801 8.65001C42.4801 9.59001 42.3101 10.54 41.9101 11.4C41.5801 12.09 40.8901 12.54 40.1201 12.57C39.1201 12.57 38.5401 11.81 38.5401 10.69C38.5401 8.49002 40.5001 8.08001 42.3801 8.08001V8.65001ZM44.9901 14.95C44.8201 15.1 44.5701 15.12 44.3701 15.01C43.7701 14.53 43.2701 13.94 42.8801 13.28C41.8401 14.55 40.2701 15.24 38.6301 15.16C36.6101 15.28 34.8701 13.74 34.7501 11.71C34.7401 11.52 34.7401 11.33 34.7601 11.14C34.7001 9.29001 35.8001 7.61001 37.5101 6.92001C39.0801 6.40001 40.7201 6.09001 42.3701 6.01001V5.70001C42.4601 5.06001 42.3501 4.40001 42.0501 3.82001C41.7101 3.38001 41.1701 3.13001 40.6201 3.15001C39.6301 3.06001 38.7401 3.73001 38.5401 4.70001C38.4801 4.93001 38.3301 5.17001 38.1001 5.17001L35.6101 4.91001C35.3601 4.88001 35.1901 4.65001 35.2301 4.40001C35.2301 4.39001 35.2301 4.39001 35.2301 4.38001C35.8201 1.33001 38.5401 0.430014 41.0001 0.430014C42.4101 0.370014 43.8001 0.830014 44.9001 1.72001C46.1601 2.89001 46.0401 4.47001 46.0401 6.17001V10.18C46.0601 11.07 46.4001 11.93 47.0101 12.58C47.1901 12.81 47.2201 13.11 47.0101 13.25C46.4501 13.7 45.5101 14.52 44.9901 14.95ZM8.55014 8.65001C8.65014 9.59001 8.48014 10.54 8.08014 11.4C7.75014 12.09 7.06014 12.54 6.29014 12.57C5.29014 12.57 4.71014 11.81 4.71014 10.69C4.71014 8.49002 6.67014 8.08001 8.55014 8.08001V8.65001ZM11.1301 14.95C10.9601 15.1 10.7101 15.12 10.5101 15.01C9.91014 14.53 9.41014 13.94 9.02014 13.28C7.98014 14.55 6.41014 15.24 4.77014 15.16C2.75014 15.28 1.01014 13.74 0.890137 11.71C0.890137 11.52 0.890137 11.33 0.910137 11.15C0.850137 9.30001 1.95014 7.62001 3.66014 6.93001C5.23014 6.41001 6.87014 6.10001 8.52014 6.02001V5.70001C8.61014 5.06001 8.50014 4.40001 8.20014 3.82001C7.86014 3.38001 7.32014 3.13001 6.76014 3.15001C5.78014 3.06001 4.88014 3.73001 4.68014 4.70001C4.63014 4.94001 4.48014 5.17001 4.25014 5.17001L1.76014 4.91001C1.51014 4.87001 1.34014 4.64001 1.37014 4.40001C1.37014 4.39001 1.37014 4.39001 1.37014 4.38001C1.96014 1.33001 4.68014 0.430014 7.14014 0.430014C8.55014 0.370014 9.94014 0.830014 11.0401 1.72001C12.3001 2.89001 12.1801 4.47001 12.1801 6.17001V10.18C12.2001 11.07 12.5401 11.93 13.1501 12.58C13.3301 12.81 13.3601 13.11 13.1501 13.25C12.6001 13.69 11.6601 14.51 11.1301 14.95Z" fill="#261723"/>
</g>
<defs>
<clipPath id="clip0_48_266">
<rect width="83.49" height="25.14" fill="white" transform="translate(0.890137 0.419922)"/>
</clipPath>
</defs>
</svg>
