<svg width="599" height="700" viewBox="0 0 599 700" fill="none" xmlns="http://www.w3.org/2000/svg">
<g opacity="0.04">
<path d="M223.786 463.097C223.085 435.762 227.991 411.931 241.308 393.007C260.933 364.27 265.138 333.431 263.737 299.788C263.036 275.957 266.54 280.163 244.112 275.957C227.29 272.453 210.469 269.649 194.348 265.444C185.236 263.341 178.227 264.042 170.517 270.35C158.602 279.462 145.285 280.863 131.968 273.154C118.651 264.743 113.745 252.828 115.847 237.408C117.95 222.689 127.062 213.577 141.08 209.372C154.397 205.868 164.91 210.073 175.424 219.185C180.33 223.39 189.442 226.894 195.75 226.194C218.879 224.091 241.308 219.885 267.241 216.381C267.241 196.055 267.942 175.729 266.54 156.104C266.54 151.198 259.531 146.291 254.625 142.787C227.991 123.162 216.076 96.5276 221.683 64.2863C227.29 32.7459 246.915 12.4199 277.054 3.30823C313.5 -7.90612 352.751 10.3172 368.871 43.9603C385.693 79.0051 375.179 120.358 342.237 141.385C333.126 147.693 328.92 154.001 330.322 164.515C331.724 178.533 331.724 191.85 331.724 205.868C331.724 213.577 335.228 217.783 342.938 218.484C364.666 221.287 386.394 224.091 408.822 226.194C413.028 226.894 417.934 223.39 421.439 220.586C436.157 206.568 456.483 204.466 471.202 217.082C485.22 229.698 487.323 250.725 474.707 265.444C462.091 280.864 441.765 282.265 424.242 269.649C420.037 266.145 412.327 264.743 407.421 265.444C386.394 268.948 366.068 273.855 345.041 277.359C336.63 278.761 332.425 282.966 334.527 291.377C340.134 319.413 328.219 341.141 314.201 363.569C290.371 400.717 258.13 430.155 223.786 463.097ZM345.742 77.6033C345.742 51.6701 325.416 30.6432 300.183 29.9423C274.25 29.9423 251.821 50.9692 251.821 76.9024C251.821 103.537 272.848 124.563 300.884 123.863C326.117 123.863 345.742 103.537 345.742 77.6033ZM368.17 247.22C321.911 239.511 275.652 240.211 229.393 247.22C275.652 257.033 321.911 259.136 368.17 247.22ZM295.277 159.608C295.277 174.327 295.277 188.345 295.277 204.466C306.491 189.747 307.192 175.729 295.277 159.608ZM305.09 301.19C292.473 306.096 290.371 323.618 300.884 343.243C302.286 329.225 303.688 315.908 305.09 301.19Z" fill="black"/>
<path d="M45.7575 431.556C73.7934 472.208 108.838 503.749 155.798 521.972C181.031 531.785 204.16 526.878 224.486 510.057C283.362 463.097 333.125 408.427 364.666 338.337C365.367 336.234 366.768 334.132 367.469 332.029C381.487 364.27 380.786 420.342 365.367 458.891C345.741 508.655 310.697 547.205 270.045 580.147C250.419 595.566 230.093 609.584 209.767 623.602C205.562 626.406 197.852 626.406 192.946 624.303C135.472 598.37 89.914 559.12 59.7754 503.048C58.3736 500.945 56.271 498.843 54.8692 497.441C53.4674 497.441 52.0656 497.441 50.6638 497.441C48.5611 513.561 46.4584 529.682 45.0566 545.102C-10.3143 505.852 -13.1179 389.503 28.2351 334.833C41.5521 356.56 52.7665 381.092 68.8871 400.016C85.0077 418.94 107.436 432.958 127.062 449.78C115.847 466.601 93.4185 470.807 75.1952 455.387C65.3826 446.976 57.6728 436.463 49.262 427.351C48.5611 428.753 47.1593 430.155 45.7575 431.556ZM96.2221 503.749C110.941 534.588 151.593 561.923 172.62 555.615C147.388 538.794 121.454 521.271 96.2221 503.749ZM303.688 483.423C301.585 483.423 299.482 483.423 297.38 482.722C297.38 493.235 297.38 503.749 297.38 514.262C298.781 514.262 300.183 514.262 301.585 514.262C301.585 504.45 302.987 493.936 303.688 483.423Z" fill="black"/>
<path d="M570.729 336.935C614.886 385.998 605.774 506.552 553.908 544.401C551.805 528.28 550.403 512.16 548.301 496.039C546.899 496.039 545.497 495.338 544.095 495.338C541.292 499.543 537.787 503.749 535.684 508.655C503.443 564.026 457.184 602.575 398.309 627.808C383.59 634.116 368.871 641.125 354.853 648.835C327.518 663.553 316.304 674.768 300.884 700C282.661 681.777 264.437 662.852 246.214 643.928C267.942 625.705 292.473 607.482 314.902 585.754C337.331 564.026 356.956 540.195 378.683 515.664C410.224 533.887 441.764 524.776 472.604 506.552C503.443 487.628 529.376 464.499 548.301 432.257C524.47 455.387 501.34 482.722 465.595 444.873C492.229 437.864 511.854 421.744 527.274 400.717C543.394 381.793 556.711 359.364 570.729 336.935ZM415.13 564.727C455.782 559.12 480.314 535.289 501.34 505.851C473.305 524.776 445.269 543.7 415.13 564.727Z" fill="black"/>
</g>
</svg>
