<svg width="18" height="18" viewBox="0 0 18 18" fill="none" xmlns="http://www.w3.org/2000/svg">
<path d="M9.01562 17.2537C13.572 17.2537 17.2656 13.56 17.2656 9.00366C17.2656 4.44731 13.572 0.753662 9.01562 0.753662C4.45928 0.753662 0.765625 4.44731 0.765625 9.00366C0.765625 13.56 4.45928 17.2537 9.01562 17.2537Z" fill="black"/>
<path d="M13.7864 7.21149L11.1464 4.57149C11.1213 4.54644 11.0908 4.52749 11.0572 4.51612C11.0237 4.50475 10.9879 4.50125 10.9528 4.50591C10.9176 4.51056 10.884 4.52324 10.8546 4.54296C10.8251 4.56268 10.8006 4.58892 10.7829 4.61964C10.6694 4.83228 10.6004 5.06579 10.5801 5.30595C10.5598 5.54612 10.5886 5.78791 10.6647 6.01659L8.90114 7.78014C8.46564 7.55527 7.98364 7.43523 7.49354 7.42959C7.1996 7.42343 6.90734 7.4755 6.63361 7.58282C6.35988 7.69013 6.1101 7.85056 5.89867 8.05486C5.85537 8.09817 5.83104 8.1569 5.83104 8.21814C5.83104 8.27938 5.85537 8.33811 5.89867 8.38141L7.56734 10.0502L4.91414 13.1183C4.87576 13.1624 4.85554 13.2194 4.85756 13.2778C4.85958 13.3362 4.88369 13.3917 4.92502 13.433C4.96635 13.4744 5.02183 13.4985 5.08025 13.5005C5.13867 13.5026 5.19569 13.4824 5.23979 13.444L8.30729 10.7906L9.97627 12.4595C10.0196 12.5028 10.0783 12.5271 10.1395 12.5271C10.2008 12.5271 10.2595 12.5028 10.3028 12.4595C10.6595 12.052 10.8781 11.542 10.9274 11.0027C10.9767 10.4633 10.8541 9.92221 10.5772 9.45676L12.3407 7.69321C12.5697 7.76839 12.8114 7.79669 13.0515 7.77642C13.2916 7.75615 13.5252 7.68773 13.7383 7.57524C13.769 7.55757 13.7953 7.53304 13.8151 7.50357C13.8349 7.47409 13.8476 7.44045 13.8522 7.40526C13.8569 7.37008 13.8534 7.33429 13.842 7.30069C13.8306 7.26708 13.8115 7.23656 13.7864 7.21149Z" fill="white"/>
</svg>
